<svg width="18" height="22" viewBox="0 0 18 22" fill="none" xmlns="http://www.w3.org/2000/svg">
<path d="M9.00005 2C8.2044 2 7.44134 2.31607 6.87873 2.87868C6.31612 3.44129 6.00005 4.20435 6.00005 5V9C6.00005 9.79565 6.31612 10.5587 6.87873 11.1213C7.44134 11.6839 8.2044 12 9.00005 12C9.7957 12 10.5588 11.6839 11.1214 11.1213C11.684 10.5587 12.0001 9.79565 12.0001 9V5C12.0001 4.20435 11.684 3.44129 11.1214 2.87868C10.5588 2.31607 9.7957 2 9.00005 2ZM9.00005 0C9.65666 0 10.3068 0.129329 10.9135 0.380602C11.5201 0.631876 12.0713 1.00017 12.5356 1.46447C12.9999 1.92876 13.3682 2.47995 13.6195 3.08658C13.8707 3.69321 14.0001 4.34339 14.0001 5V9C14.0001 10.3261 13.4733 11.5979 12.5356 12.5355C11.5979 13.4732 10.3261 14 9.00005 14C7.67397 14 6.4022 13.4732 5.46452 12.5355C4.52684 11.5979 4.00005 10.3261 4.00005 9V5C4.00005 3.67392 4.52684 2.40215 5.46452 1.46447C6.4022 0.526784 7.67397 0 9.00005 0ZM0.0550537 10H2.07005C2.31235 11.6648 3.14592 13.1867 4.41829 14.2873C5.69065 15.3879 7.31673 15.9936 8.99905 15.9936C10.6814 15.9936 12.3075 15.3879 13.5798 14.2873C14.8522 13.1867 15.6858 11.6648 15.9281 10H17.9441C17.7167 12.0287 16.8067 13.9199 15.3633 15.3635C13.9199 16.8071 12.0287 17.7174 10.0001 17.945V22H8.00005V17.945C5.97119 17.7176 4.07984 16.8074 2.63623 15.3638C1.19262 13.9202 0.282466 12.0289 0.0550537 10Z" fill="#595D6E"/>
</svg>
