<svg width="20" height="20" viewBox="0 0 20 20" fill="none" xmlns="http://www.w3.org/2000/svg">
<path d="M17.7781 2.22209C20.1211 4.56509 20.1211 8.36409 17.7781 10.7071L10.7081 17.7781C8.36409 20.1211 4.56509 20.1211 2.22209 17.7781C-0.120906 15.4351 -0.120906 11.6361 2.22209 9.29309L9.29209 2.22209C11.6361 -0.120906 15.4351 -0.120906 17.7781 2.22209ZM12.1221 13.5351L6.46509 7.87809L3.63609 10.7081C2.07409 12.2691 2.07409 14.8021 3.63609 16.3641C5.19809 17.9261 7.73109 17.9261 9.29309 16.3641L12.1221 13.5351ZM16.3641 3.63609C14.8021 2.07409 12.2691 2.07409 10.7071 3.63609L7.88009 6.46409L13.5371 12.1211L16.3651 9.29309C17.9271 7.73109 17.9261 5.19809 16.3641 3.63609Z" fill="#717F93"/>
</svg>
