<svg width="12" height="13" viewBox="0 0 12 13" fill="none" xmlns="http://www.w3.org/2000/svg">
<path d="M4.244 5.78735C4.86956 6.88633 5.77968 7.79646 6.87867 8.42202L7.468 7.59668C7.56277 7.46397 7.7029 7.3706 7.86187 7.33424C8.02084 7.29787 8.18762 7.32104 8.33067 7.39935C9.27355 7.91463 10.3148 8.22453 11.386 8.30868C11.5532 8.32193 11.7092 8.39771 11.823 8.5209C11.9368 8.64409 12 8.80564 12 8.97335V11.948C12 12.1131 11.9388 12.2723 11.8282 12.3948C11.7177 12.5174 11.5655 12.5945 11.4013 12.6113C11.048 12.648 10.692 12.666 10.3333 12.666C4.62667 12.666 0 8.03935 0 2.33268C0 1.97402 0.018 1.61802 0.0546667 1.26468C0.0715031 1.10048 0.148656 0.948363 0.271193 0.837772C0.39373 0.72718 0.552937 0.66598 0.718 0.666016H3.69267C3.86037 0.665995 4.02193 0.729183 4.14512 0.842983C4.26831 0.956782 4.34408 1.11283 4.35733 1.28002C4.44148 2.35121 4.75138 3.39247 5.26667 4.33535C5.34498 4.47839 5.36814 4.64518 5.33178 4.80415C5.29541 4.96312 5.20204 5.10324 5.06933 5.19802L4.244 5.78735ZM2.56267 5.34935L3.82933 4.44468C3.46986 3.66874 3.22357 2.84524 3.098 1.99935H1.34C1.336 2.11002 1.334 2.22135 1.334 2.33268C1.33333 7.30335 5.36267 11.3327 10.3333 11.3327C10.4447 11.3327 10.556 11.3307 10.6667 11.326V9.56802C9.82077 9.44245 8.99727 9.19616 8.22133 8.83668L7.31667 10.1033C6.95244 9.96183 6.59867 9.79474 6.258 9.60335L6.21933 9.58135C4.91172 8.83716 3.82885 7.7543 3.08467 6.44668L3.06267 6.40802C2.87127 6.06734 2.70419 5.71357 2.56267 5.34935Z" fill="#FF2252"/>
</svg>
