<svg width="22" height="22" viewBox="0 0 22 22" fill="none" xmlns="http://www.w3.org/2000/svg">
<path d="M16.5 2.2H20.9C21.1917 2.2 21.4715 2.31589 21.6778 2.52218C21.8841 2.72847 22 3.00826 22 3.3V20.9C22 21.1917 21.8841 21.4715 21.6778 21.6778C21.4715 21.8841 21.1917 22 20.9 22H1.1C0.808262 22 0.528472 21.8841 0.322183 21.6778C0.115892 21.4715 0 21.1917 0 20.9V3.3C0 3.00826 0.115892 2.72847 0.322183 2.52218C0.528472 2.31589 0.808262 2.2 1.1 2.2H5.5V0H7.7V2.2H14.3V0H16.5V2.2ZM19.8 8.8V4.4H16.5V6.6H14.3V4.4H7.7V6.6H5.5V4.4H2.2V8.8H19.8ZM19.8 11H2.2V19.8H19.8V11ZM4.4 13.2H9.9V17.6H4.4V13.2Z" fill="#485DFF"/>
</svg>
