<svg width="27" height="20" viewBox="0 0 27 20" fill="none" xmlns="http://www.w3.org/2000/svg">
<path d="M19.2 6.64234L25.4556 2.26234C25.5456 2.19929 25.6511 2.16214 25.7607 2.15495C25.8703 2.14775 25.9798 2.17078 26.0772 2.22154C26.1746 2.27229 26.2563 2.34881 26.3132 2.44277C26.3701 2.53672 26.4001 2.6445 26.4 2.75434V17.2503C26.4001 17.3602 26.3701 17.468 26.3132 17.5619C26.2563 17.6559 26.1746 17.7324 26.0772 17.7831C25.9798 17.8339 25.8703 17.8569 25.7607 17.8497C25.6511 17.8425 25.5456 17.8054 25.4556 17.7423L19.2 13.3623V18.4023C19.2 18.7206 19.0736 19.0258 18.8485 19.2509C18.6235 19.4759 18.3183 19.6023 18 19.6023H1.2C0.88174 19.6023 0.576515 19.4759 0.351472 19.2509C0.126428 19.0258 0 18.7206 0 18.4023V1.60234C0 1.28408 0.126428 0.978859 0.351472 0.753816C0.576515 0.528772 0.88174 0.402344 1.2 0.402344H18C18.3183 0.402344 18.6235 0.528772 18.8485 0.753816C19.0736 0.978859 19.2 1.28408 19.2 1.60234V6.64234ZM19.2 10.4331L24 13.7931V6.21034L19.2 9.57034V10.4319V10.4331ZM2.4 2.80234V17.2023H16.8V2.80234H2.4ZM4.8 5.20234H7.2V7.60234H4.8V5.20234Z" fill="white"/>
</svg>
