<svg width="32" height="32" viewBox="0 0 32 32" fill="none" xmlns="http://www.w3.org/2000/svg">
<rect width="32" height="32" rx="16" fill="#FF2252"/>
<path d="M15.9978 18.5013C19.3978 18.5013 22.2028 21.0463 22.6128 24.3346H9.38281C9.79281 21.0463 12.5978 18.5013 15.9978 18.5013ZM14.487 20.4013C13.292 20.7796 12.2861 21.5955 11.6645 22.668H15.9978L14.487 20.4013ZM17.5095 20.4013L15.9978 22.668H20.3303C19.7095 21.5955 18.7036 20.7796 17.5095 20.4013ZM20.9978 7.66797V12.668C20.9978 15.4296 18.7595 17.668 15.9978 17.668C13.2361 17.668 10.9978 15.4296 10.9978 12.668V7.66797H20.9978ZM12.6645 12.668C12.6645 14.5096 14.1561 16.0013 15.9978 16.0013C17.8395 16.0013 19.3311 14.5096 19.3311 12.668H12.6645ZM19.3311 9.33464H12.6645V11.0013H19.3311V9.33464Z" fill="white"/>
</svg>
