<svg width="8" height="7" viewBox="0 0 8 7" fill="none" xmlns="http://www.w3.org/2000/svg">
<path d="M2.66641 5.30104L6.83307 1.13437C6.93307 1.03437 7.04974 0.984375 7.18307 0.984375C7.31641 0.984375 7.43307 1.03437 7.53307 1.13437C7.63307 1.23437 7.68307 1.35104 7.68307 1.48438C7.68307 1.61771 7.63307 1.73438 7.53307 1.83438L3.01641 6.35104C2.91641 6.45104 2.79974 6.50104 2.66641 6.50104C2.53307 6.50104 2.41641 6.45104 2.31641 6.35104L0.466406 4.50104C0.366406 4.40104 0.316406 4.28438 0.316406 4.15104C0.316406 4.01771 0.366406 3.90104 0.466406 3.80104C0.566406 3.70104 0.683073 3.65104 0.816406 3.65104C0.94974 3.65104 1.06641 3.70104 1.16641 3.80104L2.66641 5.30104Z" fill="#34A853"/>
</svg>
