<svg width="18" height="18" viewBox="0 0 18 18" fill="none" xmlns="http://www.w3.org/2000/svg">
<path d="M13.1665 2.50065H16.4998C16.7208 2.50065 16.9328 2.58845 17.0891 2.74473C17.2454 2.90101 17.3332 3.11297 17.3332 3.33398V16.6673C17.3332 16.8883 17.2454 17.1003 17.0891 17.2566C16.9328 17.4129 16.7208 17.5007 16.4998 17.5007H1.49984C1.27882 17.5007 1.06686 17.4129 0.910582 17.2566C0.754301 17.1003 0.666504 16.8883 0.666504 16.6673V3.33398C0.666504 3.11297 0.754301 2.90101 0.910582 2.74473C1.06686 2.58845 1.27882 2.50065 1.49984 2.50065H4.83317V0.833984H6.49984V2.50065H11.4998V0.833984H13.1665V2.50065ZM15.6665 7.50065V4.16732H13.1665V5.83398H11.4998V4.16732H6.49984V5.83398H4.83317V4.16732H2.33317V7.50065H15.6665ZM15.6665 9.16732H2.33317V15.834H15.6665V9.16732ZM3.99984 10.834H8.1665V14.1673H3.99984V10.834Z" fill="#485DFF"/>
</svg>
