<svg width="34" height="14" viewBox="0 0 34 14" fill="none" xmlns="http://www.w3.org/2000/svg">
<path d="M4.34846 13.3171L1.01469 9.98335C0.775884 9.74476 0.63646 9.42448 0.624552 9.08712C0.612643 8.74977 0.72914 8.42047 0.950531 8.16566C1.33423 7.72539 1.65571 7.37375 1.91591 7.11354C10.2471 -1.2176 23.7534 -1.21722 32.085 7.11438C32.3452 7.3746 32.6676 7.72532 33.0504 8.16655C33.2718 8.42137 33.3883 8.75068 33.3764 9.08803C33.3645 9.42538 33.2251 9.74566 32.9863 9.98424L29.6528 13.3178C29.5359 13.4349 29.3798 13.5043 29.2146 13.5127C29.0494 13.5211 28.8871 13.4677 28.759 13.3631C28.5205 13.1679 28.3281 13.0152 28.1782 12.903C26.6833 11.7827 25.0275 10.8949 23.2672 10.2696C22.9891 10.1706 22.8222 9.88685 22.8712 9.59647L23.4519 6.10819C19.3093 4.4535 14.6895 4.45337 10.5471 6.10784L11.126 9.59049C11.1497 9.7328 11.1226 9.87889 11.0495 10.0033C10.9765 10.1277 10.8621 10.2225 10.7263 10.2712C8.96719 10.8973 7.31281 11.7856 5.81919 12.9061C5.66929 13.0183 5.47603 13.1701 5.24034 13.3643C5.11224 13.4686 4.94999 13.5216 4.78504 13.513C4.62009 13.5045 4.46418 13.435 4.34752 13.3181L4.34846 13.3171Z" fill="white"/>
</svg>
