<svg width="30" height="28" viewBox="0 0 30 28" fill="none" xmlns="http://www.w3.org/2000/svg">
<path d="M14.9999 14.7826L20.6572 20.4386L18.7705 22.3253L16.3332 19.888V27.3346H13.6665V19.8853L11.2292 22.3253L9.34253 20.4386L14.9999 14.7826ZM14.9999 0.667969C17.2892 0.668078 19.4986 1.50945 21.2081 3.03213C22.9176 4.5548 24.008 6.65259 24.2719 8.92663C25.9309 9.37906 27.3782 10.4001 28.3607 11.8113C29.3433 13.2226 29.7987 14.9342 29.6474 16.6472C29.496 18.3601 28.7475 19.9653 27.5326 21.1824C26.3178 22.3994 24.7138 23.1508 23.0012 23.3053V20.62C23.6148 20.5323 24.2047 20.3234 24.7366 20.0053C25.2686 19.6872 25.7318 19.2663 26.0993 18.7672C26.4668 18.2681 26.7312 17.7008 26.877 17.0984C27.0229 16.496 27.0473 15.8706 26.9488 15.2587C26.8503 14.6468 26.631 14.0606 26.3035 13.5344C25.976 13.0082 25.547 12.5525 25.0415 12.1939C24.536 11.8353 23.9641 11.581 23.3592 11.4458C22.7543 11.3107 22.1286 11.2973 21.5185 11.4066C21.7273 10.4345 21.716 9.42793 21.4855 8.46071C21.2549 7.49348 20.8109 6.59008 20.186 5.81667C19.5611 5.04327 18.7711 4.41944 17.8738 3.99089C16.9766 3.56235 15.9949 3.33993 15.0005 3.33993C14.0062 3.33993 13.0245 3.56235 12.1272 3.99089C11.23 4.41944 10.44 5.04327 9.81506 5.81667C9.19014 6.59008 8.74613 7.49348 8.51557 8.46071C8.285 9.42793 8.27371 10.4345 8.48253 11.4066C7.26607 11.1782 6.00868 11.4423 4.98698 12.141C3.96529 12.8396 3.26297 13.9155 3.03453 15.132C2.80609 16.3484 3.07024 17.6058 3.76887 18.6275C4.46751 19.6492 5.5434 20.3515 6.75986 20.58L6.99986 20.62V23.3053C5.28713 23.1511 3.68307 22.3998 2.46804 21.1829C1.25301 19.9659 0.504295 18.3607 0.352758 16.6477C0.20122 14.9348 0.656498 13.223 1.63902 11.8117C2.62154 10.4003 4.0688 9.37915 5.72786 8.92663C5.99147 6.65247 7.08173 4.55452 8.7913 3.03179C10.5009 1.50906 12.7105 0.667786 14.9999 0.667969Z" fill="#485DFF"/>
</svg>
