<svg width="13" height="14" viewBox="0 0 13 14" fill="none" xmlns="http://www.w3.org/2000/svg">
<path d="M9.6775 8.88245C10.2653 8.26144 10.6582 7.48182 10.8076 6.63994C10.9571 5.79806 10.8566 4.93083 10.5186 4.14544C10.1805 3.36005 9.61975 2.69094 8.90555 2.2208C8.19136 1.75066 7.35505 1.50011 6.5 1.50011C5.64496 1.50011 4.80865 1.75066 4.09445 2.2208C3.38026 2.69094 2.81948 3.36005 2.48144 4.14544C2.14339 4.93083 2.0429 5.79806 2.19237 6.63994C2.34185 7.48182 2.73475 8.26144 3.3225 8.88245C3.65979 8.34423 4.12835 7.90057 4.68417 7.59314C5.23999 7.28572 5.86483 7.12461 6.5 7.12495C7.13518 7.12461 7.76002 7.28572 8.31583 7.59314C8.87165 7.90057 9.34021 8.34423 9.6775 8.88245ZM4.24063 9.80308L6.5 12.0618L8.75938 9.80308C8.55676 9.3753 8.23687 9.01384 7.83691 8.76072C7.43694 8.5076 6.97333 8.37323 6.5 8.37323C6.02667 8.37323 5.56307 8.5076 5.1631 8.76072C4.76313 9.01384 4.44324 9.3753 4.24063 9.80308ZM6.5 13.83L2.5225 9.85245C1.73584 9.06578 1.20012 8.0635 0.98308 6.97236C0.766044 5.88122 0.877442 4.75022 1.30319 3.72239C1.72893 2.69456 2.4499 1.81606 3.37493 1.19798C4.29995 0.579899 5.38749 0.25 6.5 0.25C7.61252 0.25 8.70005 0.579899 9.62508 1.19798C10.5501 1.81606 11.2711 2.69456 11.6968 3.72239C12.1226 4.75022 12.234 5.88122 12.0169 6.97236C11.7999 8.0635 11.2642 9.06578 10.4775 9.85245L6.5 13.83ZM6.5 5.24995C6.66576 5.24995 6.82473 5.1841 6.94194 5.06689C7.05915 4.94968 7.125 4.79071 7.125 4.62495C7.125 4.45919 7.05915 4.30022 6.94194 4.18301C6.82473 4.0658 6.66576 3.99995 6.5 3.99995C6.33424 3.99995 6.17527 4.0658 6.05806 4.18301C5.94085 4.30022 5.875 4.45919 5.875 4.62495C5.875 4.79071 5.94085 4.94968 6.05806 5.06689C6.17527 5.1841 6.33424 5.24995 6.5 5.24995ZM6.5 6.49995C6.00272 6.49995 5.52581 6.30241 5.17418 5.95078C4.82255 5.59915 4.625 5.12223 4.625 4.62495C4.625 4.12767 4.82255 3.65076 5.17418 3.29913C5.52581 2.9475 6.00272 2.74995 6.5 2.74995C6.99728 2.74995 7.4742 2.9475 7.82583 3.29913C8.17746 3.65076 8.375 4.12767 8.375 4.62495C8.375 5.12223 8.17746 5.59915 7.82583 5.95078C7.4742 6.30241 6.99728 6.49995 6.5 6.49995Z" fill="#485DFF"/>
</svg>
