<svg width="19" height="20" viewBox="0 0 19 20" fill="none" xmlns="http://www.w3.org/2000/svg">
<path d="M12.8273 5.75884L7.17131 11.4158C7.0758 11.5081 6.99962 11.6184 6.94721 11.7404C6.8948 11.8624 6.86721 11.9937 6.86606 12.1264C6.86491 12.2592 6.89021 12.3909 6.94049 12.5138C6.99077 12.6367 7.06502 12.7483 7.15892 12.8422C7.25281 12.9361 7.36446 13.0104 7.48736 13.0607C7.61025 13.1109 7.74193 13.1362 7.87471 13.1351C8.00749 13.1339 8.13871 13.1064 8.26071 13.0539C8.38272 13.0015 8.49306 12.9254 8.58531 12.8298L14.2423 7.17384C14.805 6.61118 15.1211 5.84806 15.1211 5.05234C15.1211 4.25662 14.805 3.4935 14.2423 2.93084C13.6797 2.36818 12.9165 2.05209 12.1208 2.05209C11.3251 2.05209 10.562 2.36818 9.99931 2.93084L4.34231 8.58784C3.86839 9.04997 3.49094 9.6016 3.23187 10.2107C2.9728 10.8199 2.83726 11.4744 2.83311 12.1363C2.82896 12.7982 2.95629 13.4544 3.20771 14.0667C3.45913 14.6791 3.82963 15.2354 4.29773 15.7034C4.76582 16.1715 5.32219 16.5419 5.93456 16.7932C6.54694 17.0445 7.20312 17.1718 7.86505 17.1675C8.52697 17.1633 9.18147 17.0277 9.79057 16.7685C10.3997 16.5094 10.9512 16.1318 11.4133 15.6578L17.0703 10.0018L18.4843 11.4158L12.8273 17.0728C12.1773 17.7229 11.4056 18.2385 10.5562 18.5903C9.70691 18.9421 8.79661 19.1232 7.87731 19.1232C6.95801 19.1232 6.04771 18.9421 5.19839 18.5903C4.34907 18.2385 3.57735 17.7229 2.92731 17.0728C2.27727 16.4228 1.76162 15.6511 1.40982 14.8018C1.05802 13.9524 0.876953 13.0421 0.876953 12.1228C0.876953 11.2035 1.05802 10.2932 1.40982 9.44392C1.76162 8.5946 2.27727 7.82288 2.92731 7.17284L8.58531 1.51684C9.52832 0.60605 10.7913 0.102078 12.1023 0.11347C13.4133 0.124862 14.6674 0.650707 15.5944 1.57775C16.5214 2.50479 17.0473 3.75885 17.0587 5.06983C17.0701 6.38082 16.5661 7.64383 15.6553 8.58684L9.99931 14.2458C9.72065 14.5244 9.38983 14.7454 9.02577 14.8962C8.6617 15.0469 8.2715 15.1245 7.87746 15.1244C7.48341 15.1244 7.09323 15.0467 6.7292 14.8959C6.36517 14.7451 6.03441 14.524 5.75581 14.2453C5.47721 13.9667 5.25623 13.6359 5.10547 13.2718C4.95472 12.9077 4.87716 12.5175 4.8772 12.1235C4.87725 11.7294 4.95491 11.3393 5.10575 10.9752C5.25658 10.6112 5.47765 10.2804 5.75631 10.0018L11.4133 4.34484L12.8273 5.75884Z" fill="#717F93"/>
</svg>
