<svg width="146" height="41" viewBox="0 0 146 41" fill="none" xmlns="http://www.w3.org/2000/svg">
<g clip-path="url(#clip0_1477_13556)">
<path d="M51.1633 14.7813V31.7837H55.4205V14.7813H51.1633ZM55.2089 8.59189C54.677 8.04886 54.0383 7.77734 53.2909 7.77734C52.5435 7.77734 51.9048 8.04489 51.3769 8.57405C50.8489 9.10717 50.5859 9.74732 50.5859 10.4965C50.5859 11.2456 50.8529 11.9452 51.3848 12.4922C51.9206 13.0352 52.5672 13.3087 53.3225 13.3087C54.0779 13.3087 54.6908 13.0412 55.2188 12.5061C55.7467 11.969 56.0097 11.3209 56.0097 10.5599C56.0097 9.79885 55.7428 9.13294 55.2089 8.59189Z" fill="#0A1542"/>
<path d="M71.3813 10.379C70.0031 8.93426 68.2808 8.21484 66.2126 8.21484C64.1443 8.21484 62.5526 8.91048 61.1526 10.2998C59.7527 11.6891 59.0547 13.3895 59.0547 15.3991C59.0547 17.4087 59.7349 19.2023 61.1012 20.5975C62.4656 21.9928 64.1206 22.6904 66.0702 22.6904L61.2297 31.7852H65.8013L71.6561 20.7819C72.4273 19.2955 72.9177 18.1955 73.1312 17.482C73.3428 16.7686 73.4495 16.0591 73.4495 15.3515C73.4495 13.4787 72.7614 11.8218 71.3833 10.381L71.3813 10.379ZM68.3481 17.6565C67.7984 18.253 67.1182 18.5463 66.3055 18.5463C65.4928 18.5463 64.7434 18.251 64.1759 17.6565C63.6084 17.0639 63.3257 16.3266 63.3257 15.4427C63.3257 14.5588 63.6203 13.8037 64.1997 13.2052C64.783 12.6086 65.479 12.3114 66.2897 12.3114C67.0569 12.3114 67.7311 12.6126 68.3085 13.2151C68.8859 13.8176 69.1766 14.5667 69.1766 15.4586C69.1766 16.3504 68.8997 17.0619 68.3481 17.6545V17.6565Z" fill="#0A1542"/>
<path d="M85.7854 28.3121C84.2451 28.3121 82.9994 27.8542 82.0542 26.9406C81.1071 26.027 80.6345 24.8458 80.6345 23.397C80.6345 21.9483 81.1289 20.6878 82.1096 19.7385C83.0943 18.7852 84.3835 18.3076 85.9733 18.3076C86.8473 18.3076 87.6105 18.4463 88.261 18.7159C88.9136 18.9854 89.57 19.471 90.2384 20.1666L93.7797 18.2125C92.9295 16.9718 91.8301 16.0166 90.4895 15.3447C89.1489 14.6729 87.6342 14.3359 85.9515 14.3359C84.1344 14.3359 82.4893 14.7343 81.0161 15.5231C79.545 16.3158 78.3962 17.4039 77.5776 18.7892C76.755 20.1745 76.3438 21.6926 76.3438 23.3376C76.3438 25.7138 77.19 27.7888 78.8807 29.5586C79.8831 30.611 81.117 31.3522 82.5782 31.7783C83.5728 32.0736 84.6801 32.2183 85.8883 32.2183C87.0964 32.2183 88.1206 32.0736 89.0994 31.7783C90.9146 31.2413 92.4094 30.1988 93.5919 28.6569L90.2364 26.354C89.1746 27.6561 87.6896 28.3081 85.7854 28.3081V28.3121Z" fill="#0A1542"/>
<path d="M110.137 14.7818V16.6547C109.38 15.8817 108.555 15.303 107.66 14.9185C106.768 14.5341 105.811 14.3398 104.795 14.3398C102.584 14.3398 100.704 15.1782 99.1553 16.8588C97.611 18.5355 96.8359 20.6858 96.8359 23.3118C96.8359 25.9377 97.6348 27.9632 99.2344 29.6676C100.172 30.6645 101.212 31.372 102.351 31.7842C103.155 32.0795 104.014 32.2242 104.917 32.2242C105.821 32.2242 106.641 32.0756 107.417 31.7842C107.492 31.7565 107.565 31.7287 107.638 31.697C108.47 31.3502 109.307 30.7794 110.137 29.9867V31.7842H114.395V14.7818H110.137ZM109.004 26.9148C108.122 27.8502 107.013 28.314 105.677 28.314C104.34 28.314 103.292 27.8403 102.408 26.893C101.52 25.9437 101.077 24.7347 101.077 23.2662C101.077 21.7976 101.512 20.6124 102.384 19.677C103.254 18.7455 104.348 18.2778 105.665 18.2778C106.982 18.2778 108.124 18.7376 109.006 19.6532C109.888 20.5708 110.327 21.7699 110.327 23.2483C110.327 24.7268 109.888 25.9813 109.006 26.9128L109.004 26.9148Z" fill="#0A1542"/>
<path d="M125.075 14.3398C124.294 14.3398 123.578 14.5578 122.921 14.9978C122.269 15.4338 121.743 16.076 121.345 16.9202V14.7798H117.695V31.7822H121.921V24.9072L121.907 24.0787C121.907 21.7025 122.132 20.1051 122.585 19.2965C123.038 18.4819 123.592 18.0776 124.248 18.0776C124.57 18.0776 124.98 18.2025 125.478 18.4522L126.805 14.7818C126.2 14.4865 125.622 14.3418 125.073 14.3418L125.075 14.3398Z" fill="#0A1542"/>
<path d="M145.925 23.7041C145.925 20.8918 145.088 18.6266 143.416 16.9162C141.739 15.2019 139.566 14.3438 136.894 14.3438C134.379 14.3438 132.287 15.2019 130.618 16.9162C128.95 18.6266 128.117 20.7808 128.117 23.3751C128.117 25.9694 128.954 28.0166 130.626 29.6992C131.605 30.6823 132.748 31.3759 134.061 31.7842C134.998 32.0795 136.021 32.2241 137.13 32.2241C138.318 32.2241 139.394 32.0795 140.357 31.7842C140.782 31.6553 141.189 31.4968 141.573 31.3105C142.821 30.7001 143.892 29.7587 144.786 28.4883L141.199 26.8018C140.056 27.9175 138.686 28.4745 137.098 28.4745C135.767 28.4745 134.672 28.1138 133.816 27.4003C132.96 26.6868 132.43 25.7276 132.234 24.5186H145.911L145.925 23.7041ZM132.42 21.1574C132.9 20.105 133.422 19.3698 133.982 18.9516C134.878 18.2857 135.92 17.9547 137.106 17.9547C138.202 17.9547 139.162 18.25 139.989 18.8446C140.817 19.4371 141.371 20.2101 141.654 21.1574H132.42Z" fill="#0A1542"/>
<path d="M23.5979 38.9793C23.2242 38.9793 22.8485 38.8525 22.5381 38.5949C21.8362 38.0082 21.7412 36.9618 22.3265 36.2582L35.7209 20.1595C39.3374 15.8133 38.7501 9.32666 34.4158 5.70183C32.5789 4.16588 30.2536 3.31963 27.865 3.31963C25.7117 3.31963 23.6553 3.9776 21.9153 5.22222C21.1718 5.75534 20.1376 5.58292 19.6057 4.83575C19.0738 4.09057 19.2459 3.05406 19.9913 2.52093C22.2949 0.872021 25.0157 0 27.863 0C31.0247 0 34.1054 1.11975 36.5355 3.15117C42.2737 7.94728 43.0488 16.5288 38.2637 22.2821L34.7124 26.5511C34.7124 26.5511 34.7085 26.557 34.7065 26.559L24.8694 38.3828C24.5411 38.7772 24.0705 38.9793 23.5979 38.9793Z" fill="#00AEEF"/>
<path d="M18.4525 39.9981C17.9602 39.9981 17.4797 39.7762 17.1593 39.3758L16.3427 38.3532L3.13621 22.4784C-1.64692 16.7251 -0.871808 8.14361 4.86636 3.34948C5.56831 2.76285 6.61233 2.85798 7.19762 3.56154C7.78291 4.2651 7.68799 5.31153 6.98605 5.89816C2.64979 9.52299 2.06253 16.0077 5.67904 20.3559L16.7975 33.7196V26.8603C16.7975 25.9447 17.539 25.2015 18.4525 25.2015C19.366 25.2015 20.1075 25.9447 20.1075 26.8603V38.3393C20.1075 39.0429 19.6646 39.6711 19.0002 39.905C18.8203 39.9684 18.6364 39.9981 18.4525 39.9981Z" fill="#FF2252"/>
<path d="M18.4497 22.617C19.7078 22.617 20.7276 21.5948 20.7276 20.3339C20.7276 19.073 19.7078 18.0508 18.4497 18.0508C17.1917 18.0508 16.1719 19.073 16.1719 20.3339C16.1719 21.5948 17.1917 22.617 18.4497 22.617Z" fill="#FF2252"/>
<path d="M28.7338 19.7061C24.973 19.7061 21.9141 16.6401 21.9141 12.8706C21.9141 9.1011 24.973 6.03516 28.7338 6.03516C32.4947 6.03516 35.5536 9.1011 35.5536 12.8706C35.5536 16.6401 32.4947 19.7061 28.7338 19.7061ZM28.7338 9.35478C26.8 9.35478 25.2241 10.9323 25.2241 12.8726C25.2241 14.8128 26.798 16.3904 28.7338 16.3904C30.6696 16.3904 32.2436 14.8128 32.2436 12.8726C32.2436 10.9323 30.6696 9.35478 28.7338 9.35478Z" fill="#00AEEF"/>
<path d="M12.4769 5.8048V3.7278C12.4769 3.30765 12.817 2.96875 13.2342 2.96875H14.6322C15.0514 2.96875 15.3895 3.30963 15.3895 3.7278V5.8048C15.3895 6.22496 15.7296 6.56385 16.1468 6.56385H18.219C18.6382 6.56385 18.9763 6.90474 18.9763 7.32291V8.4823C18.9763 8.90246 18.6362 9.24135 18.219 9.24135H16.1468C15.7276 9.24135 15.3895 9.58224 15.3895 10.0004V12.1012C15.3895 12.5213 15.0494 12.8602 14.6322 12.8602H13.2342C12.815 12.8602 12.4769 12.5194 12.4769 12.1012V10.0004C12.4769 9.58025 12.1368 9.24135 11.7196 9.24135H9.69481C9.27562 9.24135 8.9375 8.90047 8.9375 8.4823V7.32291C8.9375 6.90275 9.2776 6.56385 9.69481 6.56385H11.7196C12.1388 6.56385 12.4769 6.22297 12.4769 5.8048Z" fill="#FF0E2B"/>
</g>
<defs>
<clipPath id="clip0_1477_13556">
<rect width="145.926" height="40" fill="white" transform="translate(0 0.5)"/>
</clipPath>
</defs>
</svg>
