<svg width="419" height="115" viewBox="0 0 419 115" fill="none" xmlns="http://www.w3.org/2000/svg">
<g clip-path="url(#clip0_1156_9907)">
<path d="M146.911 42.4933V91.3753H159.135V42.4933H146.911ZM158.527 24.6989C157 23.1377 155.166 22.3571 153.02 22.3571C150.874 22.3571 149.04 23.1263 147.524 24.6476C146.008 26.1803 145.253 28.0207 145.253 30.1745C145.253 32.3283 146.02 34.3397 147.547 35.9123C149.086 37.4735 150.942 38.2598 153.111 38.2598C155.28 38.2598 157.04 37.4906 158.556 35.9522C160.072 34.408 160.827 32.5448 160.827 30.3569C160.827 28.1689 160.06 26.2544 158.527 24.6989Z" fill="white"/>
<path d="M204.958 29.8397C201.001 25.686 196.055 23.6177 190.117 23.6177C184.178 23.6177 179.608 25.6176 175.588 29.6118C171.568 33.606 169.564 38.4948 169.564 44.2724C169.564 50.0501 171.517 55.2066 175.44 59.2179C179.358 63.2292 184.11 65.2349 189.708 65.2349L175.809 91.3824H188.936L205.747 59.7478C207.961 55.4744 209.369 52.3121 209.982 50.2609C210.59 48.2097 210.896 46.1698 210.896 44.1357C210.896 38.7512 208.921 33.9878 204.963 29.8454L204.958 29.8397ZM196.248 50.7623C194.67 52.4774 192.717 53.3206 190.384 53.3206C188.05 53.3206 185.898 52.4717 184.269 50.7623C182.64 49.0586 181.828 46.939 181.828 44.3978C181.828 41.8565 182.674 39.6857 184.337 37.9649C186.012 36.2498 188.01 35.3952 190.338 35.3952C192.541 35.3952 194.477 36.2612 196.135 37.9934C197.793 39.7255 198.627 41.8793 198.627 44.4434C198.627 47.0074 197.833 49.0529 196.248 50.7566V50.7623Z" fill="white"/>
<path d="M246.324 81.3972C241.902 81.3972 238.325 80.081 235.611 77.4542C232.891 74.8275 231.535 71.4316 231.535 67.2665C231.535 63.1013 232.954 59.4775 235.77 56.7482C238.597 54.0075 242.299 52.6343 246.864 52.6343C249.373 52.6343 251.565 53.0332 253.433 53.8081C255.306 54.583 257.191 55.979 259.11 57.9789L269.279 52.3608C266.837 48.794 263.681 46.0476 259.831 44.116C255.982 42.1845 251.633 41.2158 246.801 41.2158C241.584 41.2158 236.86 42.3611 232.63 44.6288C228.406 46.908 225.108 50.0361 222.757 54.0189C220.395 58.0017 219.214 62.3663 219.214 67.0955C219.214 73.9273 221.644 79.8929 226.499 84.9811C229.377 88.0067 232.92 90.1377 237.116 91.3627C239.971 92.2117 243.151 92.6277 246.62 92.6277C250.089 92.6277 253.03 92.2117 255.84 91.3627C261.052 89.8186 265.344 86.8215 268.739 82.3886L259.105 75.7677C256.056 79.5112 251.792 81.3858 246.324 81.3858V81.3972Z" fill="white"/>
<path d="M316.243 42.4921V47.8765C314.069 45.6544 311.701 43.9906 309.129 42.8852C306.569 41.7798 303.821 41.2214 300.902 41.2214C294.555 41.2214 289.156 43.6316 284.71 48.4634C280.276 53.2838 278.05 59.466 278.05 67.0157C278.05 74.5653 280.344 80.3886 284.937 85.2887C287.628 88.1548 290.615 90.1889 293.885 91.374C296.196 92.223 298.66 92.639 301.254 92.639C303.849 92.639 306.205 92.2116 308.431 91.374C308.647 91.2943 308.857 91.2145 309.067 91.1233C311.457 90.1262 313.858 88.4852 316.243 86.2061V91.374H328.467V42.4921H316.243ZM312.99 77.3744C310.458 80.0638 307.273 81.3971 303.435 81.3971C299.597 81.3971 296.587 80.0353 294.05 77.3117C291.5 74.5824 290.229 71.1067 290.229 66.8846C290.229 62.6625 291.478 59.2552 293.981 56.5658C296.48 53.8878 299.619 52.5431 303.4 52.5431C307.182 52.5431 310.463 53.865 312.995 56.4974C315.528 59.1355 316.788 62.5827 316.788 66.8333C316.788 71.0839 315.528 74.6907 312.995 77.3687L312.99 77.3744Z" fill="white"/>
<path d="M359.136 41.2271C356.894 41.2271 354.838 41.8538 352.954 43.1187C351.08 44.3723 349.57 46.2184 348.429 48.6457V42.492H337.948V91.374H350.081V71.6081L350.041 69.2264C350.041 62.3946 350.688 57.8021 351.988 55.4774C353.288 53.1356 354.878 51.9732 356.763 51.9732C357.689 51.9732 358.864 52.3322 360.295 53.0501L364.104 42.4977C362.367 41.6487 360.709 41.2327 359.131 41.2327L359.136 41.2271Z" fill="white"/>
<path d="M419 68.1465C419 60.0612 416.598 53.5486 411.795 48.6313C406.981 43.7026 400.741 41.2355 393.071 41.2355C385.849 41.2355 379.842 43.7026 375.05 48.6313C370.258 53.5486 367.868 59.7421 367.868 67.2006C367.868 74.6591 370.27 80.545 375.073 85.3825C377.883 88.2087 381.165 90.2029 384.935 91.3767C387.626 92.2257 390.561 92.6416 393.746 92.6416C397.158 92.6416 400.247 92.2257 403.012 91.3767C404.233 91.0063 405.402 90.5505 406.504 90.0149C410.086 88.2599 413.163 85.5535 415.73 81.9011L405.431 77.0522C402.149 80.2601 398.214 81.8612 393.655 81.8612C389.834 81.8612 386.689 80.8242 384.231 78.773C381.772 76.7218 380.251 73.964 379.689 70.4883H418.96L419 68.1465ZM380.222 60.8247C381.602 57.7992 383.101 55.6853 384.708 54.483C387.28 52.5685 390.272 51.617 393.678 51.617C396.823 51.617 399.583 52.466 401.956 54.1753C404.335 55.879 405.925 58.1011 406.736 60.8247H380.222Z" fill="white"/>
<path d="M67.7554 112.066C66.6823 112.066 65.6036 111.701 64.7122 110.96C62.6967 109.274 62.4242 106.265 64.1048 104.242L102.564 57.9587C112.948 45.4633 111.262 26.8142 98.817 16.3928C93.5426 11.9769 86.8659 9.54392 80.0074 9.54392C73.8246 9.54392 67.92 11.4356 62.9238 15.0139C60.7891 16.5466 57.8198 16.0509 56.2925 13.9028C54.7653 11.7604 55.2592 8.78041 57.3996 7.24768C64.0139 2.50706 71.8262 0 80.0018 0C89.0801 0 97.9257 3.21929 104.903 9.0596C121.379 22.8484 123.605 47.5202 109.865 64.0611L99.6687 76.3343C99.6687 76.3343 99.6573 76.3514 99.6516 76.3571L71.406 110.351C70.4636 111.484 69.1123 112.066 67.7554 112.066Z" fill="white"/>
<path d="M52.9825 115C51.5688 115 50.1892 114.362 49.2695 113.211L46.9246 110.271L9.00458 64.6309C-4.72931 48.09 -2.50373 23.4183 13.9724 9.63512C15.9879 7.94855 18.9856 8.22205 20.6662 10.2448C22.3467 12.2675 22.0742 15.276 20.0587 16.9626C7.60791 27.384 5.92169 46.0274 16.3058 58.5285L48.2305 96.9492V77.2289C48.2305 74.5965 50.3595 72.4598 52.9825 72.4598C55.6055 72.4598 57.7346 74.5965 57.7346 77.2289V110.231C57.7346 112.254 56.4629 114.06 54.5552 114.732C54.0386 114.915 53.5106 115 52.9825 115Z" fill="white"/>
<path d="M52.9825 65.0183C56.5947 65.0183 59.523 62.0795 59.523 58.4543C59.523 54.8292 56.5947 51.8904 52.9825 51.8904C49.3703 51.8904 46.442 54.8292 46.442 58.4543C46.442 62.0795 49.3703 65.0183 52.9825 65.0183Z" fill="white"/>
<path d="M82.511 56.6606C71.7124 56.6606 62.9293 47.846 62.9293 37.0086C62.9293 26.1713 71.7124 17.3567 82.511 17.3567C93.3097 17.3567 102.093 26.1713 102.093 37.0086C102.093 47.846 93.3097 56.6606 82.511 56.6606ZM82.511 26.9006C76.9584 26.9006 72.4335 31.4361 72.4335 37.0143C72.4335 42.5925 76.9528 47.128 82.511 47.128C88.0693 47.128 92.5886 42.5925 92.5886 37.0143C92.5886 31.4361 88.0693 26.9006 82.511 26.9006Z" fill="white"/>
<path d="M35.8307 16.6833V10.7119C35.8307 9.504 36.8072 8.52966 38.0052 8.52966H42.0192C43.2228 8.52966 44.1937 9.5097 44.1937 10.7119V16.6833C44.1937 17.8913 45.1702 18.8656 46.3682 18.8656H52.3182C53.5218 18.8656 54.4927 19.8456 54.4927 21.0479V24.3811C54.4927 25.5891 53.5161 26.5634 52.3182 26.5634H46.3682C45.1645 26.5634 44.1937 27.5434 44.1937 28.7457V34.7854C44.1937 35.9934 43.2171 36.9677 42.0192 36.9677H38.0052C36.8016 36.9677 35.8307 35.9877 35.8307 34.7854V28.7457C35.8307 27.5377 34.8542 26.5634 33.6562 26.5634H27.8425C26.6388 26.5634 25.668 25.5834 25.668 24.3811V21.0479C25.668 19.8399 26.6445 18.8656 27.8425 18.8656H33.6562C34.8599 18.8656 35.8307 17.8856 35.8307 16.6833Z" fill="white"/>
</g>
<defs>
<clipPath id="clip0_1156_9907">
<rect width="419" height="115" fill="white"/>
</clipPath>
</defs>
</svg>
