<svg width="14" height="14" viewBox="0 0 14 14" fill="none" xmlns="http://www.w3.org/2000/svg">
<path d="M6.53834 0.508403C6.70914 0.0977568 7.29086 0.0977554 7.46166 0.508402L8.99874 4.204C9.07075 4.37711 9.23355 4.4954 9.42045 4.51038L13.4102 4.83023C13.8535 4.86578 14.0332 5.41903 13.6955 5.70836L10.6557 8.31222C10.5133 8.4342 10.4512 8.62558 10.4947 8.80796L11.4234 12.7012C11.5265 13.1338 11.0559 13.4758 10.6764 13.244L7.26063 11.1576C7.10062 11.0599 6.89938 11.0599 6.73937 11.1576L3.32363 13.2439C2.94408 13.4758 2.47345 13.1338 2.57665 12.7012L3.50534 8.80796C3.54884 8.62558 3.48665 8.4342 3.34426 8.31222L0.304527 5.70836C-0.0332418 5.41903 0.14652 4.86578 0.589847 4.83023L4.57955 4.51038C4.76645 4.4954 4.92925 4.37711 5.00126 4.204L6.53834 0.508403Z" fill="#BAC4CE" fill-opacity="0.4"/>
</svg>
