<svg width="629" height="463" viewBox="0 0 629 463" fill="none" xmlns="http://www.w3.org/2000/svg">
<g clip-path="url(#clip0_48_4298)">
<path d="M20.4746 21.7212L18.7939 19.9307C30.2871 9.09723 44.5814 2.20648 60.1044 0L60.4478 2.4416C45.4126 4.57574 31.5883 11.2495 20.4746 21.7212Z" fill="#407BFF"/>
<path d="M2.29503 48.6156L0 47.7294C2.43959 41.4898 5.69239 35.5937 9.70416 30.168L11.6739 31.6329C7.8067 36.8779 4.64426 42.593 2.27695 48.6156H2.29503Z" fill="#407BFF"/>
<path d="M70.8567 142.841C108.103 142.841 138.298 112.622 138.298 75.3444C138.298 38.067 108.103 7.84766 70.8567 7.84766C33.61 7.84766 3.41553 38.067 3.41553 75.3444C3.41553 112.622 33.61 142.841 70.8567 142.841Z" fill="#407BFF"/>
<path d="M445.109 774.819H188.554C170.628 774.819 156.966 760.152 158.177 742.21L199.668 127.433C200.879 109.492 216.528 94.8242 234.455 94.8242H491.01C508.936 94.8242 522.598 109.492 521.387 127.433L479.896 742.21C478.685 760.152 463.036 774.819 445.109 774.819Z" fill="#263238"/>
<path d="M501.87 345.191H495.401C490.395 345.191 486.582 341.085 486.925 336.093L494.858 218.535C495.202 213.525 499.575 209.438 504.563 209.438H511.032C516.038 209.438 519.851 213.543 519.507 218.535L511.574 336.093C511.231 341.103 506.858 345.191 501.87 345.191Z" fill="#263238"/>
<path d="M195.909 266.788H189.458C185.374 266.788 182.248 263.442 182.519 259.337L185.392 216.889C185.663 212.801 189.241 209.438 193.325 209.438H199.777C203.861 209.438 206.987 212.783 206.716 216.889L203.843 259.337C203.572 263.424 199.994 266.788 195.909 266.788Z" fill="#407BFF"/>
<path d="M190.795 342.6H184.344C180.26 342.6 177.133 339.255 177.405 335.149L180.278 292.701C180.549 288.614 184.127 285.25 188.211 285.25H194.662C198.746 285.25 201.873 288.596 201.602 292.701L198.728 335.149C198.457 339.237 194.879 342.6 190.795 342.6Z" fill="#407BFF"/>
<path d="M439.67 774.819H183.133C165.206 774.819 151.545 760.152 152.755 742.21L194.246 127.433C195.457 109.492 211.107 94.8242 229.033 94.8242H485.588C503.515 94.8242 517.176 109.492 515.966 127.433L474.475 742.21C473.264 760.152 457.614 774.819 439.688 774.819H439.67Z" fill="#407BFF"/>
<path opacity="0.3" d="M155.43 735.448L195.946 135.32H513.183L472.686 735.448H155.43Z" fill="white"/>
<path opacity="0.1" d="M280.681 735.448L393.896 135.32H464.951L351.754 735.448H280.681Z" fill="white"/>
<path opacity="0.1" d="M227.009 735.448L340.225 135.32H376.204L263.007 735.448H227.009Z" fill="white"/>
<path d="M325.352 109.906H387.209C389.414 109.906 391.113 111.715 390.95 113.921C390.806 116.128 388.872 117.936 386.667 117.936H324.81C322.605 117.936 320.907 116.128 321.069 113.921C321.214 111.715 323.148 109.906 325.352 109.906Z" fill="white"/>
<path d="M298.642 153.407C270.198 150.061 241.917 152.304 213.527 157.82C203.895 159.683 196.414 167.623 195.312 177.407C192.24 204.608 188.716 265.594 202.432 356.566L318.647 346.782C318.882 330.269 307.154 255.068 316.858 177.009C318.321 165.253 310.244 154.782 298.66 153.407H298.642Z" fill="white"/>
<path d="M230.967 176.719L235.141 185.057C235.557 185.889 236.388 186.431 237.328 186.485L241.828 186.721C242.641 186.757 243.418 186.522 244.068 186.033L251.821 180.264L242.243 173.301L230.985 176.737L230.967 176.719Z" fill="#263238"/>
<path d="M241.971 184.352C238.628 183.104 236.731 183.936 236.731 183.936C233.062 196.849 229.05 233.925 228.653 250.311C239.748 282.685 243.381 285.977 243.381 285.977L249.019 246.983C249.019 246.983 242.694 207.14 241.971 184.352Z" fill="#263238"/>
<path d="M274.047 97.3047C271.391 113.347 269.15 142.664 280.625 153.027C272.204 161.871 261.163 172.126 242.242 173.284C223.322 174.441 226.231 161.329 231.038 154.312C248.712 149.591 247.844 136.406 244.393 124.09L274.065 97.3047H274.047Z" fill="#FFB573"/>
<path d="M285.451 151.619C283.969 150.95 282.36 150.515 281.276 150.262C280.553 150.081 279.812 150.389 279.451 151.022C277.608 154.133 272.06 167.968 242.225 173.304C247.122 176.197 253.664 185.222 256.465 189.527C265.41 184.879 288.685 170.971 286.463 152.993C286.372 152.396 286.011 151.872 285.451 151.619Z" fill="#F5F5F5"/>
<path d="M231.201 155.055C231.454 153.826 230.388 152.759 229.195 152.994C227.966 153.229 226.737 153.627 226.141 153.826C225.906 153.898 225.725 154.025 225.508 154.187C223.231 156.303 210.762 174.299 222.418 188.876C225.021 184.933 233.351 175.927 242.224 173.304C233.839 169.506 229.701 162.453 231.183 155.055H231.201Z" fill="#F5F5F5"/>
<path opacity="0.2" d="M261.94 108.227L244.375 124.07C245.206 126.982 245.875 129.948 246.164 132.842C252.941 131.684 262.048 123.979 262.554 116.835C262.807 113.273 262.555 109.872 261.922 108.227H261.94Z" fill="black"/>
<path d="M238.502 48.836C223.377 54.7501 222.365 67.2113 223.865 80.8481C225.365 94.4668 240.02 85.4419 243.309 76.9596C246.598 68.4592 259.465 40.643 238.502 48.854V48.836Z" fill="#263238"/>
<path d="M286.788 75.9649C282.578 97.3967 281.204 110.111 268.934 119.986C250.484 134.835 225.473 121.994 223.269 99.8926C221.281 79.998 228.491 48.2934 250.52 42.0537C272.223 35.9045 290.981 54.533 286.77 75.9649H286.788Z" fill="#FFB573"/>
<path d="M285.902 93.7062C267.885 94.6648 271.698 84.4101 274.969 78.5321C278.24 72.6542 271.554 62.9601 275.927 57.8961C268.138 60.9888 259.97 58.4386 249.579 51.2043C241.502 45.5795 231.418 68.0965 221.587 56.8109C212.299 46.1583 220.937 30.0799 243.236 27.4936C265.536 24.9073 269.62 40.7144 284.276 39.3218C298.931 37.9111 293.835 49.9744 290.962 52.4341C303.25 53.248 309.937 65.0038 285.902 93.7062Z" fill="#263238"/>
<path d="M288.234 53.9393C288.234 53.9393 297.45 49.4902 297.595 38.2227C302.365 46.7592 301.841 56.4533 288.234 53.9393Z" fill="#263238"/>
<path d="M241.429 98.8561C248.079 99.9232 252.488 96.3602 252.687 96.1975C252.904 96.0166 252.94 95.6911 252.759 95.474C252.579 95.257 252.253 95.2208 252.037 95.4198C251.982 95.4559 246.85 99.5795 239.531 97.355C239.26 97.2826 238.971 97.4273 238.881 97.6986C238.791 97.9699 238.935 98.2593 239.206 98.3497C239.965 98.5848 240.706 98.7476 241.429 98.8561Z" fill="#263238"/>
<path d="M291.161 100.234C287.565 104.918 282.18 107.558 277.409 108.155C270.235 109.078 267.868 102.404 270.885 96.1823C273.596 90.5757 280.59 83.3413 287.294 85.2946C293.89 87.2117 295.299 94.862 291.161 100.234Z" fill="#FFB573"/>
<path d="M284.06 566.13C284.909 501.889 293.113 348.918 293.113 348.918L202.505 356.55C202.505 356.55 220.522 514.223 231.401 579.749C242.713 647.878 277.391 807.451 277.391 807.451L314.166 804.322C314.166 804.322 300.793 615.794 284.042 566.13H284.06Z" fill="#263238"/>
<path d="M254.513 77.2471C254.278 79.0014 253.158 80.3217 252.037 80.1951C250.899 80.0685 250.176 78.5492 250.411 76.7768C250.646 75.0044 251.766 73.7022 252.887 73.8288C254.025 73.9554 254.748 75.4746 254.513 77.2471Z" fill="#263238"/>
<path d="M234.454 75.5868C234.219 77.3411 233.099 78.6614 231.978 78.5348C230.84 78.4082 230.117 76.889 230.352 75.1166C230.587 73.3622 231.707 72.0419 232.828 72.1686C233.966 72.2952 234.689 73.8144 234.454 75.5868Z" fill="#263238"/>
<path d="M240.11 77.7344C240.11 77.7344 234.617 86.2167 229.521 90.1232C232.123 92.8723 237.526 92.1127 237.526 92.1127L240.11 77.7344Z" fill="#ED893E"/>
<path opacity="0.4" d="M221.696 76.1094C221.335 78.9127 224.208 81.2458 228.075 81.7522C231.943 82.2586 235.575 80.0883 235.936 77.285" fill="#407BFF"/>
<path opacity="0.4" d="M244.99 78.7383C244.466 81.5054 247.194 84.0194 251.007 84.7609C254.839 85.4843 258.597 83.5491 259.121 80.782" fill="#407BFF"/>
<path d="M252.525 85.427C252.092 85.427 251.64 85.3908 251.206 85.3366C249.218 85.0834 247.411 84.2695 246.128 83.0577C244.791 81.7917 244.159 80.2544 244.357 78.699C244.195 78.5724 242.803 78.0118 240.418 77.7043C238.014 77.3968 236.514 77.5777 236.261 77.7947C235.918 80.7789 232.195 82.8588 228.003 82.3524C226.015 82.0992 224.208 81.2853 222.907 80.0736C221.57 78.8075 220.937 77.2702 221.136 75.7148L222.311 75.8595C222.166 77.017 222.654 78.2107 223.72 79.2054C224.822 80.2544 226.395 80.9417 228.148 81.1768C231.671 81.647 234.816 80.0012 235.141 77.5234C235.322 76.167 238.177 76.2393 240.544 76.5468C242.912 76.8543 245.695 77.5053 245.532 78.8618C245.387 80.0193 245.875 81.213 246.941 82.2077C248.044 83.2567 249.616 83.9439 251.369 84.1791C253.104 84.4142 254.82 84.1248 256.158 83.4014C257.423 82.7141 258.218 81.6832 258.362 80.5257L258.435 79.9289L288.776 83.8354L288.631 85.011L259.41 81.2491C259.067 82.5513 258.127 83.6727 256.718 84.4323C255.507 85.0834 254.061 85.427 252.543 85.427H252.525Z" fill="#263238"/>
<path d="M262.211 69.5225C262.373 69.5225 262.554 69.4682 262.717 69.3778C263.205 69.0884 263.385 68.4554 263.114 67.949C260.313 63.0116 255.579 62.7764 255.38 62.7584C254.82 62.7403 254.314 63.1743 254.277 63.7531C254.241 64.3318 254.675 64.8021 255.235 64.8382C255.398 64.8382 259.084 65.0734 261.307 69.0161C261.488 69.3416 261.849 69.5225 262.211 69.5225Z" fill="#263238"/>
<path d="M227.967 66.7383C228.292 66.7745 228.636 66.6298 228.871 66.3585C231.798 62.7775 235.485 63.0668 235.647 63.0849C236.207 63.1392 236.713 62.7232 236.786 62.1445C236.858 61.5838 236.46 61.0774 235.9 61.0231C235.701 61.0231 230.967 60.5891 227.298 65.0744C226.937 65.5265 226.991 66.1776 227.425 66.5393C227.587 66.6659 227.768 66.7383 227.967 66.7564V66.7383Z" fill="#263238"/>
<path d="M359.524 555.763C340.712 459.039 336.501 383.386 318.647 346.762L230.876 356.546C230.876 356.546 283.174 500.691 308.69 562.201C335.218 626.171 387.588 735.429 387.588 735.429H431.429C431.429 735.429 390.498 599.802 359.542 555.745L359.524 555.763Z" fill="#263238"/>
<path d="M81.3198 189.601L71.8867 183.596C68.6881 181.553 64.4595 182.059 61.9115 184.754L55.4782 191.554C52.5507 194.647 52.8398 199.494 56.1287 202.297L60.7369 206.222C64.7306 209.622 69.3929 212.154 74.4167 213.637L88.3133 217.743L97.4211 207.958C100.114 197.631 81.3379 189.601 81.3379 189.601H81.3198Z" fill="#FFB573"/>
<path d="M221.75 185.004C218.317 193.414 214.937 201.227 211.269 209.239C207.601 217.179 203.878 225.119 199.776 232.968C195.692 240.835 191.301 248.612 186.331 256.425C183.819 260.332 181.145 264.22 178.054 268.109C174.928 271.997 171.549 275.922 166.742 279.847C164.302 281.782 161.483 283.771 157.652 285.453C156.64 285.869 155.664 286.267 154.526 286.593L152.809 287.063C152.177 287.226 151.056 287.425 150.189 287.533C146.557 287.949 143.611 287.479 141.226 286.864C136.491 285.58 133.6 283.808 130.943 282.18C128.341 280.516 126.19 278.852 124.185 277.188C116.342 270.496 110.451 263.732 104.65 256.823C98.9212 249.951 93.518 243.024 88.3316 235.988C83.109 228.917 78.1395 221.99 73.0435 214.575L100.222 197.013C108.734 210.704 118.474 224.468 128.63 236.748C133.744 242.789 139.165 248.721 144.298 252.953C145.545 253.984 146.773 254.888 147.749 255.485C148.671 256.1 149.574 256.353 148.942 256.118C148.599 256.027 147.803 255.81 146.267 255.973C145.924 255.973 145.328 256.136 145.201 256.154C145.129 256.154 145.075 256.154 145.021 256.19C144.894 256.245 144.912 256.19 144.876 256.226C144.93 256.172 145.635 255.756 146.484 255.033C148.219 253.55 150.442 251.054 152.538 248.287C154.652 245.483 156.713 242.355 158.718 239.081C162.748 232.516 166.362 225.354 169.832 218.065C173.266 210.74 176.573 203.253 179.609 195.62C182.608 188.042 185.608 180.157 188.084 172.688L221.696 184.986L221.75 185.004Z" fill="#407BFF"/>
<g opacity="0.6">
<path d="M221.75 185.004C218.317 193.414 214.937 201.227 211.269 209.239C207.601 217.179 203.878 225.119 199.776 232.968C195.692 240.835 191.301 248.612 186.331 256.425C183.819 260.332 181.145 264.22 178.054 268.109C174.928 271.997 171.549 275.922 166.742 279.847C164.302 281.782 161.483 283.771 157.652 285.453C156.64 285.869 155.664 286.267 154.526 286.593L152.809 287.063C152.177 287.226 151.056 287.425 150.189 287.533C146.557 287.949 143.611 287.479 141.226 286.864C136.491 285.58 133.6 283.807 130.943 282.18C128.341 280.516 126.19 278.852 124.185 277.188C116.342 270.496 110.451 263.732 104.65 256.823C98.9212 249.951 93.518 243.024 88.3316 235.988C83.109 228.917 78.1395 221.99 73.0435 214.575L100.222 197.013C108.734 210.704 118.474 224.468 128.63 236.748C133.744 242.789 139.165 248.721 144.298 252.953C145.545 253.984 146.773 254.888 147.749 255.485C148.671 256.1 149.574 256.353 148.942 256.118C148.599 256.027 147.803 255.81 146.267 255.973C145.924 255.973 145.328 256.136 145.201 256.154C145.129 256.154 145.075 256.154 145.021 256.19C144.894 256.245 144.912 256.19 144.876 256.226C144.93 256.172 145.635 255.756 146.484 255.033C148.219 253.55 150.442 251.054 152.538 248.287C154.652 245.483 156.713 242.355 158.718 239.081C162.748 232.516 166.362 225.354 169.832 218.065C173.266 210.74 176.573 203.253 179.609 195.62C182.608 188.042 185.608 180.157 188.084 172.688L221.696 184.986L221.75 185.004Z" fill="white"/>
</g>
<path d="M286.119 147.24C276.903 164.35 244.086 230.074 240.11 270.568C225.581 233.763 228.762 152.051 228.762 152.051C221.623 152.25 208.522 155.415 198.583 159.304C192.15 161.818 187.74 167.949 187.216 174.821C185.716 194.788 183.62 242.3 191.21 301.459C201.402 380.911 210.943 504.474 210.943 504.474C210.943 504.474 292.173 501.092 354.843 487.853C347.199 427.12 321.032 325.314 320.797 298.059C320.49 262.972 321.303 194.39 322.424 165.76C322.749 157.278 317.039 150.044 308.853 148.362C297.612 146.047 286.101 147.258 286.101 147.258L286.119 147.24Z" fill="#407BFF"/>
<path opacity="0.7" d="M286.119 147.24C276.903 164.349 244.086 230.073 240.11 270.568C225.581 233.763 228.762 152.051 228.762 152.051C221.623 152.25 208.522 155.415 198.583 159.303C192.15 161.817 187.74 167.948 187.216 174.821C185.716 194.788 183.62 242.299 191.21 301.459C201.402 380.91 210.943 504.473 210.943 504.473C210.943 504.473 292.173 501.091 354.843 487.852C347.199 427.12 321.032 325.314 320.797 298.058C320.49 262.972 321.303 194.354 322.424 165.742C322.749 157.567 317.49 150.26 309.63 148.524C298.136 145.992 286.101 147.258 286.101 147.258L286.119 147.24Z" fill="white"/>
<path d="M266.964 491.27C252.868 413.374 241.664 299.053 240.743 285.29L242.026 285.199C242.929 298.945 254.133 413.193 268.229 491.035L266.964 491.252V491.27Z" fill="white"/>
<path d="M259.917 352.68H185.012C182.066 352.68 179.157 350.274 178.524 347.326L153.46 230.799C152.827 227.851 154.707 225.445 157.652 225.445H232.557C235.503 225.445 238.412 227.851 239.044 230.799L264.109 347.326C264.742 350.274 262.862 352.68 259.917 352.68Z" fill="white"/>
<path d="M257.604 353.748H181.452C178.47 353.748 175.489 351.306 174.856 348.304L149.376 229.823C148.726 226.839 150.659 224.379 153.641 224.379H229.792C232.774 224.379 235.756 226.821 236.388 229.823L261.868 348.304C262.519 351.288 260.585 353.748 257.604 353.748Z" fill="#407BFF"/>
<path d="M266.332 286.808L247.375 286.102C245.098 286.012 242.821 286.41 240.707 287.26L230.93 291.185C226.919 292.794 225.112 297.298 226.901 301.168L230.84 309.65C232.412 313.032 236.261 314.841 239.93 313.937L250.772 311.242C250.772 311.242 271.139 309.614 271.861 298.98L266.35 286.79L266.332 286.808Z" fill="#FFB573"/>
<path d="M318.647 157.785C323.345 165.056 327.628 171.91 331.875 179.145C336.103 186.307 340.26 193.541 344.163 201.029C348.048 208.534 351.789 216.221 355.15 224.486C356.795 228.664 358.349 232.986 359.632 237.743C360.861 242.572 362.053 247.672 361.8 254.653V255.305L361.764 255.63C361.764 255.702 361.764 255.847 361.728 256.118C361.638 257.005 361.493 257.891 361.33 258.777C361.15 259.555 360.933 260.332 360.68 261.11C360.445 261.87 360.174 262.467 359.903 263.154C358.8 265.668 357.499 267.621 356.325 269.104C353.885 272.215 351.644 274.096 349.512 275.904C345.229 279.359 341.235 281.782 337.26 284.043C329.345 288.474 321.61 291.929 313.84 295.202C306.105 298.512 298.371 301.496 290.618 304.336C282.83 307.229 275.204 309.888 267.126 312.601L257.765 281.601C265.048 279.576 272.656 277.116 279.993 274.602C287.347 272.016 294.648 269.285 301.714 266.355C308.744 263.371 315.647 260.152 321.737 256.679C324.737 254.961 327.574 253.098 329.525 251.488C330.465 250.729 331.224 249.897 331.224 249.806C331.296 249.716 331.043 249.951 330.754 250.62C330.646 250.819 330.61 250.982 330.519 251.253C330.411 251.543 330.339 251.832 330.284 252.14C330.176 252.519 330.122 252.917 330.104 253.297C330.104 253.442 330.104 253.46 330.104 253.406V253.351L330.086 253.243C330.086 252.176 329.652 249.3 328.748 246.388C327.863 243.422 326.634 240.185 325.242 236.911C322.423 230.346 318.9 223.654 315.069 217.053C311.237 210.451 307.171 203.868 302.852 197.411C298.552 191.027 293.998 184.444 289.498 178.548L318.683 157.803L318.647 157.785Z" fill="#407BFF"/>
<g opacity="0.7">
<path d="M318.647 157.785C323.345 165.056 327.628 171.91 331.875 179.145C336.103 186.307 340.26 193.541 344.163 201.029C348.048 208.534 351.789 216.221 355.15 224.486C356.795 228.664 358.349 232.986 359.632 237.743C360.861 242.572 362.053 247.672 361.8 254.653V255.305L361.764 255.63C361.764 255.702 361.764 255.847 361.728 256.118C361.638 257.005 361.493 257.891 361.33 258.777C361.15 259.555 360.933 260.332 360.68 261.11C360.445 261.87 360.174 262.467 359.903 263.154C358.8 265.668 357.499 267.621 356.325 269.104C353.885 272.215 351.644 274.096 349.512 275.904C345.229 279.359 341.235 281.782 337.26 284.043C329.345 288.474 321.61 291.929 313.84 295.202C306.105 298.512 298.371 301.496 290.618 304.336C282.83 307.229 275.204 309.888 267.126 312.601L257.765 281.601C265.048 279.576 272.656 277.116 279.993 274.602C287.347 272.016 294.648 269.285 301.714 266.355C308.744 263.371 315.647 260.152 321.737 256.679C324.737 254.961 327.574 253.098 329.525 251.488C330.465 250.729 331.224 249.897 331.224 249.806C331.296 249.716 331.043 249.951 330.754 250.62C330.646 250.819 330.61 250.982 330.519 251.253C330.411 251.543 330.339 251.832 330.284 252.14C330.176 252.519 330.122 252.917 330.104 253.297C330.104 253.442 330.104 253.46 330.104 253.406V253.351L330.086 253.243C330.086 252.176 329.652 249.3 328.748 246.388C327.863 243.422 326.634 240.185 325.242 236.911C322.423 230.346 318.9 223.654 315.069 217.053C311.237 210.451 307.171 203.868 302.852 197.411C298.552 191.027 293.998 184.444 289.498 178.548L318.683 157.803L318.647 157.785Z" fill="white"/>
</g>
<path d="M293.781 243.148C293.456 243.148 293.149 242.986 292.95 242.696C292.661 242.244 292.787 241.629 293.257 241.34L297.106 238.898C304.461 234.214 308.13 225.659 306.449 217.105L298.733 177.985C297.251 170.425 291.107 167.513 286.3 167.314C281.475 167.115 275.132 169.502 273.017 176.9L262.066 215.242C259.663 223.634 262.609 232.46 269.548 237.741L273.18 240.49C273.614 240.815 273.686 241.43 273.361 241.864C273.036 242.298 272.421 242.371 271.987 242.045L268.355 239.296C260.765 233.527 257.567 223.869 260.169 214.699L271.12 176.357C273.108 169.376 279.126 165.089 286.354 165.343C293.619 165.65 299.202 170.461 300.612 177.587L308.328 216.707C310.172 226.057 306.16 235.408 298.136 240.526L294.287 242.968C294.125 243.076 293.944 243.112 293.763 243.112L293.781 243.148Z" fill="#263238"/>
<path d="M299.672 178.763H299.636L272.042 177.606C271.5 177.588 271.084 177.135 271.102 176.593C271.12 176.05 271.59 175.707 272.114 175.652L299.709 176.81C300.251 176.828 300.666 177.28 300.648 177.823C300.63 178.347 300.197 178.763 299.672 178.763Z" fill="#263238"/>
<path d="M286.264 167.3C285.74 167.3 285.306 166.884 285.288 166.341C285.18 161.53 283.752 152.885 279.144 151.004C278.638 150.805 278.403 150.226 278.62 149.738C278.819 149.232 279.397 148.997 279.885 149.214C286.698 152.017 287.204 164.858 287.24 166.323C287.24 166.866 286.824 167.318 286.282 167.318H286.264V167.3Z" fill="#263238"/>
<path d="M201.818 200.742C201.818 200.742 201.691 200.742 201.619 200.724C201.095 200.616 200.751 200.109 200.86 199.585C204.095 183.416 217.521 157.897 229.34 150.427C229.792 150.138 230.406 150.282 230.677 150.735C230.966 151.187 230.822 151.802 230.37 152.091C218.949 159.307 205.92 184.194 202.757 199.983C202.667 200.453 202.251 200.76 201.8 200.76L201.818 200.742Z" fill="#263238"/>
<path d="M209.896 203.284C208.36 207.191 205.035 209.542 202.451 208.529C199.867 207.517 199.017 203.52 200.553 199.613C202.089 195.706 205.414 193.355 207.998 194.368C210.583 195.381 211.432 199.378 209.896 203.284Z" fill="white"/>
<path d="M274.771 241.377C274.698 243.222 273.65 244.668 272.44 244.614C271.229 244.56 270.307 243.041 270.379 241.196C270.452 239.351 271.5 237.904 272.711 237.959C273.921 238.013 274.843 239.532 274.771 241.377Z" fill="white"/>
<path d="M295.968 242.267C295.896 244.112 294.848 245.559 293.637 245.505C292.426 245.451 291.504 243.931 291.577 242.087C291.649 240.242 292.697 238.795 293.908 238.849C295.119 238.903 296.04 240.423 295.968 242.267Z" fill="white"/>
<path d="M672.262 173.277H502.755C483.907 173.277 467.463 188.705 466.18 207.568L464.643 230.429C463.378 249.293 477.745 264.72 496.593 264.72H666.1L698.989 285.03L704.212 207.568C705.477 188.705 691.11 173.277 672.262 173.277Z" fill="#407BFF"/>
<path d="M663.661 206.016H506.569V211.731H663.661V206.016Z" fill="white"/>
<path d="M662.287 226.273H545.656V231.989H662.287V226.273Z" fill="white"/>
<path d="M417.135 295.543H590.49C609.754 295.543 624.464 311.314 623.163 330.612L621.591 353.979C620.29 373.258 603.465 389.047 584.184 389.047H410.828L374.396 409.828L379.746 330.612C381.047 311.332 397.871 295.543 417.153 295.543H417.135Z" fill="white"/>
<path opacity="0.15" d="M417.135 295.543H590.49C609.754 295.543 624.464 311.314 623.163 330.612L621.591 353.979C620.29 373.258 603.465 389.047 584.184 389.047H410.828L374.396 409.828L379.746 330.612C381.047 311.332 397.871 295.543 417.153 295.543H417.135Z" fill="#407BFF"/>
<path opacity="0.5" d="M581.671 329.023H421.02V334.865H581.671V329.023Z" fill="#407BFF"/>
<path opacity="0.5" d="M483.094 349.73H419.61V355.572H483.094V349.73Z" fill="#407BFF"/>
<path opacity="0.5" d="M539.223 349.73H498.671V355.572H539.223V349.73Z" fill="#407BFF"/>
<rect x="374" width="412" height="463" fill="url(#paint0_linear_48_4298)"/>
<rect x="786" y="298" width="165" height="726" transform="rotate(90 786 298)" fill="url(#paint1_linear_48_4298)"/>
<path d="M66.1774 49.3662C66.1774 49.3662 66.1836 49.3104 66.1898 49.2918C66.2207 49.1679 66.2455 49.0563 66.2641 48.9385C66.2641 48.8827 66.2826 48.8455 66.2888 48.7959C66.3136 48.5665 66.3383 48.331 66.3383 48.083C66.3383 48.021 66.3259 47.9466 66.3259 47.8846C66.3321 48.021 66.3383 48.083 66.3383 48.083C66.3383 48.083 66.3321 47.9218 66.3136 47.6119C66.3136 47.5933 66.3136 47.5685 66.3012 47.5437V47.5003C66.2888 47.3763 66.2641 47.2151 66.2269 47.0664C66.2269 47.0478 66.2269 47.0416 66.2269 47.023C66.1589 46.7068 66.0413 46.3349 65.8557 45.9195C65.5586 45.2686 65.0512 44.5495 64.3273 43.8614C63.6033 43.1671 62.6442 42.5472 61.518 42.0513C60.3794 41.5554 59.0862 41.202 57.6506 41.0594C56.2521 40.9292 54.7237 41.0036 53.1954 41.3756C51.6731 41.7165 50.1324 42.417 48.8515 43.5143C48.2018 44.066 47.6511 44.7541 47.2488 45.5352L47.1003 45.8265C47.0508 45.9195 47.0199 46.0249 46.9766 46.1365C46.9085 46.3411 46.8095 46.5394 46.7724 46.775C46.7291 46.9982 46.6672 47.2461 46.6424 47.4507L46.5991 48.0644V48.2628L46.6115 48.4364C46.6177 48.5479 46.6301 48.6657 46.6362 48.7711C46.6734 48.9819 46.7043 49.2051 46.7662 49.422C46.8714 49.856 47.0446 50.2651 47.2365 50.6618C47.354 50.8478 47.4469 51.04 47.583 51.2322C47.7067 51.4119 47.8305 51.6103 47.9604 51.7467C48.0285 51.8335 48.078 51.8955 48.1646 51.9947L48.3998 52.2116L48.8577 52.6642C50.1386 53.7862 51.6855 54.4433 53.2077 54.8152C53.5914 54.8896 53.9626 55.0012 54.3525 55.0384C54.7299 55.088 55.1198 55.1314 55.491 55.1748C55.8499 55.1748 56.2212 55.1872 56.5801 55.1872C56.9637 55.1872 57.3103 55.1562 57.6692 55.1314C59.08 55.0074 60.3918 54.6479 61.5242 54.1457C62.6504 53.656 63.6095 53.0299 64.3273 52.348C65.0512 51.6475 65.571 50.9346 65.8557 50.2775C65.9361 50.1473 65.9732 50.0047 66.0165 49.8622C66.0413 49.825 66.0537 49.7754 66.0722 49.7382C66.1217 49.608 66.165 49.4902 66.1836 49.3848" fill="white"/>
<path d="M96.249 45.9571C96.249 45.9571 96.249 45.9323 96.249 45.9261V45.858C96.2181 45.765 96.1933 45.6782 96.181 45.5914C96.1624 45.5046 96.1439 45.4364 96.1067 45.3558C96.0943 45.3186 96.0758 45.2752 96.0572 45.2442C96.051 45.2194 96.0325 45.1884 96.0263 45.1637C95.983 45.0459 95.9397 44.9281 95.8778 44.8227L95.7355 44.5685C95.6921 44.4817 95.6303 44.4012 95.5684 44.3206L95.3951 44.0974C95.3394 44.0106 95.2775 43.9424 95.2033 43.8742C95.061 43.7441 94.9434 43.5829 94.7949 43.4589L94.5783 43.2667C94.4979 43.2047 94.436 43.1303 94.3494 43.0746L93.8791 42.7336C93.8791 42.7336 93.8605 42.7274 93.8358 42.7274H93.8605C93.1799 42.2873 92.4312 41.9463 91.6639 41.6798C90.8904 41.407 90.0983 41.2334 89.2815 41.1218C88.867 41.0598 88.4647 41.035 88.0502 41.0102C87.846 40.9917 87.648 41.0102 87.4376 41.004C87.2272 41.004 87.023 40.9917 86.825 41.0102C85.9896 41.035 85.1728 41.1714 84.3684 41.376C83.5516 41.5682 82.7658 41.8657 82.0232 42.2811C81.2807 42.6902 80.5753 43.2171 80.0307 43.9176L79.8265 44.178C79.7647 44.2648 79.7152 44.3702 79.6595 44.4632C79.5976 44.5561 79.5357 44.6553 79.4862 44.7483L79.3624 45.0707C79.2572 45.2566 79.2077 45.5108 79.1582 45.7526L79.1149 45.9261L79.1026 46.0749L79.0716 46.3787V46.4593L79.0654 46.4655C79.0654 46.5461 79.0654 46.4903 79.0654 46.5213V46.577L79.084 46.7444C79.084 46.8622 79.0902 46.9738 79.1211 47.0854C79.1459 47.197 79.1582 47.3085 79.1892 47.4263L79.2882 47.7797C79.3315 47.8975 79.3748 47.9656 79.4058 48.071L79.4738 48.2074L79.4862 48.2446L79.4986 48.2694L79.5171 48.3066L79.5605 48.381L79.7275 48.6723L79.9132 48.9451C80.4391 49.6642 81.1384 50.2035 81.8623 50.6375C82.5987 51.0652 83.3783 51.3752 84.189 51.5921C84.9934 51.8153 85.8102 51.9269 86.6331 51.9889C86.8435 52.0013 87.0539 52.0137 87.2581 52.0137H87.8645C88.0749 52.0013 88.2729 51.9827 88.4833 51.9703C88.6875 51.9579 88.8855 51.9269 89.0959 51.9145C89.9065 51.8153 90.7047 51.6355 91.4844 51.3876C92.2579 51.1396 93.0066 50.7986 93.6935 50.3709C94.3865 49.9432 95.0115 49.4038 95.4941 48.7591C95.655 48.5422 95.7911 48.3128 95.9087 48.0772C95.9396 48.0028 95.9706 47.9347 96.0015 47.8727C96.0139 47.8293 96.0263 47.8045 96.0387 47.7673C96.0572 47.7177 96.0758 47.6805 96.0882 47.6309C96.1129 47.5751 96.1253 47.5193 96.1438 47.4635C96.1438 47.4325 96.1624 47.4015 96.1686 47.3705C96.181 47.3147 96.1995 47.2404 96.2181 47.1784C96.2181 47.1474 96.2181 47.1164 96.2305 47.0854C96.2429 47.0296 96.2552 46.9552 96.2552 46.8994C96.2552 46.8622 96.2676 46.8312 96.2676 46.7878C96.2738 46.701 96.28 46.6018 96.28 46.5089C96.28 46.3229 96.2614 46.1369 96.2305 45.9633" fill="white"/>
<path d="M68.3005 63.7931C68.3252 63.7435 68.3252 63.7063 68.3314 63.6567L68.3129 63.5513C68.3129 63.5513 68.2943 63.5141 68.2881 63.5017C68.2819 63.4893 68.2757 63.4831 68.2757 63.4645C68.2757 63.4645 68.2634 63.4583 68.2572 63.4583C68.2386 63.4397 68.22 63.4149 68.1953 63.4025L68.1025 63.3468L67.9107 63.26C67.5518 63.0864 67.1805 62.9128 66.8154 62.7516L66.308 62.5223H66.2956L65.5655 62.2185C65.3736 62.1317 65.1694 62.0511 64.9714 61.9705L64.2598 61.6792C63.5792 61.4126 62.8861 61.1771 62.1993 60.9229C61.5062 60.6873 60.8008 60.4766 60.1078 60.2596C59.7613 60.1418 59.4024 60.055 59.0559 59.962L57.9916 59.6831C57.6389 59.5901 57.28 59.5095 56.9211 59.4351L55.8444 59.2181C55.4917 59.1376 55.1204 59.0756 54.7677 59.026L53.6786 58.84C53.3197 58.778 52.9547 58.7408 52.5896 58.7098L51.4881 58.5858C51.1231 58.5424 50.758 58.53 50.3929 58.5176L49.2915 58.4681C48.9202 58.4433 48.5551 58.4681 48.1838 58.4681H47.6393L47.0886 58.499C46.7235 58.53 46.3522 58.53 45.9872 58.5796L44.8857 58.7098L43.7905 58.902C43.4254 58.964 43.0727 59.0756 42.7076 59.1562C41.996 59.3545 41.2906 59.5839 40.5914 59.8938L40.3315 59.993L40.084 60.1294L39.6013 60.3898C39.5147 60.4394 39.4528 60.4704 39.3476 60.5324L39.1187 60.6935L38.6422 61.0097C38.4937 61.1213 38.3576 61.2638 38.2152 61.394C38.0791 61.518 37.9244 61.6482 37.8007 61.7908L37.4294 62.2309C37.3737 62.3053 37.3118 62.3735 37.2499 62.4479L37.1014 62.702L36.7982 63.198C36.7054 63.3777 36.6497 63.5575 36.5631 63.7249C36.396 64.0844 36.3094 64.4564 36.2104 64.8283C36.1918 64.9151 36.1547 65.0143 36.1361 65.1073L36.099 65.3925L36.0248 65.9628C35.9876 66.3533 36.0062 66.7253 36 67.1158V67.1344L36.0062 67.153C36.099 68.5912 36.5322 69.9736 37.1386 71.2506L37.6274 72.1867L38.1719 73.0856C38.5741 73.6807 38.9949 74.2634 39.4404 74.7655L39.7808 75.1747L40.1458 75.5528C40.3872 75.8008 40.6223 76.0611 40.876 76.3091C41.3896 76.7802 41.8908 77.27 42.4477 77.6977C42.9799 78.1502 43.5492 78.5532 44.1122 78.9685C44.3907 79.1731 44.6939 79.3467 44.9847 79.5388C45.2756 79.7186 45.5664 79.917 45.8634 80.0905C46.476 80.4315 47.0638 80.791 47.695 81.101L48.6294 81.5783L49.5699 81.9999L50.0402 82.2106L50.1578 82.2602L50.2135 82.285C50.2135 82.285 50.2753 82.3036 50.3125 82.316C50.3991 82.3346 50.3929 82.3346 50.4238 82.3346H50.4362C50.4362 82.3346 50.5538 82.3408 50.5167 82.3408H50.5909C50.6404 82.316 50.6961 82.316 50.7456 82.2974C50.7889 82.285 50.8384 82.2602 50.8817 82.2354C50.9251 82.2106 50.9807 82.1734 51.0302 82.1239C51.0488 82.1053 51.0736 82.0867 51.0983 82.0557C51.1231 82.0371 51.1231 82.0371 51.1231 82.0247L51.1602 81.9689C51.2344 81.8511 51.1849 81.9193 51.2097 81.8883L51.2221 81.8449L51.2406 81.7767C51.2592 81.7271 51.2716 81.6775 51.2778 81.6279C51.2778 81.5287 51.2778 81.4296 51.253 81.3242C51.2344 81.2622 51.2035 81.2002 51.1664 81.1506C51.1478 81.1134 51.1354 81.0948 51.1169 81.0638C51.0921 81.039 51.0736 81.008 51.0674 81.008L51.0241 80.9646L50.9993 80.9398H50.9869C50.8446 80.822 50.9436 80.8964 50.9065 80.8716L50.8075 80.7972L50.5971 80.6733C50.3186 80.4873 50.0526 80.2827 49.7741 80.0905C49.508 79.886 49.242 79.6876 48.9759 79.4706C47.9301 78.64 46.9153 77.7101 46.0367 76.7244C45.8077 76.4889 45.5911 76.2099 45.3622 75.9557L45.2013 75.7574C45.2013 75.7574 45.1332 75.6768 45.1271 75.6706L45.0528 75.5652L44.7434 75.1623C44.3598 74.6229 43.9823 74.0588 43.6791 73.4699C43.0603 72.3045 42.6395 71.0089 42.6705 69.6822C42.6829 69.0313 42.8004 68.3742 43.0108 67.7667C43.0665 67.6179 43.1222 67.4692 43.1964 67.3018L43.3016 67.0724L43.3326 67.0104L43.3573 66.967L43.4192 66.8616L43.6605 66.4277L43.939 66.0186C44.7248 64.9461 45.8201 64.1092 47.0391 63.5389C48.2519 62.9624 49.5761 62.6029 50.9127 62.3797C52.2616 62.1627 53.6229 62.0635 54.9905 62.0573L57.0386 62.1069C57.7193 62.1503 58.4061 62.2123 59.0868 62.2681C59.7613 62.3301 60.4481 62.4355 61.1226 62.5037C61.8033 62.6029 62.4715 62.7268 63.1522 62.8384C64.495 63.0926 65.8377 63.3715 67.1557 63.7249L67.5827 63.8861L67.7993 63.9667C67.7993 63.9667 67.855 63.9915 67.8735 63.9977H67.8983H67.9045C67.9354 64.0163 67.9787 64.0225 68.0158 64.0225C68.0653 64.0225 68.1087 64.0225 68.1458 64.0101C68.1891 63.9915 68.22 63.9605 68.2572 63.9295C68.2819 63.9047 68.2943 63.8799 68.3129 63.8489C68.3191 63.8427 68.3314 63.8303 68.3314 63.8241L68.3005 63.7931Z" fill="white"/>
<path d="M107 62.8514C107 62.684 106.994 62.5228 106.981 62.3554C106.981 62.2873 106.963 62.2129 106.957 62.1261C106.944 62.0083 106.926 61.8905 106.901 61.7541C106.895 61.6735 106.882 61.5992 106.87 61.5186C106.69 60.5825 106.344 59.6526 105.775 58.8653C105.23 58.0905 104.469 57.4519 103.621 56.9932C102.767 56.5593 101.864 56.2307 100.942 55.9704C99.0794 55.493 97.155 55.2885 95.2368 55.3195C93.3185 55.3195 91.4065 55.5364 89.513 55.8588C89.0427 55.9456 88.5601 56.0076 88.1022 56.1315L86.6976 56.4539C85.7694 56.7081 84.835 56.9312 83.9254 57.2412C83.0158 57.5201 82.1124 57.8611 81.209 58.1834C80.7572 58.3508 80.3179 58.543 79.8724 58.7228L79.2041 58.9955L78.5482 59.2993C76.7908 60.0742 75.0954 60.973 73.4247 61.9153C71.7601 62.87 70.1451 63.9238 68.5796 65.0273C67.0264 66.1617 65.5042 67.3457 64.0748 68.6289C63.7036 68.9327 63.3571 69.2737 63.0043 69.596C62.6516 69.9246 62.2989 70.2345 61.9586 70.5817C61.2779 71.2698 60.5787 71.9269 59.9352 72.6398L58.9575 73.706L58.017 74.8033C57.3796 75.5224 56.7918 76.2848 56.1977 77.0473L55.7522 77.6115L55.3376 78.1942L54.4899 79.3658C54.1991 79.7563 53.9392 80.1655 53.6793 80.5622L52.8872 81.7773C52.3675 82.5955 51.9034 83.4262 51.4022 84.2631C50.9195 85.0876 50.4926 85.9617 50.0347 86.8047C49.1684 88.5219 48.3577 90.27 47.64 92.0616C47.2563 92.9481 46.9531 93.8655 46.619 94.7706L46.1363 96.1344L45.7094 97.523C45.4309 98.4529 45.1215 99.3641 44.9049 100.3L44.546 101.695L44.3666 102.396L44.28 102.749L44.2367 102.916C44.2367 102.916 44.2119 103.003 44.2119 103.065C44.2057 103.121 44.2119 103.195 44.2243 103.251V103.263C44.2428 103.363 44.2367 103.294 44.2428 103.319L44.249 103.35L44.2862 103.437C44.3171 103.493 44.3604 103.549 44.4099 103.604C44.4656 103.66 44.5584 103.722 44.6141 103.747L44.6636 103.766H44.6884L44.6946 103.772L44.7502 103.796H44.7564L45.1524 103.877L45.9445 104.026L46.7489 104.187C47.015 104.23 47.2749 104.292 47.541 104.336L49.1436 104.553L49.9418 104.658C50.2079 104.695 50.4802 104.72 50.7463 104.739L52.3675 104.863L53.1719 104.919C53.4441 104.931 53.7102 104.937 53.9763 104.943L55.5789 104.981L56.3957 104.999H56.798H56.897H56.9341C56.9712 104.999 56.9588 104.999 56.9712 104.999C57.0083 104.999 57.0393 104.993 57.0826 104.987C57.2187 104.95 57.3487 104.888 57.46 104.776C57.5219 104.714 57.5714 104.646 57.6086 104.571C57.6519 104.503 57.6828 104.33 57.6766 104.33V104.299V104.224V103.592C57.6766 103.288 57.6766 102.978 57.689 102.674C57.7076 102.067 57.7385 101.453 57.7818 100.852C57.8623 99.6245 57.9922 98.4095 58.1531 97.2006C58.4934 94.7706 58.9823 92.3715 59.6567 90.0159C60.9933 85.317 63.0167 80.8102 65.8322 76.8242C67.243 74.8405 68.8333 72.9869 70.5906 71.307C72.348 69.6332 74.2724 68.1082 76.3329 66.8312C78.412 65.5356 80.5716 64.4569 82.8425 63.5271C83.4118 63.3225 83.9811 63.0931 84.5566 62.901L85.4229 62.6096L86.2953 62.3554C86.5862 62.2687 86.877 62.1881 87.1802 62.1137C87.471 62.0455 87.7742 61.9711 88.0651 61.9091C88.6591 61.7975 89.2469 61.6549 89.8472 61.5806C90.4536 61.4876 91.0352 61.4504 91.6416 61.3822L92.5636 61.3636C92.8421 61.345 93.1577 61.3636 93.4547 61.376C94.6427 61.4442 95.8308 61.6302 96.9322 62.0517C98.0275 62.4546 99.0237 63.1303 99.6673 64.0664C99.7353 64.178 99.8096 64.3082 99.89 64.4197C99.9581 64.5437 100.001 64.6677 100.057 64.7917C100.119 64.9033 100.156 65.0707 100.206 65.2132L100.243 65.3186L100.261 65.3558V65.3806L100.298 65.61C100.441 66.1741 100.41 66.7444 100.348 67.3209C100.175 68.474 99.6982 69.5836 99.0608 70.5941C98.4297 71.6107 97.6376 72.5406 96.7713 73.3837C96.3444 73.8176 95.8865 74.2143 95.4286 74.6111C95.1934 74.8033 94.9521 74.9892 94.7108 75.1752C94.4757 75.3674 94.2405 75.5534 93.993 75.7269C93.4918 76.0803 93.003 76.446 92.4832 76.7622L91.7159 77.2581L90.9238 77.723C88.8262 78.9567 86.58 79.9485 84.2657 80.7668C81.9639 81.5913 79.5877 82.2112 77.193 82.7505C74.7922 83.2836 72.3789 83.7114 69.9347 84.0337C68.7157 84.1949 67.4967 84.3375 66.2777 84.4491C65.0463 84.5483 63.8397 84.6536 62.6021 84.6536H62.6145C62.4969 84.6474 62.3856 84.6846 62.3051 84.7466C62.2123 84.8148 62.1628 84.883 62.1257 85.0132C62.0947 85.0876 62.0947 85.2178 62.1257 85.3108C62.1442 85.3665 62.1628 85.4037 62.2061 85.4533C62.2247 85.4781 62.2494 85.5029 62.2618 85.5153L62.3051 85.5525H62.3175C62.3608 85.5835 62.3608 85.5835 62.3794 85.5897C62.4041 85.5959 62.4289 85.6207 62.4598 85.6207L62.5093 85.6331H62.5279C62.5279 85.6331 62.565 85.6393 62.5588 85.6331H62.5836L62.794 85.6579L63.2209 85.6765L64.9226 85.7819L65.7765 85.8315C66.0549 85.8439 66.3396 85.8439 66.6242 85.8439L68.3197 85.8749L69.1674 85.8873L70.0152 85.8687C70.5844 85.8687 71.1475 85.8563 71.7168 85.8191C72.8492 85.7757 73.9877 85.6889 75.1139 85.5835L76.8032 85.3913L78.4925 85.162L80.1694 84.8768C80.7263 84.7776 81.2832 84.666 81.8339 84.5545C82.3908 84.4429 82.9415 84.2941 83.4984 84.1639C84.0554 84.0399 84.5937 83.8726 85.1382 83.73C86.2335 83.42 87.3102 83.0605 88.3745 82.6823C88.9128 82.4902 89.4264 82.2608 89.9647 82.0624C90.4907 81.8454 91.0043 81.6099 91.5241 81.3805C92.0315 81.1388 92.5389 80.8784 93.0463 80.6242L94.5499 79.8183C95.0326 79.5146 95.5276 79.2356 95.9917 78.9195C96.4805 78.6095 96.9446 78.3058 97.4025 77.971C98.3307 77.3077 99.2155 76.5948 100.057 75.8447C100.911 75.0884 101.697 74.2701 102.452 73.4209C103.201 72.5654 103.887 71.6417 104.481 70.687C105.088 69.7324 105.62 68.7219 106.035 67.6619C106.146 67.3643 106.245 67.073 106.338 66.7692C106.393 66.6142 106.443 66.4593 106.486 66.3105C106.523 66.1741 106.554 66.0563 106.585 65.9261C106.604 65.8641 106.622 65.8022 106.641 65.7464C106.678 65.5728 106.721 65.4054 106.752 65.238C106.752 65.2318 106.752 65.2132 106.759 65.2008V65.176C106.808 64.9033 106.858 64.6305 106.895 64.364C106.919 64.1346 106.944 63.9052 106.95 63.6759C106.95 63.6325 106.95 63.5891 106.95 63.5519C106.95 63.3659 106.969 63.1737 106.969 62.994C106.969 62.9382 106.95 62.8824 106.95 62.8266" fill="white"/>
<path d="M96.0759 95.0217C96.0759 95.0217 96.113 94.9597 96.1192 94.9349C96.1377 94.8853 96.1439 94.8481 96.1439 94.8109C96.1439 94.7985 96.1439 94.7799 96.1439 94.7675C96.1439 94.7427 96.1439 94.7241 96.1254 94.7117C96.1254 94.6993 96.1254 94.6931 96.1254 94.6869V94.6807L96.0759 94.5629C95.7479 93.6455 95.3828 92.7528 94.9992 91.8601L94.7826 91.3146C94.6588 90.9798 94.498 90.6885 94.3495 90.3661L93.9101 89.4239L93.0314 87.5517L92.0352 85.7354C91.7011 85.1341 91.3917 84.508 91.0266 83.919L89.919 82.1647C89.5353 81.582 89.2012 80.9807 88.768 80.4351L87.5428 78.7614L86.9302 77.9183C86.7137 77.6393 86.4785 77.379 86.262 77.1186L84.913 75.5317C84.6841 75.2713 84.4737 74.9799 84.2323 74.7382L83.5084 73.9819L82.048 72.4817L81.683 72.1159L81.2993 71.775L80.5196 71.0931L78.9665 69.7231L78.8737 69.6301L78.818 69.5867H78.8118L78.7809 69.5619L78.7685 69.5433L78.7004 69.5061C78.62 69.4565 78.521 69.4131 78.422 69.4007C78.3663 69.4007 78.323 69.4007 78.2735 69.3945C78.2178 69.3945 78.1435 69.4069 78.0755 69.4255C78.0136 69.4503 77.9393 69.4751 77.896 69.4999L77.8465 69.5371L77.8218 69.5495L77.8094 69.5619L77.7351 69.6177H77.7227C77.6918 69.6735 77.6547 69.7169 77.6299 69.7541C77.5681 69.8347 77.5433 69.9339 77.5186 70.0392C77.4876 70.1198 77.5062 70.281 77.5433 70.3988C77.5433 70.4298 77.5681 70.4856 77.5742 70.4856V70.5166L77.6237 70.5724V70.591L77.6671 70.6592L77.6856 70.6901L77.7227 70.7459L77.8774 70.9443L78.1683 71.3411C78.125 71.2729 78.1002 71.1675 78.1002 71.0993L78.1806 71.3597C78.1806 71.3597 78.1806 71.3596 78.1745 71.3534H78.1868V71.3658L78.8861 72.3825L79.5482 73.4116L80.1793 74.4778C80.3897 74.825 80.5753 75.1907 80.7672 75.5564C80.9837 75.9036 81.1508 76.2879 81.3303 76.6475L81.6087 77.1992L81.8624 77.7633C82.0295 78.1353 82.2027 78.5072 82.3574 78.8916L82.8277 80.0322C82.9824 80.4103 83.1123 80.7947 83.2547 81.1914C83.397 81.5758 83.5393 81.9663 83.6507 82.3569L84.0343 83.5409L84.3685 84.7311C84.6036 85.5246 84.7645 86.3305 84.9563 87.1364C85.1234 87.9485 85.2781 88.7606 85.4266 89.5726C85.538 90.3909 85.6865 91.2092 85.7669 92.0337L85.8907 93.2735L85.9588 93.8872L85.9959 94.5071C86.0392 95.3378 86.1134 96.1623 86.1134 96.9868L86.1444 98.2452L86.1568 98.5489V98.7101C86.163 98.7659 86.1691 98.8403 86.2001 98.9023C86.2125 98.9519 86.2805 99.0325 86.3115 99.0573L86.3424 99.0821C86.3919 99.1131 86.3671 99.0883 86.3733 99.1007L86.3981 99.1131L86.4723 99.1441C86.6023 99.1875 86.757 99.1317 86.8251 99.0945L89.1579 98.1894L91.4535 97.2223L93.7183 96.1995L94.4361 95.8523C94.9497 95.6044 95.4571 95.3626 95.9645 95.1084C96.0016 95.0898 96.0325 95.065 96.0573 95.034C96.0573 95.0278 96.0573 95.0155 96.0759 95.0093" fill="white"/>
</g>
<defs>
<linearGradient id="paint0_linear_48_4298" x1="335.734" y1="463" x2="786" y2="463" gradientUnits="userSpaceOnUse">
<stop stop-color="white" stop-opacity="0"/>
<stop offset="1" stop-color="white"/>
</linearGradient>
<linearGradient id="paint1_linear_48_4298" x1="770.675" y1="1024" x2="951" y2="1024" gradientUnits="userSpaceOnUse">
<stop stop-color="white" stop-opacity="0"/>
<stop offset="1" stop-color="white"/>
</linearGradient>
<clipPath id="clip0_48_4298">
<rect width="629" height="463" fill="white"/>
</clipPath>
</defs>
</svg>
