<svg width="8" height="8" viewBox="0 0 8 8" fill="none" xmlns="http://www.w3.org/2000/svg">
<path d="M0.645917 0.646894C0.692363 0.60033 0.747538 0.563387 0.808283 0.538181C0.869028 0.512974 0.93415 0.5 0.999917 0.5C1.06568 0.5 1.13081 0.512974 1.19155 0.538181C1.2523 0.563387 1.30747 0.60033 1.35392 0.646894L3.99992 3.29389L6.64592 0.646894C6.6924 0.600406 6.74759 0.563529 6.80833 0.53837C6.86907 0.513211 6.93417 0.500262 6.99992 0.500262C7.06566 0.500262 7.13076 0.513211 7.1915 0.53837C7.25224 0.563529 7.30743 0.600406 7.35392 0.646894C7.4004 0.693381 7.43728 0.748571 7.46244 0.80931C7.4876 0.870049 7.50055 0.93515 7.50055 1.00089C7.50055 1.06664 7.4876 1.13174 7.46244 1.19248C7.43728 1.25322 7.4004 1.30841 7.35392 1.35489L4.70692 4.00089L7.35392 6.64689C7.4004 6.69338 7.43728 6.74857 7.46244 6.80931C7.4876 6.87005 7.50055 6.93515 7.50055 7.00089C7.50055 7.06664 7.4876 7.13174 7.46244 7.19248C7.43728 7.25322 7.4004 7.30841 7.35392 7.35489C7.30743 7.40138 7.25224 7.43826 7.1915 7.46342C7.13076 7.48858 7.06566 7.50152 6.99992 7.50152C6.93417 7.50152 6.86907 7.48858 6.80833 7.46342C6.74759 7.43826 6.6924 7.40138 6.64592 7.35489L3.99992 4.70789L1.35392 7.35489C1.30743 7.40138 1.25224 7.43826 1.1915 7.46342C1.13076 7.48858 1.06566 7.50152 0.999917 7.50152C0.934173 7.50152 0.869073 7.48858 0.808333 7.46342C0.747594 7.43826 0.692405 7.40138 0.645917 7.35489C0.599429 7.30841 0.562553 7.25322 0.537394 7.19248C0.512234 7.13174 0.499285 7.06664 0.499285 7.00089C0.499285 6.93515 0.512234 6.87005 0.537394 6.80931C0.562553 6.74857 0.599429 6.69338 0.645917 6.64689L3.29292 4.00089L0.645917 1.35489C0.599354 1.30845 0.562411 1.25327 0.537204 1.19253C0.511998 1.13178 0.499023 1.06666 0.499023 1.00089C0.499023 0.935126 0.511998 0.870005 0.537204 0.80926C0.562411 0.748515 0.599354 0.693339 0.645917 0.646894Z" fill="#FF2252"/>
</svg>
