<svg width="7" height="12" viewBox="0 0 7 12" fill="none" xmlns="http://www.w3.org/2000/svg">
<path d="M5.4748 11.45L0.524804 6.5C0.441471 6.41667 0.383138 6.33333 0.349805 6.25C0.316472 6.16667 0.299805 6.075 0.299805 5.975C0.299805 5.875 0.316472 5.78333 0.349805 5.7C0.383138 5.61667 0.441471 5.53333 0.524804 5.45L5.4998 0.475C5.6498 0.325 5.82897 0.25 6.0373 0.25C6.24564 0.25 6.4248 0.325 6.5748 0.475C6.7248 0.625 6.79564 0.808333 6.7873 1.025C6.77897 1.24167 6.6998 1.425 6.5498 1.575L2.1498 5.975L6.5748 10.4C6.7248 10.55 6.7998 10.725 6.7998 10.925C6.7998 11.125 6.7248 11.3 6.5748 11.45C6.4248 11.6 6.24147 11.675 6.0248 11.675C5.80814 11.675 5.6248 11.6 5.4748 11.45Z" fill="#717F93"/>
</svg>
