<svg width="8" height="12" viewBox="0 0 8 12" fill="none" xmlns="http://www.w3.org/2000/svg">
<path d="M0.849955 11.4494C0.716621 11.2828 0.645787 11.0994 0.637454 10.8994C0.629121 10.6994 0.699955 10.5244 0.849955 10.3744L5.24995 5.97442L0.824954 1.54942C0.691621 1.41609 0.629121 1.23692 0.637454 1.01192C0.645787 0.786923 0.716621 0.607756 0.849955 0.474423C1.01662 0.307756 1.19579 0.22859 1.38745 0.236923C1.57912 0.245257 1.74995 0.324423 1.89995 0.474423L6.87495 5.44942C6.95829 5.53276 7.01662 5.61609 7.04995 5.69942C7.08329 5.78276 7.09995 5.87442 7.09995 5.97442C7.09995 6.07442 7.08329 6.16609 7.04995 6.24942C7.01662 6.33276 6.95829 6.41609 6.87495 6.49942L1.92495 11.4494C1.77495 11.5994 1.59995 11.6703 1.39995 11.6619C1.19995 11.6536 1.01662 11.5828 0.849955 11.4494Z" fill="white"/>
</svg>
