<svg width="18" height="20" viewBox="0 0 18 20" fill="none" xmlns="http://www.w3.org/2000/svg">
<path d="M9 14H5V6H9C10.0609 6 11.0783 6.42143 11.8284 7.17157C12.5786 7.92172 13 8.93913 13 10C13 11.0609 12.5786 12.0783 11.8284 12.8284C11.0783 13.5786 10.0609 14 9 14ZM7 8V12H9C9.53043 12 10.0391 11.7893 10.4142 11.4142C10.7893 11.0391 11 10.5304 11 10C11 9.46957 10.7893 8.96086 10.4142 8.58579C10.0391 8.21071 9.53043 8 9 8H7ZM12 2H2V18H16V6H12V2ZM0 0.992C0 0.444 0.447 0 0.999 0H13L18 5V18.993C18.0009 19.1243 17.976 19.2545 17.9266 19.3762C17.8772 19.4979 17.8043 19.6087 17.7121 19.7022C17.6199 19.7957 17.5101 19.8701 17.3892 19.9212C17.2682 19.9723 17.1383 19.9991 17.007 20H0.993C0.730378 19.9982 0.479017 19.8931 0.293218 19.7075C0.107418 19.5219 0.00209465 19.2706 0 19.008V0.992Z" fill="#485DFF"/>
</svg>
