<svg width="12" height="18" viewBox="0 0 12 18" fill="none" xmlns="http://www.w3.org/2000/svg">
<path d="M1.83317 2.33268V15.666H10.1665V2.33268H1.83317ZM0.999837 0.666016H10.9998C11.2209 0.666016 11.4328 0.753813 11.5891 0.910093C11.7454 1.06637 11.8332 1.27834 11.8332 1.49935V16.4993C11.8332 16.7204 11.7454 16.9323 11.5891 17.0886C11.4328 17.2449 11.2209 17.3327 10.9998 17.3327H0.999837C0.778823 17.3327 0.566862 17.2449 0.410582 17.0886C0.254301 16.9323 0.166504 16.7204 0.166504 16.4993V1.49935C0.166504 1.27834 0.254301 1.06637 0.410582 0.910093C0.566862 0.753813 0.778823 0.666016 0.999837 0.666016ZM5.99984 13.166C6.22085 13.166 6.43281 13.2538 6.58909 13.4101C6.74537 13.5664 6.83317 13.7783 6.83317 13.9993C6.83317 14.2204 6.74537 14.4323 6.58909 14.5886C6.43281 14.7449 6.22085 14.8327 5.99984 14.8327C5.77882 14.8327 5.56686 14.7449 5.41058 14.5886C5.2543 14.4323 5.1665 14.2204 5.1665 13.9993C5.1665 13.7783 5.2543 13.5664 5.41058 13.4101C5.56686 13.2538 5.77882 13.166 5.99984 13.166Z" fill="#485DFF"/>
</svg>
