<svg width="14" height="14" viewBox="0 0 14 14" fill="none" xmlns="http://www.w3.org/2000/svg">
<path d="M7.00065 13.6654C3.31865 13.6654 0.333984 10.6807 0.333984 6.9987C0.333984 3.3167 3.31865 0.332031 7.00065 0.332031C10.6827 0.332031 13.6673 3.3167 13.6673 6.9987C13.6673 10.6807 10.6827 13.6654 7.00065 13.6654ZM7.00065 12.332C8.41514 12.332 9.77169 11.7701 10.7719 10.7699C11.7721 9.76974 12.334 8.41319 12.334 6.9987C12.334 5.58421 11.7721 4.22766 10.7719 3.22746C9.77169 2.22727 8.41514 1.66536 7.00065 1.66536C5.58616 1.66536 4.22961 2.22727 3.22941 3.22746C2.22922 4.22766 1.66732 5.58421 1.66732 6.9987C1.66732 8.41319 2.22922 9.76974 3.22941 10.7699C4.22961 11.7701 5.58616 12.332 7.00065 12.332ZM6.33398 3.66536H7.66732V4.9987H6.33398V3.66536ZM6.33398 6.33203H7.66732V10.332H6.33398V6.33203Z" fill="#485DFF"/>
</svg>
