<svg width="40" height="40" viewBox="0 0 40 40" fill="none" xmlns="http://www.w3.org/2000/svg">
<rect width="40" height="40" rx="20" fill="#F8F7FA"/>
<path d="M0 20C0 8.9543 8.9543 0 20 0C31.0457 0 40 8.9543 40 20C40 31.0457 31.0457 40 20 40C8.9543 40 0 31.0457 0 20Z" fill="#F8F7FA"/>
<path d="M15 11V13H13V17C13 19.21 14.79 21 17 21C19.21 21 21 19.21 21 17V13H19V11H22C22.552 11 23 11.448 23 12V17C23 19.973 20.838 22.44 18 22.917V24.5C18 26.433 19.567 28 21.5 28C22.997 28 24.275 27.06 24.775 25.737C23.728 25.27 23 24.22 23 23C23 21.343 24.343 20 26 20C27.657 20 29 21.343 29 23C29 24.371 28.08 25.527 26.824 25.885C26.21 28.252 24.059 30 21.5 30C18.462 30 16 27.538 16 24.5V22.917C13.162 22.441 11 19.973 11 17V12C11 11.448 11.448 11 12 11H15ZM26 22C25.448 22 25 22.448 25 23C25 23.552 25.448 24 26 24C26.552 24 27 23.552 27 23C27 22.448 26.552 22 26 22Z" fill="#FF2252"/>
</svg>
