<svg width="12" height="13" viewBox="0 0 12 13" fill="none" xmlns="http://www.w3.org/2000/svg">
<path d="M11.2971 6.5C12.0912 5.60329 12.2288 4.29449 11.626 3.25C11.0224 2.20393 9.82022 1.67062 8.64854 1.91005C8.26957 0.773621 7.20544 0 5.99995 0C4.79288 0 3.72994 0.775009 3.35137 1.91005C2.1782 1.67023 0.976679 2.20541 0.373985 3.25C-0.2296 4.29597 -0.0902276 5.60448 0.702791 6.5C-0.091318 7.39671 -0.228808 8.70551 0.373985 9.75C0.977472 10.796 2.17979 11.3295 3.35147 11.09C3.73043 12.2264 4.79457 13 5.99995 13C7.20703 13 8.27007 12.225 8.64854 11.09C9.82181 11.3298 11.0233 10.7946 11.626 9.75C12.2296 8.70403 12.0902 7.39552 11.2971 6.5ZM5.03326 8.7918L3.19317 6.95068L3.73153 6.41203L5.03326 7.71458L8.26848 4.47758L8.80684 5.01614L5.03326 8.7918Z" fill="#47C4AB"/>
</svg>
