<svg width="22" height="23" viewBox="0 0 22 23" fill="none" xmlns="http://www.w3.org/2000/svg">
<path d="M4.8 0V2.4H2.4V7.2C2.4 9.852 4.548 12 7.2 12C9.852 12 12 9.852 12 7.2V2.4H9.6V0H13.2C13.8624 0 14.4 0.5376 14.4 1.2V7.2C14.4 10.7676 11.8056 13.728 8.4 14.3004V16.2C8.4 18.5196 10.2804 20.4 12.6 20.4C14.3964 20.4 15.93 19.272 16.53 17.6844C15.2736 17.124 14.4 15.864 14.4 14.4C14.4 12.4116 16.0116 10.8 18 10.8C19.9884 10.8 21.6 12.4116 21.6 14.4C21.6 16.0452 20.496 17.4324 18.9888 17.862C18.252 20.7024 15.6708 22.8 12.6 22.8C8.9544 22.8 6 19.8456 6 16.2V14.3004C2.5944 13.7292 0 10.7676 0 7.2V1.2C0 0.5376 0.5376 0 1.2 0H4.8ZM18 13.2C17.3376 13.2 16.8 13.7376 16.8 14.4C16.8 15.0624 17.3376 15.6 18 15.6C18.6624 15.6 19.2 15.0624 19.2 14.4C19.2 13.7376 18.6624 13.2 18 13.2Z" fill="#485DFF"/>
</svg>
