<svg width="208" height="45" viewBox="0 0 208 45" fill="none" xmlns="http://www.w3.org/2000/svg">
<path d="M21.2418 6.89603C21.2418 6.89603 21.2459 6.85921 21.25 6.84694C21.2705 6.76512 21.287 6.69149 21.2993 6.61376C21.2993 6.57694 21.3116 6.55239 21.3157 6.51967C21.3321 6.3683 21.3485 6.21285 21.3485 6.04921C21.3485 6.0083 21.3403 5.95921 21.3403 5.9183C21.3444 6.0083 21.3485 6.04921 21.3485 6.04921C21.3485 6.04921 21.3444 5.94285 21.3321 5.7383C21.3321 5.72603 21.3321 5.70967 21.3239 5.6933V5.66467C21.3157 5.58285 21.2993 5.47649 21.2746 5.3783C21.2746 5.36603 21.2746 5.36194 21.2746 5.34967C21.2295 5.14103 21.1516 4.89558 21.0286 4.62149C20.8317 4.19194 20.4954 3.71739 20.0155 3.2633C19.5356 2.80512 18.8999 2.39603 18.1534 2.06876C17.3987 1.74149 16.5415 1.5083 15.5899 1.41421C14.663 1.3283 13.6499 1.3774 12.6369 1.62285C11.6279 1.84785 10.6066 2.31012 9.7576 3.03421C9.32694 3.3983 8.96191 3.85239 8.69531 4.36785L8.59687 4.56012C8.56406 4.62149 8.54355 4.69103 8.51484 4.76467C8.46972 4.89967 8.4041 5.03058 8.37949 5.18603C8.35078 5.3333 8.30976 5.49694 8.29336 5.63194L8.26465 6.03694V6.16785L8.27285 6.28239C8.27695 6.35603 8.28516 6.43376 8.28926 6.5033C8.31387 6.64239 8.33437 6.78967 8.37539 6.93285C8.44512 7.21921 8.55996 7.48921 8.6871 7.75103C8.76503 7.87376 8.82656 8.00058 8.91679 8.1274C8.99882 8.24603 9.08085 8.37694 9.16698 8.46694C9.2121 8.52421 9.24491 8.56512 9.30233 8.63058L9.45819 8.77376L9.7617 9.07239C10.6107 9.81285 11.6361 10.2465 12.6451 10.4919C12.8994 10.541 13.1454 10.6147 13.4038 10.6392C13.654 10.6719 13.9124 10.7006 14.1585 10.7292C14.3964 10.7292 14.6425 10.7374 14.8804 10.7374C15.1347 10.7374 15.3644 10.7169 15.6023 10.7006C16.5374 10.6188 17.4069 10.3815 18.1575 10.0501C18.904 9.72694 19.5397 9.31376 20.0155 8.86376C20.4954 8.40149 20.8399 7.93103 21.0286 7.49739C21.0819 7.41149 21.1065 7.31739 21.1352 7.2233C21.1516 7.19876 21.1598 7.16603 21.1721 7.14149C21.2049 7.05558 21.2336 6.97785 21.2459 6.9083" fill="#143B87"/>
<path d="M41.1751 4.64631C41.1751 4.64631 41.1751 4.62994 41.1751 4.62585V4.58085C41.1545 4.51949 41.1381 4.46222 41.1299 4.40494C41.1176 4.34767 41.1053 4.30267 41.0807 4.24949C41.0725 4.22494 41.0602 4.19631 41.0479 4.17585C41.0438 4.15949 41.0315 4.13903 41.0274 4.12267C40.9987 4.04494 40.97 3.96722 40.929 3.89767L40.8346 3.72994C40.8059 3.67267 40.7649 3.61949 40.7239 3.56631L40.609 3.41903C40.5721 3.36176 40.5311 3.31676 40.4819 3.27176C40.3876 3.18585 40.3096 3.07949 40.2112 2.99767L40.0676 2.87085C40.0143 2.82994 39.9733 2.78085 39.9159 2.74404L39.6042 2.51904C39.6042 2.51904 39.5919 2.51494 39.5755 2.51494H39.5919C39.1407 2.22449 38.6444 1.99949 38.1358 1.82358C37.6231 1.64358 37.0982 1.52904 36.5568 1.4554C36.2819 1.41449 36.0154 1.39813 35.7406 1.38176C35.6052 1.36949 35.474 1.38176 35.3345 1.37767C35.1951 1.37767 35.0597 1.36949 34.9285 1.38176C34.3747 1.39813 33.8333 1.48813 33.3002 1.62313C32.7588 1.74994 32.2379 1.94631 31.7457 2.2204C31.2535 2.4904 30.7859 2.83813 30.425 3.3004L30.2896 3.47222C30.2486 3.52949 30.2158 3.59904 30.1789 3.6604C30.1379 3.72176 30.0969 3.78722 30.0641 3.84858L29.982 4.06131C29.9123 4.18404 29.8795 4.35176 29.8467 4.51131L29.818 4.62585L29.8098 4.72404L29.7893 4.92449V4.97767L29.7852 4.98176C29.7852 5.03494 29.7852 4.99813 29.7852 5.01858V5.0554L29.7975 5.16585C29.7975 5.24358 29.8016 5.31722 29.8221 5.39085C29.8385 5.46449 29.8467 5.53813 29.8672 5.61585L29.9328 5.84904C29.9615 5.92676 29.9902 5.97176 30.0107 6.04131L30.0559 6.13131L30.0641 6.15585L30.0723 6.17222L30.0846 6.19676L30.1133 6.24585L30.224 6.43813L30.3471 6.61813C30.6957 7.09267 31.1592 7.44858 31.639 7.73494C32.1271 8.01722 32.6439 8.22176 33.1812 8.36494C33.7144 8.51222 34.2558 8.58585 34.8013 8.62676C34.9408 8.63494 35.0802 8.64313 35.2156 8.64313H35.6175C35.757 8.63494 35.8882 8.62267 36.0277 8.61449C36.163 8.60631 36.2943 8.58585 36.4337 8.57767C36.971 8.51222 37.5001 8.39358 38.0169 8.22994C38.5296 8.06631 39.0259 7.84131 39.4811 7.55903C39.9405 7.27676 40.3548 6.92085 40.6747 6.4954C40.7813 6.35222 40.8715 6.20085 40.9495 6.0454C40.97 5.99631 40.9905 5.95131 41.011 5.9104C41.0192 5.88176 41.0274 5.8654 41.0356 5.84085C41.0479 5.80813 41.0602 5.78358 41.0684 5.75085C41.0848 5.71404 41.093 5.67722 41.1053 5.6404C41.1053 5.61994 41.1176 5.59949 41.1217 5.57904C41.1299 5.54222 41.1422 5.49313 41.1545 5.45222C41.1545 5.43176 41.1545 5.41131 41.1628 5.39085C41.171 5.35404 41.1792 5.30494 41.1792 5.26813C41.1792 5.24358 41.1874 5.22313 41.1874 5.19449C41.1915 5.13722 41.1956 5.07176 41.1956 5.0104C41.1956 4.88767 41.1833 4.76494 41.1628 4.6504" fill="#143B87"/>
<path d="M22.6482 16.4159C22.6646 16.3832 22.6646 16.3586 22.6687 16.3259L22.6564 16.2564C22.6564 16.2564 22.6441 16.2318 22.64 16.2236C22.6359 16.2154 22.6318 16.2113 22.6318 16.1991C22.6318 16.1991 22.6236 16.195 22.6195 16.195C22.6072 16.1827 22.5949 16.1663 22.5784 16.1582L22.5169 16.1213L22.3898 16.0641C22.1519 15.9495 21.9058 15.835 21.6638 15.7286L21.3275 15.5773H21.3193L20.8353 15.3768C20.7082 15.3195 20.5728 15.2663 20.4416 15.2132L19.9699 15.0209C19.5187 14.845 19.0594 14.6895 18.6041 14.5218C18.1447 14.3663 17.6771 14.2273 17.2178 14.0841C16.9881 14.0063 16.7502 13.9491 16.5205 13.8877L15.8151 13.7036C15.5813 13.6423 15.3434 13.5891 15.1055 13.54L14.3918 13.3968C14.158 13.3436 13.912 13.3027 13.6782 13.27L12.9563 13.1473C12.7184 13.1063 12.4764 13.0818 12.2344 13.0613L11.5044 12.9795C11.2624 12.9509 11.0204 12.9427 10.7784 12.9345L10.0483 12.9018C9.80224 12.8854 9.56025 12.9018 9.31416 12.9018H8.95323L8.58819 12.9223C8.3462 12.9427 8.10011 12.9427 7.85812 12.9754L7.12805 13.0613L6.40209 13.1882C6.1601 13.2291 5.92631 13.3027 5.68432 13.3559C5.21265 13.4868 4.74507 13.6382 4.2816 13.8427L4.10934 13.9082L3.94528 13.9982L3.62536 14.17C3.56794 14.2027 3.52693 14.2232 3.4572 14.2641L3.30544 14.3704L2.98963 14.5791C2.89119 14.6527 2.80096 14.7468 2.70662 14.8327C2.61639 14.9145 2.51385 15.0004 2.43182 15.0945L2.18573 15.385C2.14882 15.4341 2.1078 15.4791 2.06679 15.5282L1.96835 15.6959L1.76738 16.0232C1.70585 16.1418 1.66894 16.2604 1.61152 16.3709C1.50078 16.6082 1.44336 16.8536 1.37773 17.0991C1.36543 17.1563 1.34082 17.2218 1.32851 17.2832L1.30391 17.4713L1.25469 17.8477C1.23008 18.1054 1.24238 18.3509 1.23828 18.6086V18.6209L1.24238 18.6332C1.30391 19.5823 1.59101 20.4945 1.99296 21.3373L2.31698 21.955L2.67791 22.5482C2.94451 22.9409 3.22341 23.3254 3.51872 23.6568L3.74431 23.9268L3.98629 24.1764C4.14625 24.34 4.30211 24.5118 4.47027 24.6754C4.8107 24.9864 5.14292 25.3095 5.51206 25.5918C5.86479 25.8904 6.24213 26.1564 6.61536 26.4304C6.79993 26.5654 7.00091 26.68 7.19368 26.8068C7.38645 26.9254 7.57922 27.0563 7.77609 27.1709C8.18214 27.3959 8.57179 27.6332 8.99014 27.8377L9.60947 28.1527L10.2329 28.4309L10.5446 28.57L10.6225 28.6027L10.6595 28.6191C10.6595 28.6191 10.7005 28.6314 10.7251 28.6395C10.7825 28.6518 10.7784 28.6518 10.7989 28.6518H10.8071C10.8071 28.6518 10.885 28.6559 10.8604 28.6559H10.9096C10.9425 28.6395 10.9794 28.6395 11.0122 28.6273C11.0409 28.6191 11.0737 28.6027 11.1024 28.5863C11.1311 28.57 11.168 28.5454 11.2009 28.5127C11.2132 28.5004 11.2296 28.4882 11.246 28.4677C11.2624 28.4554 11.2624 28.4554 11.2624 28.4473L11.287 28.4104C11.3362 28.3327 11.3034 28.3777 11.3198 28.3573L11.328 28.3286L11.3403 28.2836C11.3526 28.2509 11.3608 28.2182 11.3649 28.1854C11.3649 28.12 11.3649 28.0545 11.3485 27.985C11.3362 27.9441 11.3157 27.9032 11.2911 27.8704C11.2788 27.8459 11.2706 27.8336 11.2583 27.8132C11.2419 27.7968 11.2296 27.7764 11.2255 27.7764L11.1968 27.7477L11.1803 27.7314H11.1721C11.0778 27.6536 11.1434 27.7027 11.1188 27.6864L11.0532 27.6373L10.9137 27.5554C10.7292 27.4327 10.5528 27.2977 10.3682 27.1709C10.1919 27.0359 10.0155 26.905 9.83915 26.7618C9.146 26.2136 8.47335 25.6 7.89093 24.9495C7.73918 24.7941 7.59563 24.61 7.44387 24.4423L7.33723 24.3114C7.33723 24.3114 7.29211 24.2582 7.28801 24.2541L7.23879 24.1845L7.03372 23.9186C6.77942 23.5627 6.52923 23.1904 6.32826 22.8018C5.91811 22.0327 5.6392 21.1777 5.65971 20.3023C5.66791 19.8727 5.74584 19.4391 5.88529 19.0382C5.92221 18.94 5.95912 18.8418 6.00834 18.7313L6.07807 18.58L6.09857 18.5391L6.11498 18.5104L6.15599 18.4409L6.31595 18.1545L6.50052 17.8845C7.02141 17.1768 7.74738 16.6245 8.55538 16.2482C9.35928 15.8677 10.237 15.6304 11.1229 15.4832C12.0171 15.34 12.9194 15.2745 13.8258 15.2704L15.1834 15.3032C15.6346 15.3318 16.0899 15.3727 16.541 15.4095C16.9881 15.4504 17.4434 15.52 17.8904 15.565C18.3416 15.6304 18.7846 15.7123 19.2357 15.7859C20.1257 15.9536 21.0158 16.1377 21.8894 16.3709L22.1724 16.4773L22.316 16.5304C22.316 16.5304 22.3529 16.5468 22.3652 16.5509H22.3816H22.3857C22.4062 16.5632 22.4349 16.5673 22.4595 16.5673C22.4923 16.5673 22.521 16.5673 22.5456 16.5591C22.5743 16.5468 22.5949 16.5263 22.6195 16.5059C22.6359 16.4895 22.6441 16.4732 22.6564 16.4527C22.6605 16.4486 22.6687 16.4404 22.6687 16.4363L22.6482 16.4159Z" fill="#00A5DF"/>
<path d="M27.9579 35.8242C27.9579 35.8242 27.9445 35.8286 27.9357 35.8373C27.9357 35.8373 27.9356 35.8504 27.9268 35.8547L27.9579 35.8242Z" fill="#143B87"/>
<path d="M48.2993 15.7967C48.2993 15.6862 48.2952 15.5799 48.287 15.4694C48.287 15.4244 48.2747 15.3753 48.2706 15.318C48.2624 15.2403 48.2501 15.1626 48.2337 15.0726C48.2296 15.0194 48.2214 14.9703 48.2132 14.9171C48.0943 14.2994 47.8646 13.6858 47.4872 13.1662C47.1263 12.6549 46.6218 12.2335 46.0599 11.9308C45.4939 11.6444 44.8951 11.4276 44.284 11.2558C43.0494 10.9408 41.7738 10.8058 40.5024 10.8262C39.2309 10.8262 37.9635 10.9694 36.7085 11.1821C36.3968 11.2394 36.0768 11.2803 35.7733 11.3621L34.8423 11.5749C34.227 11.7426 33.6077 11.8899 33.0048 12.0944C32.4019 12.2785 31.8031 12.5035 31.2042 12.7162C30.9048 12.8267 30.6136 12.9535 30.3183 13.0721L29.8753 13.2521L29.4406 13.4526C28.2758 13.964 27.1519 14.5571 26.0445 15.179C24.9412 15.809 23.8707 16.5044 22.833 17.2326C21.8036 17.9812 20.7946 18.7626 19.8471 19.6094C19.6011 19.8099 19.3714 20.0349 19.1376 20.2476C18.9038 20.4644 18.67 20.669 18.4444 20.898C17.9933 21.3521 17.5298 21.7858 17.1032 22.2562L16.4552 22.9599L15.8318 23.684C15.4093 24.1585 15.0197 24.6617 14.6259 25.1649L14.3306 25.5371L14.0558 25.9217L13.4939 26.6949C13.3011 26.9526 13.1289 27.2226 12.9566 27.4844L12.4316 28.2862C12.0871 28.8262 11.7795 29.3744 11.4473 29.9267C11.1273 30.4708 10.8443 31.0476 10.5408 31.604C9.96661 32.7371 9.42931 33.8908 8.95353 35.073C8.69924 35.6581 8.49827 36.2635 8.27678 36.8608L7.95687 37.7608L7.67386 38.6771C7.48929 39.2908 7.28422 39.8921 7.14067 40.5099L6.90278 41.4303L6.78383 41.8926L6.72641 42.1258L6.6977 42.2362C6.6977 42.2362 6.6813 42.2935 6.6813 42.3344C6.6772 42.3712 6.6813 42.4203 6.6895 42.4571V42.4653C6.7018 42.5308 6.6977 42.4858 6.7018 42.5021L6.70591 42.5226L6.73051 42.5799C6.75102 42.6167 6.77973 42.6535 6.81254 42.6903C6.84946 42.7271 6.91098 42.768 6.94789 42.7844L6.98071 42.7967H6.99711L7.00121 42.8008L7.03813 42.8171H7.04223L7.30473 42.8703L7.82972 42.9685L8.36292 43.0749C8.53928 43.1035 8.71154 43.1444 8.88791 43.1731L9.9502 43.3162L10.4793 43.3858C10.6557 43.4103 10.8361 43.4267 11.0125 43.439L12.0871 43.5208L12.6203 43.5576C12.8008 43.5658 12.9771 43.5699 13.1535 43.574L14.2158 43.5985L14.7572 43.6108H15.0238H15.0894H15.114C15.1386 43.6108 15.1304 43.6108 15.1386 43.6108C15.1632 43.6108 15.1837 43.6067 15.2124 43.6026C15.3027 43.578 15.3888 43.5371 15.4626 43.4635C15.5036 43.4226 15.5365 43.3776 15.5611 43.3285C15.5898 43.2835 15.6103 43.169 15.6062 43.169V43.1485V43.0994V42.6821C15.6062 42.4817 15.6062 42.2771 15.6144 42.0767C15.6267 41.6758 15.6472 41.2708 15.6759 40.874C15.7292 40.064 15.8154 39.2621 15.922 38.4644C16.1476 36.8608 16.4716 35.2776 16.9187 33.7231C17.8046 30.6221 19.1458 27.6481 21.012 25.0176C21.9471 23.7085 23.0012 22.4853 24.166 21.3767C25.3309 20.2721 26.6064 19.2658 27.9722 18.423C29.3504 17.568 30.7818 16.8562 32.287 16.2426C32.6644 16.1076 33.0417 15.9562 33.4232 15.8294L33.9974 15.6371L34.5757 15.4694C34.7685 15.4121 34.9612 15.359 35.1622 15.3099C35.355 15.2649 35.5559 15.2158 35.7487 15.1749C36.1425 15.1012 36.5321 15.0071 36.9299 14.958C37.3319 14.8967 37.7174 14.8721 38.1194 14.8271L38.7305 14.8149C38.9151 14.8026 39.1243 14.8149 39.3211 14.823C40.1086 14.868 40.8961 14.9908 41.6262 15.269C42.3521 15.5349 43.0125 15.9808 43.439 16.5985C43.4842 16.6721 43.5334 16.758 43.5867 16.8317C43.6318 16.9135 43.6605 16.9953 43.6974 17.0771C43.7385 17.1508 43.7631 17.2612 43.7959 17.3553L43.8205 17.4249L43.8328 17.4494V17.4658L43.8574 17.6171C43.9517 17.9894 43.9312 18.3658 43.8902 18.7462C43.7754 19.5071 43.4596 20.2394 43.0371 20.9062C42.6187 21.5771 42.0938 22.1908 41.5195 22.7471C41.2365 23.0335 40.933 23.2953 40.6295 23.5571C40.4737 23.684 40.3137 23.8067 40.1537 23.9294C39.9979 24.0562 39.842 24.179 39.678 24.2935C39.3457 24.5267 39.0217 24.7681 38.6772 24.9767L38.1686 25.304L37.6436 25.6108C36.2532 26.4249 34.7643 27.0794 33.2304 27.6194C31.7046 28.1635 30.1296 28.5726 28.5424 28.9285C26.951 29.2803 25.3514 29.5626 23.7313 29.7753C22.9233 29.8817 22.1153 29.9758 21.3073 30.0494C20.4911 30.1149 19.6913 30.1844 18.871 30.1844H18.8792C18.8013 30.1803 18.7274 30.2049 18.6741 30.2458C18.6126 30.2908 18.5798 30.3358 18.5552 30.4217C18.5347 30.4708 18.5347 30.5567 18.5552 30.618C18.5675 30.6549 18.5798 30.6794 18.6085 30.7121C18.6208 30.7285 18.6372 30.7449 18.6454 30.7531L18.6741 30.7776H18.6823C18.711 30.798 18.711 30.7981 18.7233 30.8021C18.7397 30.8062 18.7561 30.8226 18.7767 30.8226L18.8095 30.8308H18.8218C18.8218 30.8308 18.8464 30.8349 18.8423 30.8308H18.8587L18.9981 30.8471L19.2811 30.8594L20.4091 30.929L20.9751 30.9617C21.1596 30.9699 21.3483 30.9699 21.537 30.9699L22.6608 30.9903L23.2227 30.9985L23.7846 30.9862C24.1619 30.9862 24.5352 30.9781 24.9125 30.9535C25.6631 30.9249 26.4178 30.8676 27.1642 30.7981L28.284 30.6712L29.4037 30.5199L30.5152 30.3317C30.8843 30.2662 31.2535 30.1926 31.6185 30.119C31.9876 30.0453 32.3527 29.9471 32.7218 29.8612C33.0909 29.7794 33.4478 29.669 33.8087 29.5749C34.5347 29.3703 35.2483 29.1331 35.9538 28.8835C36.3106 28.7567 36.651 28.6053 37.0079 28.4744C37.3565 28.3312 37.6969 28.1758 38.0415 28.0244C38.3778 27.8649 38.7141 27.6931 39.0504 27.5253L40.0471 26.9935C40.367 26.793 40.6951 26.609 41.0028 26.4003C41.3268 26.1958 41.6344 25.9953 41.9379 25.7744C42.5531 25.3367 43.1396 24.8662 43.6974 24.3712C44.2635 23.8721 44.7843 23.3321 45.2847 22.7717C45.781 22.2071 46.2363 21.5976 46.63 20.9676C47.032 20.3376 47.3847 19.6708 47.6595 18.9712C47.7333 18.7749 47.799 18.5826 47.8605 18.3821C47.8974 18.2799 47.9302 18.1776 47.9589 18.0794C47.9835 17.9894 48.004 17.9117 48.0245 17.8258C48.0368 17.7849 48.0491 17.744 48.0615 17.7071C48.0861 17.5926 48.1148 17.4821 48.1353 17.3717C48.1353 17.3676 48.1353 17.3553 48.1394 17.3471V17.3308C48.1722 17.1508 48.205 16.9708 48.2296 16.7949C48.246 16.6435 48.2624 16.4921 48.2665 16.3408C48.2665 16.3121 48.2665 16.2835 48.2665 16.259C48.2665 16.1362 48.2788 16.0094 48.2788 15.8908C48.2788 15.854 48.2665 15.8171 48.2665 15.7803" fill="#143B87"/>
<path d="M28.9482 20.2287C28.9482 20.2287 28.962 20.2151 28.9482 20.2287V20.2287Z" fill="#143B87"/>
<path d="M41.0559 37.0212C41.0559 37.0212 41.0805 36.9803 41.0846 36.9639C41.0969 36.9312 41.101 36.9067 41.101 36.8821C41.101 36.8739 41.101 36.8616 41.101 36.8535C41.101 36.8371 41.101 36.8248 41.0887 36.8166C41.0887 36.8085 41.0887 36.8044 41.0887 36.8003V36.7962L41.0559 36.7185C40.8385 36.113 40.5965 35.5239 40.3422 34.9348L40.1987 34.5748C40.1167 34.3539 40.01 34.1616 39.9116 33.9489L39.6204 33.3271L39.038 32.0916L38.3776 30.893C38.1561 30.4962 37.9511 30.083 37.7091 29.6944L36.9749 28.5366C36.7206 28.1521 36.4991 27.7553 36.212 27.3953L35.3999 26.2907L34.9939 25.7344C34.8503 25.5503 34.6945 25.3785 34.5509 25.2066L33.6568 24.1594C33.505 23.9876 33.3656 23.7953 33.2056 23.6357L32.7257 23.1366L31.7578 22.1466L31.5158 21.9053L31.2615 21.6803L30.7447 21.2303L29.7152 20.3262L29.6537 20.2648L29.6168 20.2362H29.6127L29.5922 20.2198L29.584 20.2076L29.5389 20.183C29.4855 20.1503 29.4199 20.1216 29.3543 20.1135C29.3174 20.1135 29.2887 20.1135 29.2559 20.1094C29.2189 20.1094 29.1697 20.1176 29.1246 20.1298C29.0836 20.1462 29.0344 20.1626 29.0057 20.1789L28.9729 20.2035L28.9564 20.2116L28.9482 20.2198L28.899 20.2566H28.8908C28.8703 20.2935 28.8457 20.3221 28.8293 20.3466C28.7883 20.3998 28.7719 20.4653 28.7555 20.5348C28.735 20.588 28.7473 20.6944 28.7719 20.7721C28.7719 20.7926 28.7883 20.8294 28.7924 20.8294V20.8498L28.8252 20.8866V20.8989L28.8539 20.9439L28.8662 20.9644L28.8908 21.0012L28.9934 21.1321L29.1861 21.3939C29.1574 21.3489 29.141 21.2794 29.141 21.2344L29.1943 21.4062C29.1943 21.4062 29.1943 21.4062 29.1902 21.4021H29.1984V21.4103L29.6619 22.0812L30.1008 22.7603L30.5191 23.4639C30.6586 23.693 30.7816 23.9344 30.9088 24.1757C31.0523 24.4048 31.1631 24.6585 31.282 24.8957L31.4666 25.2598L31.6347 25.6321C31.7455 25.8776 31.8603 26.123 31.9629 26.3766L32.2746 27.1294C32.3771 27.3789 32.4632 27.6326 32.5576 27.8944C32.6519 28.148 32.7462 28.4057 32.8201 28.6635L33.0744 29.4448L33.2958 30.2303C33.4517 30.7539 33.5583 31.2857 33.6855 31.8176C33.7962 32.3535 33.8988 32.8894 33.9972 33.4253C34.071 33.9653 34.1695 34.5053 34.2228 35.0494L34.3048 35.8676L34.3499 36.2726L34.3745 36.6816C34.4033 37.2298 34.4525 37.7739 34.4525 38.318L34.473 39.1485L34.4812 39.3489V39.4553C34.4853 39.4921 34.4894 39.5412 34.5099 39.5821C34.5181 39.6148 34.5632 39.668 34.5837 39.6844L34.6042 39.7007C34.637 39.7212 34.6206 39.7048 34.6247 39.713L34.6411 39.7212L34.6904 39.7416C34.7765 39.7703 34.879 39.7335 34.9241 39.7089L36.4704 39.1116L37.9921 38.4735L39.4932 37.7985L39.969 37.5694C40.3094 37.4057 40.6458 37.2462 40.9821 37.0785C41.0067 37.0662 41.0272 37.0498 41.0436 37.0294C41.0436 37.0253 41.0436 37.0171 41.0559 37.013" fill="#00A5DF"/>
<path d="M60.7963 28.7736H57.8555V8.51953H69.9713V11.4445H60.7963V17.1554H68.9213V20.1091H60.7963V28.7736Z" fill="#143B87"/>
<path d="M82.0299 11.4159H78.2443V25.8527H82.0299V28.7736H71.5342V25.8527H75.3076V11.4159H71.5342V8.51953H82.0299V11.4159Z" fill="#143B87"/>
<path d="M95.4504 13.738C95.0444 11.9134 93.0675 11.1239 91.2956 11.1566C89.9298 11.1893 88.4163 11.6516 87.6043 12.6907C87.1982 13.2184 87.0505 13.8893 87.1039 14.5766C87.2556 16.6671 89.5402 16.9289 91.7222 17.1334C94.5071 17.4812 97.9811 18.1971 98.7563 21.4452C98.8465 21.8871 98.9039 22.3821 98.9039 22.7871C98.9039 26.698 95.0075 28.9602 91.3489 28.9602C88.2113 28.9602 84.4092 27.0948 84.0236 23.4784L83.999 22.9343L86.9521 22.873L86.9931 23.3107V23.1921C87.1941 25.0739 89.4868 26.0598 91.3776 26.0598C93.5514 26.0598 95.9426 24.8489 95.9426 22.7502C95.9426 22.5498 95.9139 22.3289 95.8565 22.0548C95.4997 20.5207 93.4161 20.263 91.3776 20.0625C88.2154 19.7393 84.4994 19.048 84.1672 14.8139V14.8384C84.0564 13.4884 84.4092 12.1221 85.2787 10.9807C86.6445 9.21751 89.0849 8.29297 91.4269 8.29297C94.5645 8.29297 97.8293 9.91297 98.3502 13.6275L95.4504 13.7461V13.738Z" fill="#143B87"/>
<path d="M110.835 11.4159H107.061V25.8527H110.835V28.7736H100.339V25.8527H104.125V11.4159H100.339V8.51953H110.835V11.4159Z" fill="#143B87"/>
<path d="M115.035 11.3068C116.901 9.41683 119.522 8.23047 122.368 8.23047C125.215 8.23047 127.836 9.41683 129.718 11.3068C131.548 13.1846 132.745 15.7618 132.745 18.6377C132.745 21.5137 131.548 24.0827 129.718 25.9687C127.836 27.8791 125.248 29.0491 122.368 29.0491C119.489 29.0491 116.905 27.8832 115.035 25.9687C113.206 24.0787 112.024 21.5014 112.024 18.6377C112.024 15.7741 113.21 13.1846 115.035 11.3068ZM127.631 13.385C126.265 12.0268 124.366 11.1882 122.368 11.1882C120.371 11.1882 118.505 12.0268 117.16 13.385C115.831 14.7187 114.977 16.58 114.977 18.6377C114.977 20.6955 115.831 22.5446 117.16 23.8823C118.505 25.2487 120.363 26.0832 122.368 26.0832C124.374 26.0832 126.265 25.2487 127.631 23.8823C128.927 22.5446 129.772 20.72 129.772 18.6377C129.772 16.5555 128.927 14.7187 127.631 13.385Z" fill="#143B87"/>
<path d="M138.745 28.7751H135.809V8.48828H138.187L144.91 18.3433L151.612 8.48828H153.937V28.7751H151.042V14.4937L145.722 22.3769H144.061L138.745 14.4937V28.7751Z" fill="#143B87"/>
<path d="M168.608 22.8105H161.316C160.528 24.6637 159.507 27.0936 158.871 28.775H155.705L163.867 8.23047H166.012L174.186 28.775H171.053L168.608 22.8105ZM162.415 20.0573H167.472L164.974 12.8941L162.411 20.0573H162.415Z" fill="#143B87"/>
<path d="M179.674 18.4865H183.095C185.568 18.4865 186.782 16.7192 186.782 14.956C186.782 13.1928 185.568 11.446 183.095 11.446H178.592V28.771H175.684V8.48828H183.095C187.512 8.48828 189.723 11.7406 189.723 14.956C189.723 17.8278 187.951 20.5524 184.461 21.1578L190.884 28.771H187.073L179.674 19.8733V18.4865Z" fill="#143B87"/>
<path d="M197.242 28.8649V11.4458H191.081V8.49219H206.306V11.4458H200.17V28.8649H197.242Z" fill="#143B87"/>
<path d="M60.9603 37.6258H63.6017C63.1751 38.6608 62.2277 39.0699 61.3541 39.0699C59.9636 39.0699 58.8808 37.9654 58.8808 36.4599C58.8808 34.9545 59.9636 33.8827 61.3541 33.8827C62.2605 33.8827 63.3679 34.2917 63.6427 35.4413H64.7542C64.3687 33.5554 62.7158 32.8477 61.3541 32.8477C59.3853 32.8477 57.8555 34.3449 57.8555 36.4599C57.8555 38.5749 59.3648 40.0517 61.3541 40.0517C62.646 40.0517 64.1226 39.1845 64.6025 37.814V37.8304C64.6968 37.6054 64.7542 37.1922 64.7952 36.599H60.9603V37.6217V37.6258Z" fill="#00A5DF"/>
<path d="M100.245 32.8205H97.0869V40.5237H98.3461V37.9587H100.245C102.107 37.9587 103.046 36.6823 103.046 35.3937C103.046 34.105 102.107 32.8164 100.245 32.8164V32.8205ZM100.245 36.8582H98.3461V33.9414H100.245C101.295 33.9414 101.812 34.6696 101.812 35.406C101.812 36.1423 101.295 36.8582 100.245 36.8582Z" fill="#00A5DF"/>
<path d="M105.917 32.7227L102.451 40.5281H103.796C104.067 39.8899 104.498 38.9654 104.834 38.2617H107.935L108.973 40.5281H110.306L106.836 32.7227H105.925H105.917ZM105.302 37.2145L106.389 34.494L107.451 37.2145H105.302Z" fill="#00A5DF"/>
<path d="M116.478 33.9448V32.832H111.331V40.527H112.574V37.2338H116.031V36.1088H112.574V33.9448H116.478Z" fill="#00A5DF"/>
<path d="M71.247 35.173C71.247 34.0357 70.4636 32.8984 68.9173 32.8984H66.3252V40.0166H67.3506V33.9334H68.9214C69.7951 33.9334 70.2175 34.5553 70.2175 35.173C70.2175 35.7907 69.7951 36.4084 68.9214 36.4084H67.7238V36.8953L70.316 40.0166H71.6572L69.4013 37.333C70.6236 37.1284 71.247 36.1712 71.247 35.1771V35.173Z" fill="#00A5DF"/>
<path d="M76.9189 37.8769C76.9189 38.6501 76.0699 39.0428 75.3316 39.0428C74.5933 39.0428 73.7279 38.6623 73.7279 37.881V32.9023H72.6943V37.8769C72.6943 39.3292 74.0806 40.0819 75.3316 40.0819C76.5826 40.0819 77.9566 39.3251 77.9566 37.881V32.9023H76.9189V37.8769Z" fill="#00A5DF"/>
<path d="M82.5216 32.8984H79.9131V40.0166H80.9508V37.6439H82.5216C84.0556 37.6439 84.8349 36.4657 84.8349 35.2793C84.8349 34.093 84.0556 32.8984 82.5216 32.8984ZM82.5216 36.6253H80.9508V33.9334H82.5216C83.3871 33.9334 83.8136 34.5962 83.8136 35.2834C83.8136 35.9707 83.3871 36.6293 82.5216 36.6293V36.6253Z" fill="#00A5DF"/>
<path d="M89.6542 32.8086C88.6494 32.8086 87.7347 33.23 87.0826 33.8886C86.4346 34.5472 86.0244 35.4472 86.0244 36.4618C86.0244 37.4763 86.4346 38.3681 87.0826 39.0268C87.7347 39.6895 88.6494 40.0945 89.6542 40.0945C90.6591 40.0945 91.5615 39.6895 92.2259 39.0268C92.8575 38.364 93.2841 37.4518 93.2841 36.4618C93.2841 35.4718 92.8575 34.5472 92.2259 33.8886C91.5615 33.23 90.6509 32.8086 89.6542 32.8086ZM91.4958 38.2986C91.0119 38.7691 90.3556 39.0677 89.6542 39.0677C88.9529 39.0677 88.2925 38.7691 87.8168 38.2986C87.3492 37.82 87.0539 37.1818 87.0539 36.4618C87.0539 35.7418 87.3533 35.0831 87.8168 34.6127C88.2966 34.134 88.9406 33.8354 89.6542 33.8354C90.3679 33.8354 91.0119 34.134 91.4958 34.6127C91.947 35.0831 92.2382 35.7172 92.2382 36.4618C92.2382 37.2063 91.947 37.82 91.4958 38.2986Z" fill="#00A5DF"/>
</svg>
