<svg width="752" height="503" viewBox="0 0 752 503" fill="none" xmlns="http://www.w3.org/2000/svg">
<g clip-path="url(#clip0_29_4385)">
<g clip-path="url(#clip1_29_4385)">
<path d="M289.129 98.9521C287.26 52.5941 326.061 32 365.74 32C405.419 32 448.595 42.2926 452.337 103.933C454.744 143.589 433.63 167.989 372.838 167.989C352.335 167.989 336.399 164.751 324.197 158.977L293.808 186.016L308.743 148.643C295.513 136.328 289.942 118.955 289.132 98.9521H289.129Z" fill="#407BFF"/>
<path d="M621.166 246.824L636.071 424.259C636.071 424.259 637.633 435.016 629.643 435.034C616.505 435.066 564.254 435.034 564.254 435.034C564.254 435.034 574.141 432.795 574.023 427.758C573.881 421.819 556.604 245.145 556.604 245.145L621.169 246.824H621.166Z" fill="#BAC8D3"/>
<path d="M560.013 431.816C562.597 431.825 612.505 431.982 625.298 431.816C630.875 431.748 631.853 426.853 631.897 423.686C631.92 422.168 631.728 421.044 631.728 421.044L631.342 416.433L630.355 404.68L629.484 394.296L628.361 380.951L627.416 369.688L616.826 243.607L552.262 241.93C552.262 241.93 559.537 315.868 564.685 369.688C565.261 375.683 565.808 381.433 566.313 386.801C566.478 388.513 566.635 390.19 566.789 391.82C567.267 396.913 567.701 401.589 568.082 405.718C568.283 407.895 568.466 409.915 568.635 411.769C569.29 419.027 569.677 423.662 569.68 424.543C569.68 425.058 569.639 425.534 569.553 425.981C568.493 431.636 560.987 431.822 560.016 431.822L560.013 431.816Z" fill="#BAC8D3"/>
<path d="M777.967 150.27L741.664 296.276L736.696 316.273L719.785 384.278H405.667L467.986 150.27H777.967Z" fill="#BAC8D3"/>
<path d="M777.967 150.27L783 151.949L726.476 389.359L719.785 384.281L777.967 150.27Z" fill="#BAC8D3"/>
<path d="M726.475 389.36H414.289L405.667 384.281H719.785L726.475 389.36Z" fill="#BAC8D3"/>
<path d="M616.844 431.883H549.252V435.098H616.844V431.883Z" fill="#BAC8D3"/>
<path d="M566.435 389.355L566.783 391.816L630.352 404.676L629.478 394.289L629.064 389.355H566.435Z" fill="#BAC8D3"/>
<path d="M560.013 431.812C562.597 431.82 612.505 431.977 625.298 431.812C630.875 431.744 631.853 426.849 631.897 423.681L568.629 411.762C569.285 419.02 569.672 423.654 569.675 424.536C569.675 425.05 569.633 425.527 569.548 425.973C568.487 431.628 560.982 431.815 560.01 431.815L560.013 431.812Z" fill="#BAC8D3"/>
<path d="M581.797 336.909L719.785 384.281L736.695 316.273L581.797 336.909Z" fill="#BAC8D3"/>
<path d="M777.966 150.27H467.986L417.691 338.34H731.284L777.966 150.27Z" fill="url(#paint0_linear_29_4385)"/>
<path d="M673.49 50.6106C674.122 49.1229 681.5 33.3173 706.546 41.9447C706.546 41.9447 693.833 38.7357 689.688 43.2816C689.688 43.2816 700.494 39.8418 706.422 44.5534C712.35 49.2649 711.789 62.6068 710.342 66.5109C708.894 70.415 700.358 81.518 695.67 80.9471C693.895 80.7312 692.069 79.9061 690.486 78.9685C690.944 81.1838 691.31 83.5765 691.538 86.1762C693.652 110.234 675.903 126.152 668.388 120.76C663.568 117.302 658.555 125.874 658.555 125.874L622.643 63.7485C622.643 63.7485 656.895 31.4747 673.49 50.6106Z" fill="#300B39"/>
<path d="M606.122 196.935C640.135 212.158 665.706 158.429 663.485 157.879C660.085 154.028 656.579 140.305 659.069 120.551L657.306 120.672L627.726 122.864C627.726 122.864 627.265 132.053 626.246 140.621C625.57 146.256 624.645 151.627 623.446 153.969C623.092 154.661 616.682 155.59 616.667 155.605C616.168 156.149 597.051 192.877 606.125 196.932L606.122 196.935Z" fill="#FDAB74"/>
<path d="M424.429 167.94L417.482 177.594C417.482 177.594 420.518 180.212 425.363 184.367C426.828 185.604 427.711 186.272 427.711 186.272C431.625 189.564 436.437 193.388 441.665 197.579L441.724 197.653C450.845 204.683 461.231 212.42 470.663 218.395C471.516 218.924 472.361 219.442 473.188 219.942C478.91 223.358 484.191 226.04 488.486 227.499C488.979 227.679 489.411 227.788 489.969 227.916C502.475 231.284 527.713 226.895 552.469 219.329C555.886 218.294 559.257 217.185 562.55 216.129C574.699 212.068 586.151 207.422 595.447 202.669C601.03 199.883 605.909 197.085 609.575 194.352C610.884 193.406 612.13 192.521 613.182 191.548C633.279 175.071 623.827 159.076 620.011 159.053C615.243 158.994 608.553 160.257 600.82 162.241C588.629 165.533 573.615 170.762 558.896 176.21C550.809 179.174 542.777 182.211 535.239 184.849C530.729 186.535 526.428 188.049 522.464 189.416C514.861 191.986 508.548 193.867 504.15 194.547C501.294 195.009 495.992 194 489.49 192.22C487.765 191.755 485.946 191.223 484.055 190.658C473.575 187.473 460.995 182.803 450.063 178.455C444.681 176.352 439.674 174.288 435.527 172.569C428.816 169.813 424.423 167.943 424.423 167.943L424.429 167.94Z" fill="#FDAB74"/>
<path d="M560.873 216.668C564.769 219.652 569.566 222.27 575.464 224.213C573.016 233.198 571.001 241.24 570.015 246.667C568.446 255.268 566.943 269.938 565.649 285.483C565.274 289.973 564.919 294.537 564.583 299.047C563.457 314.113 562.565 328.597 562.025 337.837H711.045C708.271 316.051 704.514 291.499 701.664 268.362C700.252 256.868 699.061 245.736 698.32 235.455C697.682 226.564 696.642 218.655 695.304 211.622C695.295 211.566 695.283 211.516 695.275 211.459C694.143 205.541 692.796 200.247 691.307 195.509C691.307 195.506 691.308 195.503 691.305 195.5C683.811 171.65 672.648 161.934 666.168 158.136C664.59 157.21 663.29 156.637 662.39 156.294C661.498 155.956 660.995 155.844 660.995 155.844C653.032 171.33 633.218 179.008 621.707 182.282C616.797 183.675 613.397 184.267 613.067 184.326C613.058 184.326 613.052 184.329 613.04 184.329C613.04 184.329 613.037 184.282 613.037 184.187C613.034 184.14 613.034 184.081 613.031 184.013C612.765 175.154 614.679 164.687 615.834 159.275C616.319 156.997 616.673 155.613 616.673 155.613H616.67C615.947 155.702 614.954 155.832 613.781 155.998C607.499 156.882 596.011 158.745 592.31 160.106C587.123 162.014 544.012 181.697 544.012 181.697C544 182.052 543.229 203.154 560.875 216.674L560.873 216.668Z" fill="#39608D"/>
<path d="M627.724 122.867C627.724 122.867 627.269 132.048 626.244 140.625C642.463 142.148 652.807 128.431 657.306 120.676L627.724 122.867Z" fill="#F68F53"/>
<path d="M621.334 130.33C621.334 130.33 659.498 135.642 662.434 111.795C665.373 87.9473 672.276 72.5705 648.034 68.1725C623.792 63.7716 617.928 72.2866 615.013 80.009C612.098 87.7285 611.48 128.337 621.331 130.333L621.334 130.33Z" fill="#FDAB74"/>
<path d="M617.772 66.884C624.56 60.4334 628.834 62.554 631.073 65.0177C653.38 56.0709 664.77 74.7306 664.77 74.7306C665.24 92.1571 676.367 103.47 676.367 103.47C676.367 103.47 668.87 106.928 653.306 100.823C648.553 98.9596 644.595 94.9284 641.387 90.2375C646.557 101.947 654.449 110.894 654.449 110.894C636.339 99.6606 631.897 71.9889 631.474 69.0697C628.884 70.8827 623.727 74.8785 621.777 79.176C619.13 85.0173 616.747 97.4157 613.158 96.5432C613.158 96.5432 607.593 76.5585 617.769 66.884H617.772Z" fill="#300B39"/>
<path d="M424.429 167.94C424.429 167.94 421.1 164.988 419.157 162.069C417.213 159.15 416.436 156.23 412.741 153.699C409.049 151.167 404.964 144.551 404.382 145.719C403.8 146.887 406.325 154.089 406.13 154.867C405.936 155.645 395.633 157.875 391.745 156.76C387.858 155.645 378.137 152.53 378.332 154.477C378.527 156.423 388.83 167.325 392.135 169.271C395.441 171.217 405.354 170.634 409.244 171.995C413.131 173.358 417.485 177.594 417.485 177.594L424.432 167.94H424.429Z" fill="#FDAB74"/>
<path d="M398.938 158.111C398.938 158.111 388.83 149.936 384.423 150.974L391.68 158.111H398.938Z" fill="#FDAB74"/>
<path d="M390.123 166.676L374.832 156.425C374.832 156.425 377.65 155.354 380.76 156.425C383.87 157.496 390.123 166.676 390.123 166.676Z" fill="#FDAB74"/>
<path d="M637.63 328.927C638.283 328.56 694.329 315.975 701.66 268.357C700.246 256.864 699.055 245.731 698.317 235.453C697.67 226.492 696.621 218.533 695.268 211.455C688.286 210.372 679.911 217.894 676.154 229.059C668.424 252.043 637.831 327.968 637.63 328.927Z" fill="#303876"/>
<path d="M566.538 287.595L566.337 299.645C566.337 299.645 626.205 332.377 637.837 328.562C653.628 323.383 671.127 297.474 678.29 272.57C679.285 269.137 680.195 265.703 681.108 262.364C684.333 249.953 686.688 237.806 687.777 227.413C688.489 221.208 688.808 215.586 688.519 211.019C688.439 209.404 688.377 207.878 688.138 206.461C685.302 180.609 666.758 179.819 664.655 183.01C662.005 186.982 659.415 193.285 656.86 200.857C652.967 212.882 649.159 228.336 645.694 243.66C643.765 252.065 641.928 260.459 640.029 268.226C638.98 272.931 633.052 296.184 631.221 300.245C630.048 302.895 566.541 287.592 566.541 287.592L566.538 287.595Z" fill="#FDAB74"/>
<path d="M666.974 174.721C666.974 174.721 685.01 183.491 691.304 195.499C697.599 207.507 699.613 245.285 682.797 291.587C682.797 291.587 659.238 293.731 640.029 268.227C640.029 268.227 647.162 167.52 666.974 174.724V174.721Z" fill="#39608D"/>
<path d="M659.575 147.965C659.575 147.965 666.153 152.061 666.165 158.136C666.165 158.136 658.396 179.39 613.037 184.326C613.037 184.326 654.783 163.768 659.572 147.965H659.575Z" fill="#303876"/>
<path d="M624.152 153.022C624.152 153.022 612.709 174.072 613.037 184.326C613.037 184.326 612.26 161.023 613.882 155.61C615.504 150.198 625.151 147.965 625.151 147.965L624.152 153.022Z" fill="#303876"/>
<path d="M632.564 117.621C632.175 117.621 628.547 120.866 623.75 119.958C618.956 119.05 619.001 115.285 619.001 115.285C619.001 115.285 622.273 114.767 625.15 115.285C628.027 115.802 632.564 117.621 632.564 117.621Z" fill="white"/>
<path d="M572.413 293.705C572.413 293.705 563.977 280.845 557.177 280.594C550.377 280.342 537.785 276.811 538.792 279.334C539.8 281.857 547.607 282.108 548.363 283.619C549.119 285.134 536.778 287.402 533.254 287.654C529.73 287.905 521.418 287.654 521.669 289.419C521.92 291.185 536.648 298.496 547.037 297.488C557.428 296.479 570.271 300.513 570.271 300.513L572.413 293.705Z" fill="#FDAB74"/>
<path d="M459.211 441.272V447.243C459.211 450.692 462.002 453.487 465.446 453.487H749.873C755.515 449.967 760.669 445.812 765.274 440.952C767.047 439.083 768.733 437.113 770.337 435.031H465.446C462.002 435.031 459.211 437.826 459.211 441.275V441.272Z" fill="#407BFF"/>
<path d="M517.694 452.59L517.726 453.489L518.308 469.963C521.041 469.96 523.749 469.957 526.44 469.957L526.874 453.489L526.91 452.102L517.694 452.587V452.59Z" fill="#407BFF"/>
<path d="M35.3159 254.219C35.3159 254.219 103.564 239.295 235.251 254.219L250.363 407.931L69.5655 398.978L35.3159 254.219Z" fill="#89ADFD"/>
<path d="M251.757 254.219L252.076 257.745L252.723 264.876L254.578 285.316V285.422L258.929 333.247L259.425 338.669L263.339 381.762L264.869 398.626L267.761 430.453L269.9 453.975L271.329 469.713C279.461 469.746 287.753 469.775 296.162 469.802C305.077 469.828 314.124 469.852 323.269 469.876H324.129C325.375 469.876 326.625 469.879 327.874 469.882C328.551 469.885 329.227 469.885 329.901 469.885C340.366 469.914 350.938 469.926 361.566 469.944C363.252 469.944 364.942 469.947 366.629 469.95H368.123C371.157 469.956 374.193 469.959 377.23 469.961C379.191 469.964 381.156 469.964 383.12 469.967C387.666 469.97 392.212 469.973 396.761 469.976C397.824 469.979 398.887 469.979 399.951 469.979C401.242 469.982 402.532 469.982 403.82 469.982C404.378 469.982 404.943 469.982 405.501 469.982C406.245 469.982 406.987 469.982 407.728 469.982H409.601C418.991 469.988 428.352 469.991 437.647 469.991H443.425C444.745 433.79 442.923 348.314 396.323 348.314C382.337 348.314 370.997 348.278 361.908 347.497C342.649 345.847 333.484 340.86 330.613 325.833C329.106 317.974 329.322 307.371 330.716 293.062C333.617 263.287 311.584 254.095 290.068 252.066C287.2 251.794 284.344 251.649 281.556 251.602C278.43 251.546 275.394 251.614 272.529 251.753C264.521 252.146 257.854 253.131 254.371 253.728C252.697 254.012 251.76 254.21 251.76 254.21L251.757 254.219Z" fill="#89ADFD"/>
<path d="M217.927 254.224L219.632 272.978L227.114 355.396L229.577 382.532L230.389 391.461L231.686 405.723L231.801 407.016L234.785 439.881L235.951 452.735L237.479 469.555C240.202 469.567 242.949 469.585 245.726 469.596C246.706 469.602 247.69 469.605 248.677 469.611C249.956 469.617 251.243 469.623 252.537 469.632C253.175 469.635 253.816 469.638 254.454 469.638C258.129 469.658 261.836 469.67 265.581 469.685C267.487 469.691 269.401 469.7 271.324 469.712C279.455 469.744 287.747 469.774 296.156 469.8C305.071 469.827 314.119 469.851 323.264 469.874H324.123C325.37 469.874 326.619 469.877 327.869 469.88C328.545 469.883 329.221 469.883 329.895 469.883C340.36 469.913 350.932 469.925 361.56 469.942C363.247 469.942 364.936 469.945 366.623 469.948H368.117C371.151 469.954 374.188 469.957 377.224 469.96C379.185 469.963 381.15 469.963 383.114 469.966C387.66 469.969 392.206 469.972 396.755 469.975C397.818 469.978 398.882 469.978 399.945 469.978C401.236 469.981 402.527 469.981 403.814 469.981C404.373 469.981 404.937 469.981 405.495 469.981C406.24 469.981 406.981 469.981 407.722 469.981H409.595C410.912 433.776 409.084 348.315 362.49 348.315C362.021 348.315 361.56 348.315 361.096 348.312C310.217 348.182 290.512 340.773 280.932 302.655C279.588 297.317 278.445 291.372 277.444 284.759C277.323 283.96 277.178 283.182 277.01 282.425C276.912 281.996 276.812 281.57 276.7 281.156C276.7 281.15 276.7 281.147 276.697 281.141C274.36 272.242 268.769 266.208 261.919 262.139C259.535 260.719 257 259.542 254.398 258.563C253.627 258.273 252.853 258.001 252.073 257.744C246.396 255.883 240.512 254.889 235.263 254.39C225.498 253.458 217.924 254.218 217.924 254.218L217.927 254.224Z" fill="#407BFF"/>
<path d="M264.633 147.165C264.633 147.165 268.964 126.633 242.97 120.993C216.976 115.355 195.765 129.614 184.177 140.56C172.592 151.504 179.548 185.002 162.325 185.996C145.101 186.989 129.629 194.939 133.176 214.022C136.724 233.105 118.617 224.696 120.265 243.321C121.913 261.945 136.157 278.528 172.261 278.86C208.363 279.191 272.29 260.058 273.616 257.633C274.942 255.21 312.287 235.989 286.884 216.507C261.907 197.353 305.006 160.397 264.633 147.162V147.165Z" fill="#300B39"/>
<path d="M187.385 469.194C192.548 469.241 197.892 469.288 203.395 469.33C206.998 469.359 210.664 469.386 214.398 469.409C216.309 469.421 218.232 469.436 220.175 469.448C223.67 469.472 227.214 469.492 230.812 469.516C231.119 469.519 231.426 469.519 231.736 469.522C233.639 469.531 235.553 469.545 237.479 469.554C240.202 469.566 242.949 469.584 245.726 469.596C246.706 469.602 247.69 469.605 248.677 469.611C249.956 469.616 251.244 469.622 252.537 469.631C253.175 469.634 253.816 469.637 254.454 469.637C258.129 469.658 261.836 469.67 265.581 469.684C267.487 469.69 269.401 469.699 271.324 469.711C279.456 469.744 287.747 469.773 296.156 469.8C305.071 469.826 314.119 469.85 323.264 469.874H324.123C325.37 469.874 326.619 469.877 327.869 469.88C328.545 469.883 329.222 469.883 329.895 469.883C340.36 469.912 350.932 469.924 361.56 469.942C363.247 469.942 364.936 469.945 366.623 469.948H368.118C371.151 469.954 374.188 469.957 377.224 469.96C379.185 469.963 381.15 469.963 383.114 469.965C387.66 469.968 392.206 469.971 396.755 469.974C397.818 469.977 398.882 469.977 399.945 469.977C401.236 469.98 402.527 469.98 403.814 469.98C404.373 469.98 404.937 469.98 405.495 469.98C404.585 468.611 403.436 467.351 401.986 466.304C397.777 463.26 393.018 460.063 387.734 456.875C381.95 453.382 375.54 449.895 368.534 446.624C349.452 437.704 325.975 430.369 298.803 428.819C287.883 428.195 277.512 428.854 267.752 430.448C263.035 431.22 258.463 432.205 254.038 433.379C247.259 435.166 240.834 437.378 234.782 439.874C229.701 441.965 224.887 444.255 220.347 446.665C219.815 446.943 219.292 447.224 218.772 447.511C205.888 454.515 195.316 462.397 187.379 469.188L187.385 469.194Z" fill="#89ADFD"/>
<path d="M218.778 447.512C219.265 448.036 219.806 448.512 220.394 448.935C221.422 449.677 222.6 450.254 223.935 450.638C227.081 451.546 231.199 452.23 235.954 452.732C241.511 453.321 247.935 453.667 254.714 453.842C259.659 453.972 264.784 454.007 269.897 453.975C295.161 453.83 320.029 452.105 320.029 452.105C320.029 452.105 329.886 459.786 329.898 469.881C340.363 469.91 350.935 469.922 361.563 469.94C363.249 469.94 364.939 469.943 366.626 469.946H368.12C371.154 469.952 374.19 469.955 377.227 469.958C379.188 469.961 381.153 469.961 383.117 469.964C384.665 465.717 386.242 461.292 387.74 456.876C392.551 442.73 396.637 428.651 396.953 420.574C398.27 386.801 314.426 381.725 263.339 381.758C261.984 381.758 260.651 381.764 259.346 381.77C255.222 381.796 251.356 381.85 247.805 381.927C246.718 381.947 245.661 381.971 244.636 381.998C238.185 382.157 233.001 382.367 229.58 382.524C226.614 382.663 224.972 382.764 224.972 382.764C224.972 382.764 223.9 385.529 222.432 389.948C221.017 394.198 219.23 399.986 217.676 406.309C217.526 406.925 217.375 407.546 217.23 408.17C217 409.143 216.781 410.122 216.568 411.113C213.547 425.179 212.291 440.606 218.784 447.506L218.778 447.512Z" fill="#303876"/>
<path d="M148.45 451.202C159.24 460.137 174.721 466.164 191.903 470.187H191.921C192.051 470.219 192.16 470.249 192.29 470.279C192.323 470.249 192.355 470.222 192.388 470.193C197.551 470.24 202.894 470.287 208.397 470.329C212.001 470.358 215.667 470.385 219.4 470.409C221.312 470.421 223.235 470.435 225.178 470.447C228.673 470.471 232.217 470.491 235.815 470.515C236.122 470.518 236.429 470.518 236.739 470.521C238.642 470.53 240.556 470.545 242.482 470.554C245.205 470.565 247.952 470.583 250.729 470.595C251.709 470.601 252.693 470.604 253.68 470.61C254.959 470.616 256.246 470.622 257.54 470.631C258.178 470.633 258.819 470.636 259.457 470.636C263.132 470.657 266.839 470.669 270.584 470.684C272.49 470.69 274.404 470.698 276.327 470.71C284.458 470.743 292.75 470.772 301.159 470.799C310.074 470.826 319.122 470.849 328.267 470.873H329.126C330.373 470.873 331.622 470.876 332.872 470.879C333.548 470.882 334.224 470.882 334.898 470.882C345.363 470.911 355.935 470.923 366.563 470.941C368.25 470.941 369.939 470.944 371.626 470.947H372.347C372.68 463.443 373.073 455.671 373.54 447.629C373.543 447.59 373.543 447.552 373.546 447.514C374.653 428.372 323.8 411.791 269.867 399.626C265.238 398.582 260.592 397.574 255.954 396.595C255.337 396.465 254.722 396.335 254.108 396.204C253.934 396.169 253.762 396.133 253.588 396.098C247.474 394.826 241.383 393.611 235.39 392.46C232.716 391.945 230.061 391.443 227.429 390.955C224.233 390.363 221.075 389.786 217.965 389.224C191.375 384.466 168.299 381.079 155.757 379.337C149.377 378.45 145.723 377.988 145.723 377.988C145.723 377.988 142.766 389.319 140.991 403.267C138.743 420.969 138.407 442.888 148.45 451.202Z" fill="#407BFF"/>
<path d="M143.45 450.202C154.24 459.137 169.721 465.164 186.903 469.187H186.921C187.051 469.219 187.16 469.249 187.29 469.279C187.323 469.249 187.355 469.222 187.388 469.193C192.551 469.24 197.894 469.287 203.397 469.329C207.001 469.358 210.667 469.385 214.4 469.409C216.312 469.421 218.235 469.435 220.178 469.447C223.673 469.471 227.217 469.491 230.815 469.515C231.122 469.518 231.429 469.518 231.739 469.521C233.642 469.53 235.556 469.545 237.482 469.554C240.205 469.565 242.952 469.583 245.729 469.595C246.709 469.601 247.693 469.604 248.68 469.61C249.959 469.616 251.246 469.622 252.54 469.631C253.178 469.633 253.819 469.636 254.457 469.636C258.132 469.657 261.839 469.669 265.584 469.684C267.49 469.69 269.404 469.698 271.327 469.71C279.458 469.743 287.75 469.772 296.159 469.799C305.074 469.826 314.122 469.849 323.267 469.873H324.126C325.373 469.873 326.622 469.876 327.872 469.879C328.548 469.882 329.224 469.882 329.898 469.882C340.363 469.911 350.935 469.923 361.563 469.941C363.25 469.941 364.939 469.944 366.626 469.947H367.347C367.68 462.443 368.073 454.671 368.54 446.629C368.543 446.59 368.543 446.552 368.546 446.514C369.653 427.372 318.8 410.791 264.867 398.626C260.238 397.582 255.592 396.574 250.954 395.595C250.337 395.465 249.722 395.335 249.108 395.204C248.934 395.169 248.762 395.133 248.588 395.098C242.474 393.826 236.383 392.611 230.39 391.46C227.716 390.945 225.061 390.443 222.429 389.955C219.233 389.363 216.075 388.786 212.965 388.224C186.375 383.466 163.299 380.079 150.757 378.337C144.377 377.45 140.723 376.988 140.723 376.988C140.723 376.988 137.766 388.319 135.991 402.267C133.743 419.969 133.407 441.888 143.45 450.202Z" fill="#303876"/>
<path d="M147.925 405.95C159.69 432.713 231.928 409.638 250.36 396.041C275.432 377.544 240.87 375.447 248.662 354.951C252.933 343.73 274.074 324.401 277.742 308.478C279.615 300.347 274.029 249.138 269.058 239.195C264.081 229.257 240.565 220.579 222.84 221.629C194.078 223.333 185.326 227.199 181.575 236.527C175.989 250.428 172.379 268.387 170.415 284.654C168.923 296.901 168.377 308.194 168.622 316.07C168.634 316.567 168.652 317.04 168.672 317.507C168.826 320.837 168.2 324.943 167.077 329.554C164.247 341.195 158.239 356.087 153.487 369.982C153.481 369.993 153.475 369.999 153.475 369.999C148.374 384.891 144.705 398.626 147.925 405.952V405.95Z" fill="#FF2252"/>
<path d="M268.34 142.616C268.911 138.762 269.738 130.235 264.879 124.196C260.684 118.984 253.672 116.012 244.039 115.361C228.712 114.326 217.354 117.917 210.519 121.108C203.096 124.577 198.031 129.789 197.874 129.942L199.897 129.105C200.045 128.957 215.098 114.403 243.971 116.352C253.317 116.982 258.888 119.407 262.902 124.397C267.525 130.141 266.677 136.085 266.131 139.777C266.104 139.963 267.915 141.61 267.915 141.652L263.942 143.054C263.942 143.054 268.326 142.722 268.34 142.616Z" fill="#0D3563"/>
<path d="M132.934 212.525L135.132 210.044C133.035 202.972 133.746 196.622 138.484 191.18C142.587 186.465 147.434 184.256 153.357 185.164C167.627 187.35 170.223 184.123 170.324 183.925L171.275 184.877L171.109 183.239L170.232 181.766C170.208 181.807 166.918 186.229 153.508 184.176C147.242 183.215 141.163 185.522 136.83 190.497C131.871 196.193 130.742 205.128 132.934 212.522V212.525Z" fill="#0D3563"/>
<path d="M26.239 266.392L32.4863 292.295L65.9177 430.952C75.6181 440.828 86.6536 449.018 98.6195 455.223C102.2 457.08 105.859 458.76 109.596 460.248C122.965 465.601 137.264 468.565 151.995 468.781C154.216 468.816 156.506 468.846 158.851 468.875C162.611 468.932 166.525 468.979 170.584 469.023C174.054 469.062 177.625 469.097 181.3 469.133C181.666 469.136 182.03 469.139 182.399 469.142H182.402C183.888 469.153 185.388 469.171 186.903 469.183H186.921C187.051 469.215 187.16 469.245 187.29 469.275C187.323 469.245 187.355 469.218 187.388 469.189C192.551 469.236 197.895 469.283 203.398 469.325C207.001 469.354 210.667 469.381 214.401 469.405C216.312 469.417 218.235 469.431 220.178 469.443C223.673 469.467 227.217 469.488 230.815 469.511C231.122 469.514 231.429 469.514 231.74 469.517C233.642 469.526 235.556 469.541 237.482 469.55C240.205 469.562 242.952 469.579 245.729 469.591C246.71 469.597 247.693 469.6 248.68 469.606C249.959 469.612 251.247 469.618 252.54 469.627C253.178 469.63 253.819 469.632 254.457 469.632C254.626 465.048 254.738 459.695 254.717 453.839C254.691 447.495 254.505 440.565 254.047 433.378C253.332 422.068 251.95 410.137 249.477 398.9C249.477 398.898 249.477 398.895 249.477 398.892C249.338 398.247 249.194 397.602 249.04 396.966C248.895 396.339 248.745 395.715 248.594 395.094C247.475 390.554 246.169 386.156 244.639 381.998C240.557 370.871 234.903 361.421 227.12 355.388C223.043 352.223 218.379 350.002 213.054 348.973C210.841 348.538 208.511 348.316 206.062 348.316C205.025 348.316 203.991 348.316 202.969 348.319C200.609 348.325 198.287 348.34 196.007 348.354C189.757 348.393 183.817 348.449 178.213 348.411C176.01 348.399 173.865 348.369 171.768 348.319H171.756C168.135 348.239 164.673 348.094 161.382 347.863C133.469 345.894 117.766 337.411 119.89 303.194C120.224 297.829 120.992 291.828 122.224 285.126C126.796 260.22 117.861 250.681 97.1544 248.096H97.1396C88.095 246.972 76.8085 247.174 63.4188 248.002C63.1825 248.013 62.9432 248.031 62.7039 248.046H62.701C56.6841 248.425 50.2506 248.927 43.4096 249.489C36.3174 250.072 24.576 259.462 26.2449 266.383L26.239 266.392Z" fill="#89ADFD"/>
<path d="M252.715 228.864C252.079 234.297 251.309 239.366 236.9 239.144C227.442 238.999 214.12 231.641 215.685 223.489C216.43 219.615 223.283 209.42 224.065 186.578L225.799 186.989L254.939 193.925C254.939 193.925 253.92 203.153 253.571 211.866C253.273 219.183 253.087 225.669 252.715 228.861V228.864Z" fill="#FDAB74"/>
<path d="M254.942 200.145C254.942 200.145 253.923 209.373 253.574 218.087C237.163 216.998 229.072 205.812 225.829 197.359L254.942 200.145Z" fill="#FD9A5D"/>
<path d="M271.008 202.895C271.008 202.895 235.798 219.472 225.826 197.358C215.854 175.244 204.594 162.493 226.65 150.973C248.709 139.453 256.912 145.904 262.034 152.473C267.156 159.042 279.908 198.012 271.008 202.892V202.895Z" fill="#FDAB74"/>
<path d="M233.465 153.806C233.465 153.806 248.228 150.287 262.034 150.52C271.424 150.677 272.39 131.222 251.474 124.641C230.275 117.969 206.168 126.214 197.874 132.233C184.18 142.171 211.846 192.436 213.278 192.67C214.711 192.903 223.277 196.594 223.277 196.594C223.277 196.594 225.46 189.54 223.487 188.076C217.112 183.344 217.151 174.235 224.727 175.391C231.128 176.367 225.02 154.972 233.465 153.809V153.806Z" fill="#300B39"/>
<path d="M278.115 303.732C283.635 301.88 288.524 298.781 292.574 295.489C285.777 291.872 278.593 281.709 276.978 282.44C275.158 283.271 278.115 303.732 278.115 303.732Z" fill="#303876"/>
<path d="M24.1653 263.404L28.1619 306.26L35.3958 383.794C41.1114 398.154 48.8475 411.12 58.155 422.347H58.158C60.6362 425.343 63.2238 428.212 65.9177 430.951C75.618 440.826 86.6535 449.016 98.6194 455.221C102.199 457.079 105.859 458.759 109.596 460.246C122.965 465.6 137.264 468.563 151.995 468.779C154.216 468.815 156.506 468.844 158.851 468.874C162.611 468.93 166.525 468.977 170.583 469.022C174.054 469.06 177.625 469.096 181.3 469.131C181.666 469.134 182.03 469.137 182.399 469.14H182.402C183.887 469.152 185.388 469.17 186.903 469.181H186.921C187.051 469.214 187.16 469.243 187.29 469.273C187.323 469.243 187.355 469.217 187.388 469.187C192.551 469.235 197.895 469.282 203.398 469.323C207.001 469.353 210.667 469.38 214.401 469.403C216.312 469.415 218.235 469.43 220.178 469.442C220.385 463.639 220.509 456.626 220.394 448.93C220.382 448.179 220.367 447.425 220.352 446.665C220.116 435.473 219.36 422.998 217.614 410.786C217.49 409.916 217.363 409.044 217.227 408.174C217.127 407.538 217.026 406.905 216.923 406.272C215.898 400.064 214.601 393.977 212.965 388.222C208.336 371.922 201.002 358.255 189.541 351.955C186.138 350.083 182.375 348.862 178.21 348.412C176.172 348.19 174.042 348.155 171.812 348.317C171.797 348.317 171.783 348.32 171.768 348.32H171.756C168.005 348.595 164.398 348.865 160.939 349.119C156.136 349.471 151.614 349.799 147.358 350.074H147.355C92.2953 353.656 81.9451 349.107 94.9715 290.729C101.104 263.259 92.8536 252.416 77.0093 249.183C72.93 248.346 68.3486 248.018 63.3803 248.044H63.3774C63.1529 248.044 62.9343 248.044 62.7068 248.047H62.7039C54.1792 248.139 44.5408 249.222 34.3679 250.544C28.9062 251.254 22.9366 255.382 24.1712 263.398L24.1653 263.404Z" fill="#407BFF"/>
<path d="M362.112 324C362.112 324 371.411 309.824 378.908 309.546C386.405 309.268 400.285 305.376 399.174 308.156C398.063 310.937 389.459 311.215 388.626 312.883C387.793 314.551 401.395 317.053 405.282 317.331C409.17 317.609 418.329 317.331 418.052 319.277C417.774 321.223 401.54 329.283 390.085 328.171C378.63 327.059 364.472 331.507 364.472 331.507L362.112 324Z" fill="#FDAB74"/>
<path d="M254.194 227.699L254.856 326.221C254.856 326.221 257.219 330.912 261.62 337.321C263.136 339.522 264.884 341.923 266.857 344.402C275.358 355.058 288.057 367.223 303.904 371.319C305.446 371.724 307.023 372.044 308.63 372.283C317.258 373.555 325.695 371.701 333.445 368.252C333.469 368.24 333.475 368.24 333.475 368.24C355.41 358.492 371.904 336.073 371.904 336.073C375.771 325.514 369.444 318.36 369.444 318.36C369.444 318.36 325.157 328.33 320.936 326.221C316.718 324.106 292.113 253.135 286.258 244.218C280.392 235.294 254.194 227.699 254.194 227.699Z" fill="#FF2252"/>
<path d="M167.08 329.55L206.812 342.149C202.848 326.743 168.56 311.766 168.56 311.766L168.622 316.066C168.634 316.563 168.652 317.036 168.672 317.503C168.826 320.834 168.2 324.939 167.077 329.55H167.08Z" fill="#D7153F"/>
<path d="M261.05 336.506C262.566 338.706 264.881 341.927 266.858 344.405C275.359 355.062 288.057 367.227 303.904 371.323C269.54 354.864 273.099 306.926 271.421 314.223C269.714 321.635 262.214 334.415 262.214 334.415L261.05 336.506Z" fill="#D7153F"/>
<path d="M202.925 340.742C202.925 340.742 215.514 346.542 218.787 351.836C222.06 357.13 226.089 373.016 223.572 375.787C221.055 378.562 210.354 368.665 209.408 364.128C208.463 359.591 205.252 359.967 202.234 357.888C199.212 355.808 196.946 349.757 196.946 349.757L202.928 340.745L202.925 340.742Z" fill="#FDAB74"/>
<path d="M214.241 348.188C214.241 348.188 226.133 359.702 224.815 360.343C223.495 360.988 216.79 357.67 216.04 356.28C215.292 354.89 214.241 348.188 214.241 348.188Z" fill="#FDAB74"/>
<path d="M215.901 221.859C215.901 221.859 192.554 223.569 182.307 227.275C172.057 230.981 109.927 307.581 109.138 327.335C108.854 334.463 117.394 354.986 195.404 351.756C195.404 351.756 206.836 348.881 206.815 342.147C206.794 335.412 165.036 324.007 164.658 316.788C164.277 309.565 202.999 296.643 202.618 282.198C202.237 267.756 215.904 221.859 215.904 221.859H215.901Z" fill="#FF2252"/>
<path d="M406.13 154.955L411.465 152.737L406.939 147.922L404.674 148.933L406.13 154.955Z" fill="#FDAB74"/>
</g>
<rect x="544" width="208" height="503" fill="url(#paint1_linear_29_4385)"/>
<rect x="752" y="301" width="169" height="768" transform="rotate(90 752 301)" fill="url(#paint2_linear_29_4385)"/>
<path d="M366.477 77.1048C366.477 77.1048 366.483 77.0507 366.489 77.0327C366.518 76.9126 366.541 76.8045 366.559 76.6904C366.559 76.6364 366.577 76.6003 366.582 76.5523C366.606 76.3301 366.629 76.1019 366.629 75.8617C366.629 75.8016 366.617 75.7296 366.617 75.6695C366.623 75.8016 366.629 75.8617 366.629 75.8617C366.629 75.8617 366.623 75.7055 366.606 75.4053C366.606 75.3872 366.606 75.3632 366.594 75.3392V75.2972C366.582 75.1771 366.559 75.0209 366.524 74.8768C366.524 74.8588 366.524 74.8528 366.524 74.8347C366.46 74.5285 366.349 74.1681 366.174 73.7658C365.893 73.1352 365.415 72.4386 364.731 71.772C364.048 71.0994 363.143 70.4989 362.08 70.0184C361.006 69.538 359.786 69.1957 358.431 69.0576C357.111 68.9315 355.669 69.0035 354.227 69.3638C352.79 69.6941 351.336 70.3727 350.127 71.4357C349.514 71.9702 348.995 72.6368 348.615 73.3935L348.475 73.6757C348.428 73.7658 348.399 73.8679 348.358 73.976C348.294 74.1742 348.2 74.3663 348.165 74.5945C348.125 74.8107 348.066 75.0509 348.043 75.2491L348.002 75.8437V76.0358L348.014 76.204C348.019 76.3121 348.031 76.4262 348.037 76.5283C348.072 76.7325 348.101 76.9486 348.16 77.1588C348.259 77.5792 348.422 77.9756 348.603 78.3599C348.714 78.5401 348.802 78.7262 348.93 78.9124C349.047 79.0866 349.164 79.2787 349.287 79.4109C349.351 79.4949 349.398 79.555 349.479 79.6511L349.701 79.8613L350.133 80.2997C351.342 81.3866 352.802 82.0232 354.238 82.3835C354.6 82.4556 354.951 82.5637 355.318 82.5997C355.675 82.6478 356.043 82.6898 356.393 82.7318C356.732 82.7318 357.082 82.7438 357.421 82.7438C357.783 82.7438 358.11 82.7138 358.448 82.6898C359.78 82.5697 361.018 82.2214 362.086 81.7349C363.149 81.2605 364.054 80.654 364.731 79.9934C365.415 79.3148 365.905 78.6241 366.174 77.9876C366.25 77.8615 366.285 77.7233 366.325 77.5852C366.349 77.5492 366.36 77.5011 366.378 77.4651C366.425 77.339 366.466 77.2249 366.483 77.1228" fill="white"/>
<path d="M394.855 73.8022C394.855 73.8022 394.855 73.7782 394.855 73.7722V73.7061C394.825 73.6161 394.802 73.532 394.79 73.4479C394.773 73.3638 394.755 73.2978 394.72 73.2197C394.709 73.1837 394.691 73.1416 394.674 73.1116C394.668 73.0876 394.65 73.0576 394.644 73.0335C394.604 72.9194 394.563 72.8053 394.504 72.7032L394.37 72.457C394.329 72.3729 394.271 72.2949 394.212 72.2168L394.049 72.0006C393.996 71.9165 393.938 71.8505 393.868 71.7844C393.734 71.6583 393.623 71.5022 393.482 71.3821L393.278 71.1959C393.202 71.1358 393.144 71.0638 393.062 71.0097L392.618 70.6794C392.618 70.6794 392.601 70.6734 392.577 70.6734H392.601C391.958 70.247 391.252 69.9167 390.528 69.6585C389.798 69.3943 389.05 69.2261 388.28 69.118C387.888 69.058 387.509 69.0339 387.118 69.0099C386.925 68.9919 386.738 69.0099 386.54 69.0039C386.341 69.0039 386.148 68.9919 385.962 69.0099C385.173 69.0339 384.402 69.1661 383.643 69.3642C382.873 69.5504 382.131 69.8387 381.43 70.241C380.73 70.6374 380.064 71.1478 379.55 71.8265L379.357 72.0787C379.299 72.1628 379.252 72.2648 379.2 72.3549C379.141 72.445 379.083 72.5411 379.036 72.6312L378.919 72.9435C378.82 73.1236 378.773 73.3698 378.727 73.604L378.686 73.7722L378.674 73.9163L378.645 74.2106V74.2887L378.639 74.2947C378.639 74.3727 378.639 74.3187 378.639 74.3487V74.4028L378.657 74.5649C378.657 74.679 378.663 74.7871 378.692 74.8952C378.715 75.0033 378.727 75.1114 378.756 75.2255L378.849 75.5678C378.89 75.6819 378.931 75.748 378.96 75.8501L379.025 75.9822L379.036 76.0182L379.048 76.0422L379.065 76.0783L379.106 76.1503L379.264 76.4326L379.439 76.6968C379.935 77.3934 380.595 77.9159 381.278 78.3363C381.973 78.7507 382.709 79.0509 383.474 79.2611C384.233 79.4773 385.004 79.5854 385.781 79.6455C385.979 79.6575 386.178 79.6695 386.37 79.6695H386.943C387.141 79.6575 387.328 79.6395 387.526 79.6275C387.719 79.6154 387.906 79.5854 388.105 79.5734C388.869 79.4773 389.623 79.3032 390.358 79.0629C391.088 78.8227 391.795 78.4924 392.443 78.0781C393.097 77.6637 393.687 77.1412 394.142 76.5167C394.294 76.3065 394.423 76.0843 394.534 75.8561C394.563 75.784 394.592 75.7179 394.621 75.6579C394.633 75.6159 394.644 75.5918 394.656 75.5558C394.674 75.5078 394.691 75.4717 394.703 75.4237C394.726 75.3696 394.738 75.3156 394.755 75.2615C394.755 75.2315 394.773 75.2015 394.779 75.1715C394.79 75.1174 394.808 75.0453 394.825 74.9853C394.825 74.9553 394.825 74.9252 394.837 74.8952C394.849 74.8412 394.861 74.7691 394.861 74.715C394.861 74.679 394.872 74.649 394.872 74.6069C394.878 74.5229 394.884 74.4268 394.884 74.3367C394.884 74.1565 394.866 73.9764 394.837 73.8082" fill="white"/>
<path d="M368.481 91.0795C368.504 91.0314 368.504 90.9954 368.51 90.9473L368.492 90.8453C368.492 90.8453 368.475 90.8092 368.469 90.7972C368.463 90.7852 368.457 90.7792 368.457 90.7612C368.457 90.7612 368.446 90.7552 368.44 90.7552C368.422 90.7372 368.405 90.7131 368.381 90.7011L368.294 90.6471L368.113 90.563C367.774 90.3948 367.424 90.2267 367.079 90.0706L366.601 89.8484H366.589L365.9 89.5541C365.719 89.47 365.526 89.3919 365.339 89.3139L364.668 89.0316C364.025 88.7734 363.371 88.5452 362.723 88.299C362.069 88.0708 361.404 87.8666 360.75 87.6564C360.423 87.5423 360.084 87.4582 359.757 87.3681L358.753 87.0979C358.42 87.0078 358.081 86.9297 357.742 86.8577L356.726 86.6475C356.394 86.5694 356.043 86.5094 355.71 86.4613L354.683 86.2812C354.344 86.2211 353.999 86.1851 353.655 86.155L352.616 86.0349C352.271 85.9929 351.927 85.9809 351.582 85.9689L350.543 85.9208C350.192 85.8968 349.848 85.9208 349.497 85.9208H348.984L348.464 85.9509C348.119 85.9809 347.769 85.9809 347.425 86.0289L346.385 86.155L345.352 86.3412C345.007 86.4013 344.674 86.5094 344.33 86.5874C343.658 86.7796 342.993 87.0018 342.333 87.3021L342.087 87.3982L341.854 87.5303L341.398 87.7825C341.317 87.8305 341.258 87.8606 341.159 87.9206L340.943 88.0768L340.493 88.383C340.353 88.4911 340.225 88.6293 340.09 88.7554C339.962 88.8755 339.816 89.0016 339.699 89.1397L339.349 89.5661C339.296 89.6382 339.238 89.7042 339.18 89.7763L339.039 90.0225L338.753 90.5029C338.666 90.6771 338.613 90.8513 338.531 91.0134C338.374 91.3617 338.292 91.722 338.199 92.0824C338.181 92.1664 338.146 92.2625 338.128 92.3526L338.093 92.6288L338.023 93.1813C337.988 93.5597 338.006 93.92 338 94.2983V94.3164L338.006 94.3344C338.093 95.7276 338.502 97.0668 339.074 98.3039L339.536 99.2108L340.05 100.082C340.429 100.658 340.826 101.223 341.247 101.709L341.568 102.105L341.912 102.472C342.14 102.712 342.362 102.964 342.601 103.204C343.086 103.661 343.559 104.135 344.084 104.55C344.587 104.988 345.124 105.378 345.655 105.781C345.918 105.979 346.204 106.147 346.479 106.333C346.753 106.507 347.027 106.699 347.308 106.868C347.886 107.198 348.441 107.546 349.036 107.847L349.918 108.309L350.805 108.717L351.249 108.921L351.36 108.97L351.413 108.994C351.413 108.994 351.471 109.012 351.506 109.024C351.588 109.042 351.582 109.042 351.611 109.042H351.623C351.623 109.042 351.734 109.048 351.699 109.048H351.769C351.816 109.024 351.868 109.024 351.915 109.006C351.956 108.994 352.002 108.97 352.043 108.945C352.084 108.921 352.137 108.885 352.183 108.837C352.201 108.819 352.224 108.801 352.248 108.771C352.271 108.753 352.271 108.753 352.271 108.741L352.306 108.687C352.376 108.573 352.329 108.639 352.353 108.609L352.364 108.567L352.382 108.501C352.4 108.453 352.411 108.405 352.417 108.357C352.417 108.261 352.417 108.165 352.394 108.063C352.376 108.003 352.347 107.943 352.312 107.895C352.294 107.859 352.283 107.84 352.265 107.81C352.242 107.786 352.224 107.756 352.219 107.756L352.178 107.714L352.154 107.69H352.143C352.008 107.576 352.102 107.648 352.067 107.624L351.973 107.552L351.775 107.432C351.512 107.252 351.261 107.054 350.998 106.868C350.747 106.669 350.496 106.477 350.245 106.267C349.258 105.462 348.3 104.562 347.471 103.607C347.255 103.378 347.051 103.108 346.835 102.862L346.683 102.67C346.683 102.67 346.619 102.592 346.613 102.586L346.543 102.484L346.251 102.093C345.889 101.571 345.533 101.024 345.246 100.454C344.663 99.3249 344.265 98.0697 344.295 96.7846C344.306 96.154 344.417 95.5174 344.616 94.9289C344.668 94.7848 344.721 94.6407 344.791 94.4785L344.89 94.2563L344.919 94.1963L344.943 94.1542L345.001 94.0521L345.229 93.6318L345.492 93.2354C346.233 92.1965 347.267 91.3857 348.417 90.8332C349.562 90.2747 350.811 89.9264 352.073 89.7102C353.345 89.5 354.63 89.404 355.921 89.398L357.853 89.446C358.496 89.488 359.144 89.5481 359.786 89.6021C360.423 89.6622 361.071 89.7643 361.707 89.8303C362.35 89.9264 362.98 90.0465 363.623 90.1546C364.89 90.4009 366.157 90.6711 367.4 91.0134L367.803 91.1695L368.008 91.2476C368.008 91.2476 368.06 91.2716 368.078 91.2776H368.101H368.107C368.136 91.2957 368.177 91.3017 368.212 91.3017C368.259 91.3017 368.3 91.3017 368.335 91.2896C368.376 91.2716 368.405 91.2416 368.44 91.2116C368.463 91.1876 368.475 91.1635 368.492 91.1335C368.498 91.1275 368.51 91.1155 368.51 91.1095L368.481 91.0795Z" fill="white"/>
<path d="M405 90.1667C405 90.0045 404.994 89.8484 404.982 89.6863C404.982 89.6202 404.965 89.5481 404.959 89.4641C404.947 89.35 404.93 89.2359 404.907 89.1037C404.901 89.0257 404.889 88.9536 404.877 88.8755C404.708 87.9687 404.381 87.0679 403.844 86.3052C403.33 85.5545 402.612 84.936 401.812 84.4916C401.006 84.0712 400.153 83.7529 399.283 83.5007C397.526 83.0383 395.71 82.8401 393.9 82.8701C392.089 82.8701 390.285 83.0803 388.498 83.3926C388.055 83.4767 387.599 83.5367 387.167 83.6568L385.841 83.9691C384.966 84.2153 384.084 84.4315 383.225 84.7318C382.367 85.0021 381.515 85.3324 380.662 85.6446C380.236 85.8068 379.821 85.9929 379.401 86.1671L378.77 86.4313L378.151 86.7256C376.493 87.4763 374.893 88.3471 373.316 89.2599C371.746 90.1847 370.222 91.2056 368.744 92.2746C367.279 93.3736 365.842 94.5206 364.493 95.7637C364.143 96.058 363.816 96.3883 363.483 96.7005C363.15 97.0188 362.817 97.3191 362.496 97.6554C361.854 98.322 361.194 98.9586 360.587 99.6492L359.664 100.682L358.777 101.745C358.175 102.442 357.62 103.18 357.06 103.919L356.64 104.466L356.248 105.03L355.448 106.165C355.174 106.543 354.929 106.94 354.683 107.324L353.936 108.501C353.445 109.294 353.008 110.099 352.535 110.909C352.079 111.708 351.676 112.555 351.244 113.372C350.427 115.035 349.662 116.729 348.984 118.464C348.622 119.323 348.336 120.212 348.021 121.088L347.565 122.41L347.162 123.755C346.9 124.656 346.608 125.538 346.403 126.445L346.065 127.796L345.895 128.475L345.814 128.817L345.773 128.98C345.773 128.98 345.749 129.064 345.749 129.124C345.744 129.178 345.749 129.25 345.761 129.304V129.316C345.779 129.412 345.773 129.346 345.779 129.37L345.784 129.4L345.819 129.484C345.849 129.538 345.89 129.592 345.936 129.646C345.989 129.7 346.076 129.76 346.129 129.784L346.176 129.802H346.199L346.205 129.808L346.257 129.832H346.263L346.637 129.91L347.384 130.054L348.143 130.211C348.395 130.253 348.64 130.313 348.891 130.355L350.403 130.565L351.156 130.667C351.408 130.703 351.664 130.727 351.916 130.745L353.445 130.865L354.205 130.919C354.461 130.931 354.713 130.937 354.964 130.943L356.476 130.979L357.247 130.997H357.626H357.72H357.755C357.79 130.997 357.778 130.997 357.79 130.997C357.825 130.997 357.854 130.991 357.895 130.985C358.023 130.949 358.146 130.889 358.251 130.781C358.31 130.721 358.356 130.655 358.391 130.583C358.432 130.517 358.461 130.349 358.456 130.349V130.319V130.247V129.634C358.456 129.34 358.456 129.04 358.467 128.745C358.485 128.157 358.514 127.562 358.555 126.98C358.631 125.791 358.753 124.614 358.905 123.443C359.226 121.088 359.688 118.764 360.324 116.482C361.585 111.93 363.495 107.564 366.152 103.703C367.483 101.781 368.984 99.9855 370.642 98.358C372.3 96.7366 374.116 95.2593 376.061 94.0221C378.023 92.767 380.061 91.7221 382.204 90.8213C382.741 90.6231 383.278 90.4009 383.821 90.2147L384.639 89.9325L385.462 89.6863C385.736 89.6022 386.011 89.5241 386.297 89.452C386.571 89.386 386.857 89.3139 387.132 89.2539C387.692 89.1458 388.247 89.0076 388.814 88.9356C389.386 88.8455 389.935 88.8095 390.507 88.7434L391.377 88.7254C391.64 88.7074 391.938 88.7254 392.218 88.7374C393.339 88.8035 394.46 88.9836 395.5 89.392C396.533 89.7823 397.473 90.4369 398.08 91.3437C398.145 91.4518 398.215 91.578 398.291 91.6861C398.355 91.8062 398.396 91.9263 398.448 92.0464C398.507 92.1545 398.542 92.3166 398.588 92.4547L398.624 92.5568L398.641 92.5929V92.6169L398.676 92.8391C398.81 93.3856 398.781 93.9381 398.723 94.4966C398.559 95.6136 398.11 96.6885 397.508 97.6674C396.913 98.6523 396.165 99.5531 395.348 100.37C394.945 100.79 394.513 101.175 394.081 101.559C393.859 101.745 393.631 101.925 393.403 102.105C393.181 102.292 392.959 102.472 392.726 102.64C392.253 102.982 391.792 103.337 391.301 103.643L390.577 104.123L389.83 104.574C387.85 105.769 385.731 106.73 383.547 107.522C381.374 108.321 379.132 108.922 376.872 109.444C374.607 109.96 372.329 110.375 370.023 110.687C368.873 110.843 367.722 110.981 366.572 111.089C365.41 111.186 364.271 111.288 363.104 111.288H363.115C363.004 111.282 362.899 111.318 362.823 111.378C362.736 111.444 362.689 111.51 362.654 111.636C362.625 111.708 362.625 111.834 362.654 111.924C362.671 111.978 362.689 112.014 362.73 112.062C362.747 112.086 362.771 112.11 362.782 112.122L362.823 112.158H362.835C362.876 112.188 362.876 112.188 362.893 112.194C362.917 112.2 362.94 112.224 362.969 112.224L363.016 112.236H363.033C363.033 112.236 363.068 112.242 363.063 112.236H363.086L363.285 112.261L363.687 112.279L365.293 112.381L366.099 112.429C366.362 112.441 366.63 112.441 366.899 112.441L368.499 112.471L369.299 112.483L370.099 112.465C370.636 112.465 371.167 112.453 371.705 112.417C372.773 112.375 373.848 112.291 374.91 112.188L376.505 112.002L378.099 111.78L379.681 111.504C380.207 111.408 380.732 111.3 381.252 111.192C381.777 111.083 382.297 110.939 382.823 110.813C383.348 110.693 383.856 110.531 384.37 110.393C385.404 110.093 386.42 109.744 387.424 109.378C387.932 109.192 388.417 108.97 388.925 108.777C389.421 108.567 389.906 108.339 390.396 108.117C390.875 107.883 391.354 107.63 391.833 107.384L393.251 106.603C393.707 106.309 394.174 106.039 394.612 105.733C395.073 105.432 395.511 105.138 395.943 104.814C396.819 104.171 397.654 103.481 398.448 102.754C399.254 102.021 399.996 101.229 400.708 100.406C401.415 99.5771 402.063 98.6823 402.623 97.7575C403.196 96.8327 403.698 95.8538 404.089 94.8269C404.194 94.5386 404.288 94.2564 404.375 93.9621C404.428 93.812 404.474 93.6618 404.515 93.5177C404.55 93.3856 404.58 93.2715 404.609 93.1454C404.626 93.0853 404.644 93.0253 404.661 92.9712C404.696 92.8031 404.737 92.6409 404.766 92.4788C404.766 92.4728 404.766 92.4547 404.772 92.4427V92.4187C404.819 92.1545 404.866 91.8902 404.901 91.632C404.924 91.4098 404.947 91.1876 404.953 90.9654C404.953 90.9234 404.953 90.8813 404.953 90.8453C404.953 90.6651 404.971 90.479 404.971 90.3048C404.971 90.2508 404.953 90.1967 404.953 90.1427" fill="white"/>
<path d="M394.691 121.334C394.691 121.334 394.726 121.274 394.732 121.25C394.75 121.202 394.755 121.166 394.755 121.13C394.755 121.118 394.755 121.1 394.755 121.088C394.755 121.064 394.755 121.046 394.738 121.034C394.738 121.022 394.738 121.016 394.738 121.01V121.004L394.691 120.89C394.382 120.001 394.037 119.136 393.675 118.271L393.471 117.743C393.354 117.419 393.202 117.136 393.062 116.824L392.647 115.911L391.818 114.098L390.878 112.338C390.563 111.755 390.271 111.149 389.926 110.578L388.881 108.879C388.519 108.314 388.204 107.732 387.795 107.203L386.639 105.582L386.061 104.765C385.856 104.495 385.634 104.243 385.43 103.991L384.157 102.453C383.941 102.201 383.743 101.919 383.515 101.684L382.832 100.952L381.454 99.4985L381.109 99.1442L380.747 98.8139L380.011 98.1533L378.546 96.8261L378.458 96.736L378.406 96.694H378.4L378.37 96.67L378.359 96.6519L378.295 96.6159C378.219 96.5679 378.125 96.5258 378.032 96.5138C377.979 96.5138 377.938 96.5138 377.892 96.5078C377.839 96.5078 377.769 96.5198 377.705 96.5378C377.646 96.5619 377.576 96.5859 377.535 96.6099L377.489 96.6459L377.465 96.6579L377.454 96.67L377.384 96.724H377.372C377.343 96.7781 377.308 96.8201 377.284 96.8561C377.226 96.9342 377.203 97.0303 377.179 97.1324C377.15 97.2104 377.168 97.3666 377.203 97.4807C377.203 97.5107 377.226 97.5648 377.232 97.5648V97.5948L377.279 97.6488V97.6669L377.319 97.7329L377.337 97.7629L377.372 97.817L377.518 98.0092L377.792 98.3935C377.752 98.3274 377.728 98.2254 377.728 98.1593L377.804 98.4115C377.804 98.4115 377.804 98.4115 377.798 98.4055H377.81V98.4175L378.47 99.4024L379.095 100.399L379.69 101.432C379.889 101.769 380.064 102.123 380.245 102.477C380.449 102.813 380.607 103.186 380.776 103.534L381.039 104.069L381.278 104.615C381.436 104.975 381.6 105.336 381.746 105.708L382.189 106.813C382.335 107.179 382.458 107.552 382.592 107.936C382.727 108.308 382.861 108.687 382.966 109.065L383.328 110.212L383.643 111.365C383.865 112.134 384.017 112.915 384.198 113.695C384.356 114.482 384.502 115.269 384.642 116.055C384.747 116.848 384.887 117.641 384.963 118.439L385.08 119.641L385.144 120.235L385.179 120.836C385.22 121.64 385.29 122.439 385.29 123.238L385.319 124.457L385.331 124.751V124.907C385.337 124.961 385.343 125.033 385.372 125.093C385.383 125.142 385.448 125.22 385.477 125.244L385.506 125.268C385.553 125.298 385.529 125.274 385.535 125.286L385.559 125.298L385.629 125.328C385.751 125.37 385.897 125.316 385.961 125.28L388.163 124.403L390.329 123.466L392.466 122.475L393.144 122.139C393.628 121.899 394.107 121.664 394.586 121.418C394.621 121.4 394.65 121.376 394.674 121.346C394.674 121.34 394.674 121.328 394.691 121.322" fill="white"/>
</g>
<defs>
<linearGradient id="paint0_linear_29_4385" x1="597.829" y1="150.27" x2="597.829" y2="338.34" gradientUnits="userSpaceOnUse">
<stop stop-color="#407BFF"/>
<stop offset="1" stop-color="white"/>
</linearGradient>
<linearGradient id="paint1_linear_29_4385" x1="561.721" y1="503" x2="752" y2="503" gradientUnits="userSpaceOnUse">
<stop stop-color="white" stop-opacity="0"/>
<stop offset="1" stop-color="white"/>
</linearGradient>
<linearGradient id="paint2_linear_29_4385" x1="810" y1="1069" x2="938" y2="1069" gradientUnits="userSpaceOnUse">
<stop stop-color="white" stop-opacity="0"/>
<stop offset="1" stop-color="white"/>
</linearGradient>
<clipPath id="clip0_29_4385">
<rect width="752" height="503" fill="white"/>
</clipPath>
<clipPath id="clip1_29_4385">
<rect width="759" height="438" fill="white" transform="translate(24 32)"/>
</clipPath>
</defs>
</svg>
